Latitude.ufo
<glyph name="exclam" format="2">
	<advance width="243"/>
	<unicode hex="0021"/>
	<outline>
		<contour>
			<point x="108" y="200" type="line"/>
			<point x="131" y="200" type="line"/>
			<point x="172" y="610" type="line" smooth="yes"/>
			<point x="180" y="694"/>
			<point x="177" y="756"/>
			<point x="121" y="756" type="curve" smooth="yes"/>
			<point x="66" y="756"/>
			<point x="59" y="694"/>
			<point x="67" y="610" type="curve" smooth="yes"/>
		</contour>
		<contour>
			<point x="121" y="-9" type="curve" smooth="yes"/>
			<point x="160" y="-9"/>
			<point x="187" y="18"/>
			<point x="187" y="57" type="curve" smooth="yes"/>
			<point x="187" y="94"/>
			<point x="159" y="121"/>
			<point x="121" y="121" type="curve" smooth="yes"/>
			<point x="82" y="121"/>
			<point x="56" y="94"/>
			<point x="56" y="57" type="curve" smooth="yes"/>
			<point x="56" y="18"/>
			<point x="82" y="-9"/>
		</contour>
	</outline>
</glyph>
<glyph name="quotedbl" format="2">
	<advance width="328"/>
	<unicode hex="0022"/>
	<outline>
		<contour>
			<point x="221" y="500" type="line"/>
			<point x="259" y="500" type="line"/>
			<point x="292" y="750" type="line"/>
			<point x="188" y="750" type="line"/>
		</contour>
		<contour>
			<point x="69" y="500" type="line"/>
			<point x="107" y="500" type="line"/>
			<point x="140" y="750" type="line"/>
			<point x="36" y="750" type="line"/>
		</contour>
	</outline>
</glyph>
<glyph name="numbersign" format="2">
	<advance width="660"/>
	<unicode hex="0023"/>
	<outline>
		<contour>
			<point x="271" y="0" type="line"/>
			<point x="340" y="0" type="line"/>
			<point x="606" y="700" type="line"/>
			<point x="537" y="700" type="line"/>
		</contour>
		<contour>
			<point x="36" y="216" type="line"/>
			<point x="542" y="216" type="line"/>
			<point x="566" y="276" type="line"/>
			<point x="60" y="276" type="line"/>
		</contour>
		<contour>
			<point x="58" y="0" type="line"/>
			<point x="127" y="0" type="line"/>
			<point x="393" y="700" type="line"/>
			<point x="324" y="700" type="line"/>
		</contour>
		<contour>
			<point x="96" y="440" type="line"/>
			<point x="600" y="440" type="line"/>
			<point x="624" y="500" type="line"/>
			<point x="120" y="500" type="line"/>
		</contour>
	</outline>
</glyph>
<glyph name="dollar" format="2">
	<advance width="558"/>
	<unicode hex="0024"/>
	<outline>
		<contour>
			<point x="268" y="-7" type="curve" smooth="yes"/>
			<point x="395" y="-7"/>
			<point x="517" y="64"/>
			<point x="517" y="205" type="curve" smooth="yes"/>
			<point x="517" y="283"/>
			<point x="463" y="341"/>
			<point x="391" y="371" type="curve" smooth="yes"/>
			<point x="279" y="418" type="line" smooth="yes"/>
			<point x="218" y="444"/>
			<point x="177" y="480"/>
			<point x="177" y="533" type="curve" smooth="yes"/>
			<point x="177" y="589"/>
			<point x="225" y="621"/>
			<point x="293" y="621" type="curve" smooth="yes"/>
			<point x="365" y="621"/>
			<point x="403" y="579"/>
			<point x="416" y="513" type="curve" smooth="yes"/>
			<point x="421" y="488" type="line"/>
			<point x="441" y="483" type="line"/>
			<point x="489" y="625" type="line"/>
			<point x="436" y="660"/>
			<point x="377" y="682"/>
			<point x="313" y="682" type="curve" smooth="yes"/>
			<point x="203" y="682"/>
			<point x="80" y="608"/>
			<point x="80" y="495" type="curve" smooth="yes"/>
			<point x="80" y="417"/>
			<point x="126" y="368"/>
			<point x="193" y="339" type="curve" smooth="yes"/>
			<point x="331" y="279" type="line" smooth="yes"/>
			<point x="382" y="257"/>
			<point x="416" y="216"/>
			<point x="416" y="166" type="curve" smooth="yes"/>
			<point x="416" y="90"/>
			<point x="366" y="54"/>
			<point x="295" y="54" type="curve" smooth="yes"/>
			<point x="210" y="54"/>
			<point x="135" y="123"/>
			<point x="129" y="225" type="curve" smooth="yes"/>
			<point x="127" y="259" type="line"/>
			<point x="107" y="267" type="line"/>
			<point x="36" y="107" type="line"/>
			<point x="38" y="105" type="line"/>
			<point x="101" y="29"/>
			<point x="168" y="-7"/>
		</contour>
		<contour>
			<point x="200" y="-80" type="line"/>
			<point x="238" y="-80" type="line"/>
			<point x="291" y="750" type="line"/>
			<point x="253" y="750" type="line"/>
		</contour>
		<contour>
			<point x="290" y="-80" type="line"/>
			<point x="328" y="-80" type="line"/>
			<point x="381" y="750" type="line"/>
			<point x="343" y="750" type="line"/>
		</contour>
	</outline>
</glyph>
<glyph name="ampersand" format="2">
	<advance width="876"/>
	<unicode hex="0026"/>
	<outline>
		<contour>
			<point x="263" y="-14" type="curve" smooth="yes"/>
			<point x="425" y="-14"/>
			<point x="502" y="100"/>
			<point x="546" y="153" type="curve" smooth="yes"/>
			<point x="632" y="255" type="line" smooth="yes"/>
			<point x="692" y="326"/>
			<point x="768" y="383"/>
			<point x="768" y="383" type="curve"/>
			<point x="649" y="378" type="line"/>
			<point x="649" y="378"/>
			<point x="624" y="326"/>
			<point x="584" y="276" type="curve" smooth="yes"/>
			<point x="507" y="178" type="line" smooth="yes"/>
			<point x="467" y="127"/>
			<point x="405" y="52"/>
			<point x="302" y="52" type="curve" smooth="yes"/>
			<point x="203" y="52"/>
			<point x="140" y="121"/>
			<point x="140" y="207" type="curve" smooth="yes"/>
			<point x="140" y="298"/>
			<point x="209" y="356"/>
			<point x="300" y="389" type="curve" smooth="yes"/>
			<point x="363" y="412" type="line" smooth="yes"/>
			<point x="468" y="450"/>
			<point x="535" y="500"/>
			<point x="535" y="576" type="curve" smooth="yes"/>
			<point x="535" y="650"/>
			<point x="470" y="711"/>
			<point x="376" y="711" type="curve" smooth="yes"/>
			<point x="271" y="711"/>
			<point x="186" y="635"/>
			<point x="186" y="549" type="curve" smooth="yes"/>
			<point x="186" y="493"/>
			<point x="221" y="457"/>
			<point x="252" y="426" type="curve" smooth="yes"/>
			<point x="452" y="224" type="line" smooth="yes"/>
			<point x="503" y="173"/>
			<point x="650" y="29"/>
			<point x="650" y="29" type="curve"/>
			<point x="775" y="29" type="line"/>
			<point x="775" y="29"/>
			<point x="615" y="187"/>
			<point x="557" y="245" type="curve" smooth="yes"/>
			<point x="350" y="455" type="line" smooth="yes"/>
			<point x="303" y="502"/>
			<point x="282" y="537"/>
			<point x="282" y="583" type="curve" smooth="yes"/>
			<point x="282" y="632"/>
			<point x="306" y="673"/>
			<point x="358" y="673" type="curve" smooth="yes"/>
			<point x="421" y="673"/>
			<point x="440" y="614"/>
			<point x="440" y="574" type="curve" smooth="yes"/>
			<point x="440" y="530"/>
			<point x="417" y="475"/>
			<point x="347" y="450" type="curve" smooth="yes"/>
			<point x="263" y="420" type="line" smooth="yes"/>
			<point x="200" y="398"/>
			<point x="36" y="344"/>
			<point x="36" y="188" type="curve" smooth="yes"/>
			<point x="36" y="77"/>
			<point x="119" y="-14"/>
		</contour>
		<contour>
			<point x="527" y="-4" type="line"/>
			<point x="585" y="0"/>
			<point x="635" y="3"/>
			<point x="691" y="3" type="curve" smooth="yes"/>
			<point x="747" y="3"/>
			<point x="802" y="0"/>
			<point x="860" y="-4" type="curve"/>
			<point x="860" y="24" type="line"/>
			<point x="822" y="32"/>
			<point x="773" y="48"/>
			<point x="737" y="61" type="curve"/>
			<point x="633" y="54" type="line"/>
			<point x="600" y="43"/>
			<point x="571" y="33"/>
			<point x="527" y="24" type="curve"/>
		</contour>
		<contour>
			<point x="725" y="352" type="line"/>
			<point x="754" y="368"/>
			<point x="785" y="387"/>
			<point x="820" y="398" type="curve"/>
			<point x="820" y="425" type="line"/>
			<point x="773" y="421"/>
			<point x="727" y="418"/>
			<point x="676" y="418" type="curve" smooth="yes"/>
			<point x="625" y="418"/>
			<point x="565" y="421"/>
			<point x="510" y="425" type="curve"/>
			<point x="510" y="397" type="line"/>
			<point x="564" y="387"/>
			<point x="602" y="378"/>
			<point x="650" y="362" type="curve"/>
		</contour>
	</outline>
</glyph>
<glyph name="quotesingle" format="2">
	<advance width="176"/>
	<unicode hex="0027"/>
	<outline>
		<contour>
			<point x="69" y="500" type="line"/>
			<point x="107" y="500" type="line"/>
			<point x="140" y="750" type="line"/>
			<point x="36" y="750" type="line"/>
		</contour>
	</outline>
</glyph>
<glyph name="parenleft" format="2">
	<advance width="262"/>
	<unicode hex="0028"/>
	<outline>
		<contour>
			<point x="215" y="-105" type="curve"/>
			<point x="241" y="-89" type="line"/>
			<point x="185" y="21"/>
			<point x="145" y="172"/>
			<point x="145" y="327" type="curve" smooth="yes"/>
			<point x="145" y="472"/>
			<point x="185" y="627"/>
			<point x="241" y="737" type="curve"/>
			<point x="215" y="754" type="line"/>
			<point x="125" y="623"/>
			<point x="56" y="496"/>
			<point x="56" y="327" type="curve" smooth="yes"/>
			<point x="56" y="147"/>
			<point x="125" y="26"/>
		</contour>
	</outline>
</glyph>
<glyph name="parenright" format="2">
	<advance width="262"/>
	<unicode hex="0029"/>
	<outline>
		<contour>
			<point x="47" y="-105" type="line"/>
			<point x="137" y="26"/>
			<point x="206" y="147"/>
			<point x="206" y="327" type="curve" smooth="yes"/>
			<point x="206" y="496"/>
			<point x="137" y="623"/>
			<point x="47" y="754" type="curve"/>
			<point x="21" y="737" type="line"/>
			<point x="77" y="627"/>
			<point x="117" y="472"/>
			<point x="117" y="327" type="curve" smooth="yes"/>
			<point x="117" y="172"/>
			<point x="77" y="21"/>
			<point x="21" y="-89" type="curve"/>
		</contour>
	</outline>
</glyph>
<glyph name="asterisk" format="2">
	<advance width="484"/>
	<unicode hex="002A"/>
	<outline>
		<contour>
			<point x="118" y="418" type="curve" smooth="yes"/>
			<point x="239" y="529" type="line"/>
			<point x="77" y="489" type="line" smooth="yes"/>
			<point x="-7" y="468"/>
			<point x="54" y="359"/>
		</contour>
		<contour>
			<point x="201" y="369" type="line" smooth="yes"/>
			<point x="179" y="285"/>
			<point x="300" y="285"/>
			<point x="280" y="369" type="curve" smooth="yes"/>
			<point x="242" y="528" type="line"/>
		</contour>
		<contour>
			<point x="239" y="536" type="line"/>
			<point x="118" y="647" type="line" smooth="yes"/>
			<point x="54" y="706"/>
			<point x="-7" y="597"/>
			<point x="77" y="576" type="curve" smooth="yes"/>
		</contour>
		<contour>
			<point x="366" y="418" type="line" smooth="yes"/>
			<point x="430" y="359"/>
			<point x="491" y="468"/>
			<point x="407" y="489" type="curve" smooth="yes"/>
			<point x="245" y="529" type="line"/>
		</contour>
		<contour>
			<point x="242" y="537" type="line"/>
			<point x="280" y="696" type="line" smooth="yes"/>
			<point x="300" y="780"/>
			<point x="179" y="780"/>
			<point x="201" y="696" type="curve" smooth="yes"/>
		</contour>
		<contour>
			<point x="245" y="536" type="line"/>
			<point x="407" y="576" type="line" smooth="yes"/>
			<point x="491" y="597"/>
			<point x="430" y="706"/>
			<point x="366" y="647" type="curve" smooth="yes"/>
		</contour>
	</outline>
</glyph>
<glyph name="plus" format="2">
	<advance width="512"/>
	<unicode hex="002B"/>
	<outline>
		<contour>
			<point x="224" y="146" type="line"/>
			<point x="287" y="146" type="line"/>
			<point x="287" y="532" type="line"/>
			<point x="224" y="532" type="line"/>
		</contour>
		<component base="minus"/>
	</outline>
</glyph>
<glyph name="comma" format="2">
	<advance width="246"/>
	<unicode hex="002C"/>
	<outline>
		<contour>
			<point x="10" y="-177" type="line"/>
			<point x="130" y="-114"/>
			<point x="190" y="-54"/>
			<point x="190" y="37" type="curve" smooth="yes"/>
			<point x="190" y="88"/>
			<point x="164" y="120"/>
			<point x="119" y="120" type="curve" smooth="yes"/>
			<point x="77" y="120"/>
			<point x="53" y="95"/>
			<point x="53" y="60" type="curve" smooth="yes"/>
			<point x="53" y="-1"/>
			<point x="111" y="13"/>
			<point x="111" y="-24" type="curve" smooth="yes"/>
			<point x="111" y="-65"/>
			<point x="62" y="-109"/>
			<point x="0" y="-158" type="curve"/>
		</contour>
	</outline>
</glyph>
<glyph name="hyphen" format="2">
	<advance width="395"/>
	<unicode hex="002D"/>
	<outline>
		<contour>
			<point x="38" y="247" type="line"/>
			<point x="330" y="247" type="line"/>
			<point x="359" y="327" type="line"/>
			<point x="67" y="327" type="line"/>
		</contour>
	</outline>
</glyph>
<glyph name="period" format="2">
	<advance width="243"/>
	<unicode hex="002E"/>
	<outline>
		<contour>
			<point x="121" y="-9" type="curve" smooth="yes"/>
			<point x="160" y="-9"/>
			<point x="187" y="18"/>
			<point x="187" y="57" type="curve" smooth="yes"/>
			<point x="187" y="94"/>
			<point x="159" y="121"/>
			<point x="121" y="121" type="curve" smooth="yes"/>
			<point x="82" y="121"/>
			<point x="56" y="94"/>
			<point x="56" y="57" type="curve" smooth="yes"/>
			<point x="56" y="18"/>
			<point x="82" y="-9"/>
		</contour>
	</outline>
</glyph>
<glyph name="slash" format="2">
	<advance width="388"/>
	<unicode hex="002F"/>
	<outline>
		<contour>
			<point x="21" y="0" type="line"/>
			<point x="95" y="0" type="line"/>
			<point x="367" y="717" type="line"/>
			<point x="293" y="717" type="line"/>
		</contour>
	</outline>
</glyph>
<glyph name="zero" format="2">
	<advance width="611"/>
	<unicode hex="0030"/>
	<outline>
		<contour>
			<point x="305" y="-14" type="curve" smooth="yes"/>
			<point x="469" y="-14"/>
			<point x="565" y="149"/>
			<point x="565" y="349" type="curve" smooth="yes"/>
			<point x="565" y="549"/>
			<point x="469" y="712"/>
			<point x="305" y="712" type="curve" smooth="yes"/>
			<point x="142" y="712"/>
			<point x="46" y="549"/>
			<point x="46" y="349" type="curve" smooth="yes"/>
			<point x="46" y="149"/>
			<point x="142" y="-14"/>
		</contour>
		<contour>
			<point x="305" y="38" type="curve" smooth="yes"/>
			<point x="209" y="38"/>
			<point x="156" y="187"/>
			<point x="156" y="349" type="curve" smooth="yes"/>
			<point x="156" y="511"/>
			<point x="209" y="660"/>
			<point x="305" y="660" type="curve" smooth="yes"/>
			<point x="402" y="660"/>
			<point x="455" y="511"/>
			<point x="455" y="349" type="curve" smooth="yes"/>
			<point x="455" y="187"/>
			<point x="402" y="38"/>
		</contour>
	</outline>
</glyph>
<glyph name="one" format="2">
	<advance width="471"/>
	<unicode hex="0031"/>
	<outline>
		<contour>
			<point x="75" y="-4" type="line"/>
			<point x="135" y="0"/>
			<point x="195" y="3"/>
			<point x="255" y="3" type="curve" smooth="yes"/>
			<point x="313" y="3"/>
			<point x="377" y="0"/>
			<point x="435" y="-4" type="curve"/>
			<point x="435" y="24" type="line"/>
			<point x="391" y="35"/>
			<point x="347" y="49"/>
			<point x="305" y="66" type="curve"/>
			<point x="305" y="690" type="line"/>
			<point x="277" y="698" type="line"/>
			<point x="237" y="670"/>
			<point x="217" y="652"/>
			<point x="175" y="626" type="curve" smooth="yes"/>
			<point x="131" y="599"/>
			<point x="104" y="581"/>
			<point x="57" y="558" type="curve"/>
			<point x="69" y="527" type="line"/>
			<point x="196" y="569" type="line"/>
			<point x="196" y="62" type="line"/>
			<point x="156" y="46"/>
			<point x="122" y="36"/>
			<point x="75" y="24" type="curve"/>
		</contour>
	</outline>
</glyph>
<glyph name="two" format="2">
	<advance width="606"/>
	<unicode hex="0032"/>
	<outline>
		<contour>
			<point x="50" y="-1" type="line"/>
			<point x="509" y="-1" type="line"/>
			<point x="565" y="184" type="line"/>
			<point x="540" y="195" type="line"/>
			<point x="511" y="134"/>
			<point x="471" y="84"/>
			<point x="411" y="84" type="curve" smooth="yes"/>
			<point x="161" y="84" type="line"/>
			<point x="427" y="367" type="line" smooth="yes"/>
			<point x="460" y="402"/>
			<point x="511" y="462"/>
			<point x="511" y="532" type="curve" smooth="yes"/>
			<point x="511" y="636"/>
			<point x="441" y="714"/>
			<point x="320" y="714" type="curve" smooth="yes"/>
			<point x="206" y="714"/>
			<point x="147" y="656"/>
			<point x="91" y="562" type="curve"/>
			<point x="118" y="545" type="line"/>
			<point x="165" y="604"/>
			<point x="209" y="654"/>
			<point x="282" y="654" type="curve" smooth="yes"/>
			<point x="358" y="654"/>
			<point x="404" y="597"/>
			<point x="404" y="531" type="curve" smooth="yes"/>
			<point x="404" y="485"/>
			<point x="376" y="433"/>
			<point x="344" y="394" type="curve" smooth="yes"/>
			<point x="41" y="31" type="line"/>
		</contour>
	</outline>
</glyph>
<glyph name="three" format="2">
	<advance width="557"/>
	<unicode hex="0033"/>
	<outline>
		<contour>
			<point x="211" y="-11" type="curve" smooth="yes"/>
			<point x="363" y="-11"/>
			<point x="501" y="107"/>
			<point x="501" y="240" type="curve" smooth="yes"/>
			<point x="501" y="333"/>
			<point x="409" y="415"/>
			<point x="313" y="415" type="curve"/>
			<point x="389" y="462"/>
			<point x="435" y="505"/>
			<point x="435" y="564" type="curve" smooth="yes"/>
			<point x="435" y="647"/>
			<point x="375" y="714"/>
			<point x="266" y="714" type="curve" smooth="yes"/>
			<point x="182" y="714"/>
			<point x="110" y="670"/>
			<point x="50" y="597" type="curve"/>
			<point x="72" y="578" type="line"/>
			<point x="120" y="618"/>
			<point x="168" y="654"/>
			<point x="218" y="654" type="curve" smooth="yes"/>
			<point x="290" y="654"/>
			<point x="326" y="608"/>
			<point x="326" y="563" type="curve" smooth="yes"/>
			<point x="326" y="525"/>
			<point x="321" y="465"/>
			<point x="235" y="418" type="curve" smooth="yes"/>
			<point x="118" y="354" type="line"/>
			<point x="130" y="325" type="line"/>
			<point x="157" y="338"/>
			<point x="194" y="355"/>
			<point x="248" y="355" type="curve" smooth="yes"/>
			<point x="341" y="355"/>
			<point x="395" y="294"/>
			<point x="395" y="199" type="curve" smooth="yes"/>
			<point x="395" y="115"/>
			<point x="354" y="43"/>
			<point x="273" y="43" type="curve" smooth="yes"/>
			<point x="230" y="43"/>
			<point x="188" y="62"/>
			<point x="163" y="95" type="curve" smooth="yes"/>
			<point x="124" y="147" type="line"/>
			<point x="85" y="147"/>
			<point x="53" y="119"/>
			<point x="53" y="85" type="curve" smooth="yes"/>
			<point x="53" y="35"/>
			<point x="98" y="-11"/>
		</contour>
	</outline>
</glyph>
<glyph name="four" format="2">
	<advance width="592"/>
	<unicode hex="0034"/>
	<outline>
		<contour>
			<point x="211" y="-4" type="line"/>
			<point x="271" y="0"/>
			<point x="341" y="3"/>
			<point x="401" y="3" type="curve" smooth="yes"/>
			<point x="459" y="3"/>
			<point x="513" y="0"/>
			<point x="571" y="-4" type="curve"/>
			<point x="571" y="24" type="line"/>
			<point x="527" y="35"/>
			<point x="493" y="46"/>
			<point x="451" y="63" type="curve"/>
			<point x="451" y="184" type="line"/>
			<point x="551" y="184" type="line"/>
			<point x="571" y="260" type="line"/>
			<point x="451" y="260" type="line"/>
			<point x="451" y="589" type="line" smooth="yes"/>
			<point x="451" y="648"/>
			<point x="455" y="677"/>
			<point x="460" y="707" type="curve"/>
			<point x="433" y="717" type="line"/>
			<point x="11" y="208" type="line"/>
			<point x="21" y="184" type="line"/>
			<point x="348" y="184" type="line"/>
			<point x="348" y="61" type="line"/>
			<point x="308" y="46"/>
			<point x="258" y="34"/>
			<point x="211" y="24" type="curve"/>
		</contour>
		<contour>
			<point x="85" y="226" type="line"/>
			<point x="373" y="576" type="line"/>
			<point x="348" y="585" type="line"/>
			<point x="348" y="260" type="line"/>
			<point x="82" y="260" type="line"/>
		</contour>
	</outline>
</glyph>
<glyph name="five" format="2">
	<advance width="572"/>
	<unicode hex="0035"/>
	<outline>
		<contour>
			<point x="216" y="-11" type="curve" smooth="yes"/>
			<point x="378" y="-11"/>
			<point x="516" y="103"/>
			<point x="516" y="240" type="curve" smooth="yes"/>
			<point x="516" y="333"/>
			<point x="424" y="424"/>
			<point x="311" y="424" type="curve" smooth="yes"/>
			<point x="245" y="424"/>
			<point x="202" y="416"/>
			<point x="161" y="396" type="curve"/>
			<point x="203" y="609" type="line"/>
			<point x="475" y="609" type="line"/>
			<point x="497" y="700" type="line"/>
			<point x="166" y="700" type="line" smooth="yes"/>
			<point x="95" y="351" type="line"/>
			<point x="115" y="330" type="line"/>
			<point x="139" y="341" type="line" smooth="yes"/>
			<point x="176" y="358"/>
			<point x="214" y="367"/>
			<point x="263" y="367" type="curve" smooth="yes"/>
			<point x="356" y="367"/>
			<point x="410" y="294"/>
			<point x="410" y="199" type="curve" smooth="yes"/>
			<point x="410" y="111"/>
			<point x="369" y="43"/>
			<point x="278" y="43" type="curve" smooth="yes"/>
			<point x="235" y="43"/>
			<point x="193" y="63"/>
			<point x="168" y="96" type="curve" smooth="yes"/>
			<point x="129" y="148" type="line"/>
			<point x="90" y="148"/>
			<point x="58" y="120"/>
			<point x="58" y="86" type="curve" smooth="yes"/>
			<point x="58" y="36"/>
			<point x="103" y="-11"/>
		</contour>
	</outline>
</glyph>
<glyph name="seven" format="2">
	<advance width="547"/>
	<unicode hex="0037"/>
	<outline>
		<contour>
			<point x="174" y="-10" type="line"/>
			<point x="511" y="681" type="line"/>
			<point x="498" y="700" type="line"/>
			<point x="77" y="700" type="line"/>
			<point x="21" y="515" type="line"/>
			<point x="46" y="504" type="line"/>
			<point x="75" y="565"/>
			<point x="115" y="609"/>
			<point x="175" y="609" type="curve" smooth="yes"/>
			<point x="412" y="609" type="line"/>
			<point x="82" y="28" type="line"/>
		</contour>
	</outline>
</glyph>
<glyph name="eight" format="2">
	<advance width="554"/>
	<unicode hex="0038"/>
	<outline>
		<contour>
			<point x="263" y="-7" type="curve" smooth="yes"/>
			<point x="404" y="-7"/>
			<point x="498" y="87"/>
			<point x="498" y="188" type="curve" smooth="yes"/>
			<point x="498" y="257"/>
			<point x="467" y="291"/>
			<point x="386" y="342" type="curve" smooth="yes"/>
			<point x="244" y="431" type="line" smooth="yes"/>
			<point x="189" y="465"/>
			<point x="147" y="500"/>
			<point x="147" y="564" type="curve" smooth="yes"/>
			<point x="147" y="609"/>
			<point x="188" y="661"/>
			<point x="255" y="661" type="curve" smooth="yes"/>
			<point x="333" y="661"/>
			<point x="379" y="616"/>
			<point x="379" y="557" type="curve" smooth="yes"/>
			<point x="379" y="481"/>
			<point x="324" y="422"/>
			<point x="284" y="384" type="curve"/>
			<point x="303" y="363" type="line"/>
			<point x="352" y="390"/>
			<point x="465" y="454"/>
			<point x="465" y="557" type="curve" smooth="yes"/>
			<point x="465" y="635"/>
			<point x="395" y="706"/>
			<point x="273" y="706" type="curve" smooth="yes"/>
			<point x="149" y="706"/>
			<point x="62" y="618"/>
			<point x="62" y="525" type="curve" smooth="yes"/>
			<point x="62" y="454"/>
			<point x="107" y="411"/>
			<point x="167" y="374" type="curve" smooth="yes"/>
			<point x="340" y="266" type="line" smooth="yes"/>
			<point x="397" y="231"/>
			<point x="417" y="196"/>
			<point x="417" y="149" type="curve" smooth="yes"/>
			<point x="417" y="78"/>
			<point x="352" y="40"/>
			<point x="287" y="40" type="curve" smooth="yes"/>
			<point x="198" y="40"/>
			<point x="155" y="98"/>
			<point x="155" y="171" type="curve" smooth="yes"/>
			<point x="155" y="244"/>
			<point x="203" y="291"/>
			<point x="253" y="335" type="curve"/>
			<point x="233" y="361" type="line"/>
			<point x="181" y="333"/>
			<point x="56" y="264"/>
			<point x="56" y="152" type="curve" smooth="yes"/>
			<point x="56" y="61"/>
			<point x="150" y="-7"/>
		</contour>
	</outline>
</glyph>
<glyph name="nine" format="2">
	<advance width="538"/>
	<unicode hex="0039"/>
	<outline>
		<contour>
			<point x="204" y="-9" type="line"/>
			<point x="365" y="115"/>
			<point x="482" y="261"/>
			<point x="482" y="459" type="curve" smooth="yes"/>
			<point x="482" y="604"/>
			<point x="401" y="705"/>
			<point x="272" y="705" type="curve" smooth="yes"/>
			<point x="126" y="705"/>
			<point x="36" y="603"/>
			<point x="36" y="473" type="curve" smooth="yes"/>
			<point x="36" y="382"/>
			<point x="113" y="278"/>
			<point x="219" y="278" type="curve" smooth="yes"/>
			<point x="278" y="278"/>
			<point x="330" y="308"/>
			<point x="385" y="355" type="curve" smooth="yes"/>
			<point x="404" y="371" type="line"/>
			<point x="391" y="408" type="line"/>
			<point x="379" y="394" type="line" smooth="yes"/>
			<point x="347" y="357"/>
			<point x="301" y="343"/>
			<point x="260" y="343" type="curve" smooth="yes"/>
			<point x="172" y="343"/>
			<point x="128" y="422"/>
			<point x="128" y="506" type="curve" smooth="yes"/>
			<point x="128" y="584"/>
			<point x="169" y="661"/>
			<point x="250" y="661" type="curve" smooth="yes"/>
			<point x="342" y="661"/>
			<point x="381" y="578"/>
			<point x="381" y="461" type="curve" smooth="yes"/>
			<point x="381" y="270"/>
			<point x="288" y="119"/>
			<point x="180" y="16" type="curve"/>
		</contour>
	</outline>
</glyph>
<glyph name="colon" format="2">
	<advance width="243"/>
	<unicode hex="003A"/>
	<outline>
		<contour>
			<point x="121" y="379" type="curve" smooth="yes"/>
			<point x="161" y="379"/>
			<point x="187" y="406"/>
			<point x="187" y="444" type="curve" smooth="yes"/>
			<point x="187" y="482"/>
			<point x="160" y="509"/>
			<point x="121" y="509" type="curve" smooth="yes"/>
			<point x="81" y="509"/>
			<point x="56" y="482"/>
			<point x="56" y="444" type="curve" smooth="yes"/>
			<point x="56" y="406"/>
			<point x="81" y="379"/>
		</contour>
		<contour>
			<point x="121" y="-9" type="curve" smooth="yes"/>
			<point x="161" y="-9"/>
			<point x="187" y="18"/>
			<point x="187" y="56" type="curve" smooth="yes"/>
			<point x="187" y="94"/>
			<point x="160" y="121"/>
			<point x="121" y="121" type="curve" smooth="yes"/>
			<point x="81" y="121"/>
			<point x="56" y="94"/>
			<point x="56" y="56" type="curve" smooth="yes"/>
			<point x="56" y="18"/>
			<point x="81" y="-9"/>
		</contour>
	</outline>
</glyph>
<glyph name="semicolon" format="2">
	<advance width="246"/>
	<unicode hex="003B"/>
	<guideline x="119"/>
	<outline>
		<contour>
			<point x="10" y="-179" type="line"/>
			<point x="130" y="-116"/>
			<point x="190" y="-56"/>
			<point x="190" y="35" type="curve" smooth="yes"/>
			<point x="190" y="86"/>
			<point x="164" y="118"/>
			<point x="119" y="118" type="curve" smooth="yes"/>
			<point x="77" y="118"/>
			<point x="53" y="93"/>
			<point x="53" y="58" type="curve" smooth="yes"/>
			<point x="53" y="-3"/>
			<point x="111" y="11"/>
			<point x="111" y="-26" type="curve" smooth="yes"/>
			<point x="111" y="-67"/>
			<point x="62" y="-111"/>
			<point x="0" y="-160" type="curve"/>
		</contour>
		<contour>
			<point x="119" y="379" type="curve" smooth="yes"/>
			<point x="159" y="379"/>
			<point x="185" y="406"/>
			<point x="185" y="444" type="curve" smooth="yes"/>
			<point x="185" y="482"/>
			<point x="158" y="509"/>
			<point x="119" y="509" type="curve" smooth="yes"/>
			<point x="79" y="509"/>
			<point x="54" y="482"/>
			<point x="54" y="444" type="curve" smooth="yes"/>
			<point x="54" y="406"/>
			<point x="79" y="379"/>
		</contour>
	</outline>
</glyph>
<glyph name="less" format="2">
	<advance width="507"/>
	<unicode hex="003C"/>
	<outline>
		<contour>
			<point x="417" y="185" type="line"/>
			<point x="433" y="239" type="line"/>
			<point x="98" y="348" type="line"/>
			<point x="70" y="292" type="line"/>
			<point x="87" y="289" type="line"/>
			<point x="437" y="389" type="line"/>
			<point x="421" y="444" type="line"/>
			<point x="70" y="342" type="line"/>
			<point x="70" y="292" type="line"/>
		</contour>
	</outline>
</glyph>
<glyph name="question" format="2">
	<advance width="414"/>
	<unicode hex="003F"/>
	<outline>
		<contour>
			<point x="102" y="178" type="line"/>
			<point x="117" y="178" type="line"/>
			<point x="124" y="219" type="line" smooth="yes"/>
			<point x="129" y="248"/>
			<point x="159" y="274"/>
			<point x="187" y="274" type="curve" smooth="yes"/>
			<point x="248" y="274" type="line" smooth="yes"/>
			<point x="331" y="274"/>
			<point x="358" y="352"/>
			<point x="358" y="459" type="curve" smooth="yes"/>
			<point x="358" y="531"/>
			<point x="341" y="581"/>
			<point x="288" y="601" type="curve" smooth="yes"/>
			<point x="166" y="648" type="line" smooth="yes"/>
			<point x="127" y="663"/>
			<point x="105" y="673"/>
			<point x="92" y="702" type="curve" smooth="yes"/>
			<point x="69" y="754" type="line"/>
			<point x="62" y="753" type="line"/>
			<point x="62" y="642" type="line" smooth="yes"/>
			<point x="62" y="603"/>
			<point x="88" y="568"/>
			<point x="125" y="554" type="curve" smooth="yes"/>
			<point x="213" y="521" type="line" smooth="yes"/>
			<point x="271" y="499"/>
			<point x="320" y="484"/>
			<point x="320" y="429" type="curve" smooth="yes"/>
			<point x="320" y="382"/>
			<point x="285" y="377"/>
			<point x="242" y="377" type="curve" smooth="yes"/>
			<point x="166" y="377" type="line" smooth="yes"/>
			<point x="116" y="377"/>
			<point x="85" y="333"/>
			<point x="91" y="280" type="curve" smooth="yes"/>
		</contour>
		<contour>
			<point x="121" y="-9" type="curve" smooth="yes"/>
			<point x="160" y="-9"/>
			<point x="187" y="18"/>
			<point x="187" y="56" type="curve" smooth="yes"/>
			<point x="187" y="94"/>
			<point x="159" y="121"/>
			<point x="121" y="121" type="curve" smooth="yes"/>
			<point x="82" y="121"/>
			<point x="56" y="94"/>
			<point x="56" y="56" type="curve" smooth="yes"/>
			<point x="56" y="18"/>
			<point x="82" y="-9"/>
		</contour>
	</outline>
</glyph>
<glyph name="at" format="2">
	<advance width="886"/>
	<unicode hex="0040"/>
	<outline>
		<contour>
			<point x="387" y="-75" type="curve" smooth="yes"/>
			<point x="504" y="-75"/>
			<point x="579" y="-32"/>
			<point x="635" y="9" type="curve"/>
			<point x="609" y="48" type="line"/>
			<point x="565" y="16"/>
			<point x="495" y="-21"/>
			<point x="400" y="-21" type="curve" smooth="yes"/>
			<point x="198" y="-21"/>
			<point x="110" y="144"/>
			<point x="110" y="275" type="curve" smooth="yes"/>
			<point x="110" y="448"/>
			<point x="263" y="648"/>
			<point x="481" y="648" type="curve" smooth="yes"/>
			<point x="658" y="648"/>
			<point x="767" y="515"/>
			<point x="767" y="357" type="curve" smooth="yes"/>
			<point x="767" y="224"/>
			<point x="690" y="171"/>
			<point x="645" y="171" type="curve" smooth="yes"/>
			<point x="601" y="171"/>
			<point x="580" y="220"/>
			<point x="604" y="301" type="curve" smooth="yes"/>
			<point x="657" y="480" type="line"/>
			<point x="586" y="480" type="line"/>
			<point x="562" y="493"/>
			<point x="526" y="505"/>
			<point x="487" y="505" type="curve" smooth="yes"/>
			<point x="369" y="505"/>
			<point x="256" y="398"/>
			<point x="243" y="293" type="curve" smooth="yes"/>
			<point x="232" y="202"/>
			<point x="296" y="118"/>
			<point x="378" y="118" type="curve" smooth="yes"/>
			<point x="431" y="118"/>
			<point x="486" y="154"/>
			<point x="518" y="191" type="curve"/>
			<point x="533" y="146"/>
			<point x="566" y="113"/>
			<point x="615" y="113" type="curve" smooth="yes"/>
			<point x="694" y="113"/>
			<point x="845" y="196"/>
			<point x="845" y="377" type="curve" smooth="yes"/>
			<point x="845" y="546"/>
			<point x="712" y="707"/>
			<point x="508" y="707" type="curve" smooth="yes"/>
			<point x="282" y="707"/>
			<point x="41" y="509"/>
			<point x="41" y="254" type="curve" smooth="yes"/>
			<point x="41" y="62"/>
			<point x="178" y="-75"/>
		</contour>
		<contour>
			<point x="408" y="173" type="curve" smooth="yes"/>
			<point x="351" y="173"/>
			<point x="316" y="243"/>
			<point x="327" y="324" type="curve" smooth="yes"/>
			<point x="340" y="416"/>
			<point x="405" y="467"/>
			<point x="469" y="467" type="curve" smooth="yes"/>
			<point x="519" y="467"/>
			<point x="544" y="439"/>
			<point x="556" y="422" type="curve"/>
			<point x="504" y="236" type="line"/>
			<point x="478" y="203"/>
			<point x="445" y="173"/>
		</contour>
	</outline>
</glyph>
<glyph name="A" format="2">
	<advance width="794"/>
	<unicode hex="0041"/>
	<outline>
		<contour>
			<point x="6" y="0" type="line"/>
			<point x="53" y="0"/>
			<point x="93" y="7"/>
			<point x="140" y="7" type="curve" smooth="yes"/>
			<point x="195" y="7"/>
			<point x="246" y="0"/>
			<point x="301" y="0" type="curve" smooth="yes"/>
			<point x="306" y="0" type="line"/>
			<point x="306" y="28" type="line"/>
			<point x="259" y="39"/>
			<point x="223" y="50"/>
			<point x="177" y="63" type="curve"/>
			<point x="267" y="282" type="line"/>
			<point x="496" y="282" type="line"/>
			<point x="581" y="55" type="line"/>
			<point x="547" y="42"/>
			<point x="507" y="35"/>
			<point x="475" y="28" type="curve"/>
			<point x="475" y="0" type="line"/>
			<point x="532" y="0"/>
			<point x="588" y="7"/>
			<point x="645" y="7" type="curve" smooth="yes"/>
			<point x="700" y="7"/>
			<point x="755" y="0"/>
			<point x="810" y="0" type="curve" smooth="yes"/>
			<point x="815" y="0" type="line"/>
			<point x="815" y="28" type="line"/>
			<point x="776" y="38"/>
			<point x="736" y="44"/>
			<point x="699" y="59" type="curve"/>
			<point x="437" y="724" type="line"/>
			<point x="348" y="676" type="line"/>
			<point x="361" y="641" type="line"/>
			<point x="101" y="67" type="line"/>
			<point x="89" y="61"/>
			<point x="6" y="27"/>
			<point x="6" y="27" type="curve"/>
		</contour>
		<contour>
			<point x="293" y="345" type="line"/>
			<point x="387" y="572" type="line"/>
			<point x="472" y="345" type="line"/>
		</contour>
	</outline>
</glyph>
<glyph name="B" format="2">
	<advance width="689"/>
	<unicode hex="0042"/>
	<outline>
		<contour>
			<point x="36" y="0" type="line"/>
			<point x="358" y="0" type="line" smooth="yes"/>
			<point x="542" y="0"/>
			<point x="665" y="71"/>
			<point x="665" y="222" type="curve" smooth="yes"/>
			<point x="665" y="308"/>
			<point x="572" y="377"/>
			<point x="504" y="387" type="curve"/>
			<point x="560" y="419"/>
			<point x="600" y="474"/>
			<point x="600" y="540" type="curve" smooth="yes"/>
			<point x="600" y="669"/>
			<point x="466" y="701"/>
			<point x="362" y="701" type="curve" smooth="yes"/>
			<point x="45" y="701" type="line"/>
			<point x="45" y="673" type="line"/>
			<point x="82" y="666"/>
			<point x="119" y="660"/>
			<point x="156" y="645" type="curve"/>
			<point x="156" y="73" type="line"/>
			<point x="117" y="50"/>
			<point x="82" y="39"/>
			<point x="36" y="28" type="curve"/>
		</contour>
		<contour>
			<point x="390" y="55" type="curve" smooth="yes"/>
			<point x="317" y="55"/>
			<point x="265" y="68"/>
			<point x="265" y="112" type="curve" smooth="yes"/>
			<point x="265" y="352" type="line"/>
			<point x="341" y="352" type="line" smooth="yes"/>
			<point x="447" y="352"/>
			<point x="557" y="306"/>
			<point x="557" y="196" type="curve" smooth="yes"/>
			<point x="557" y="111"/>
			<point x="489" y="55"/>
		</contour>
		<contour>
			<point x="265" y="410" type="line"/>
			<point x="265" y="643" type="line"/>
			<point x="315" y="643" type="line" smooth="yes"/>
			<point x="399" y="643"/>
			<point x="500" y="618"/>
			<point x="500" y="522" type="curve" smooth="yes"/>
			<point x="500" y="421"/>
			<point x="400" y="410"/>
			<point x="321" y="410" type="curve" smooth="yes"/>
		</contour>
	</outline>
</glyph>
<glyph name="C" format="2">
	<advance width="757"/>
	<unicode hex="0043"/>
	<outline>
		<contour>
			<point x="414" y="-10" type="curve" smooth="yes"/>
			<point x="494" y="-10"/>
			<point x="604" y="15"/>
			<point x="674" y="54" type="curve"/>
			<point x="675" y="55" type="line"/>
			<point x="721" y="257" type="line"/>
			<point x="691" y="263" type="line"/>
			<point x="689" y="260" type="line" smooth="yes"/>
			<point x="638" y="152"/>
			<point x="591" y="51"/>
			<point x="453" y="51" type="curve" smooth="yes"/>
			<point x="273" y="51"/>
			<point x="164" y="211"/>
			<point x="164" y="378" type="curve" smooth="yes"/>
			<point x="164" y="527"/>
			<point x="243" y="644"/>
			<point x="402" y="644" type="curve" smooth="yes"/>
			<point x="512" y="644"/>
			<point x="606" y="583"/>
			<point x="659" y="488" type="curve"/>
			<point x="660" y="487"/>
			<point x="660" y="485"/>
			<point x="660" y="484" type="curve"/>
			<point x="690" y="490" type="line"/>
			<point x="667" y="651" type="line"/>
			<point x="664" y="652" type="line" smooth="yes"/>
			<point x="590" y="685"/>
			<point x="513" y="707"/>
			<point x="431" y="707" type="curve" smooth="yes"/>
			<point x="219" y="707"/>
			<point x="36" y="545"/>
			<point x="36" y="328" type="curve" smooth="yes"/>
			<point x="36" y="121"/>
			<point x="220" y="-10"/>
		</contour>
	</outline>
</glyph>
<glyph name="D" format="2">
	<advance width="819"/>
	<unicode hex="0044"/>
	<outline>
		<contour>
			<point x="36" y="0" type="line"/>
			<point x="393" y="0" type="line" smooth="yes"/>
			<point x="612" y="0"/>
			<point x="778" y="136"/>
			<point x="778" y="361" type="curve" smooth="yes"/>
			<point x="778" y="598"/>
			<point x="597" y="701"/>
			<point x="380" y="701" type="curve" smooth="yes"/>
			<point x="45" y="701" type="line"/>
			<point x="45" y="673" type="line"/>
			<point x="85" y="665"/>
			<point x="119" y="658"/>
			<point x="156" y="645" type="curve"/>
			<point x="156" y="80" type="line"/>
			<point x="120" y="50"/>
			<point x="84" y="39"/>
			<point x="36" y="28" type="curve"/>
		</contour>
		<contour>
			<point x="419" y="51" type="curve" smooth="yes"/>
			<point x="326" y="51"/>
			<point x="265" y="84"/>
			<point x="265" y="157" type="curve" smooth="yes"/>
			<point x="265" y="643" type="line"/>
			<point x="312" y="643" type="line" smooth="yes"/>
			<point x="510" y="643"/>
			<point x="661" y="557"/>
			<point x="661" y="341" type="curve" smooth="yes"/>
			<point x="661" y="196"/>
			<point x="579" y="51"/>
		</contour>
	</outline>
</glyph>
<glyph name="E" format="2">
	<advance width="709"/>
	<unicode hex="0045"/>
	<outline>
		<contour>
			<point x="36" y="-4" type="line"/>
			<point x="137" y="-4"/>
			<point x="238" y="2"/>
			<point x="339" y="1" type="curve" smooth="yes"/>
			<point x="633" y="-2" type="line"/>
			<point x="676" y="202" type="line"/>
			<point x="646" y="209" type="line"/>
			<point x="644" y="205" type="line" smooth="yes"/>
			<point x="588" y="93"/>
			<point x="553" y="56"/>
			<point x="471" y="59" type="curve" smooth="yes"/>
			<point x="266" y="66" type="line"/>
			<point x="266" y="333" type="line"/>
			<point x="468" y="322" type="line"/>
			<point x="474" y="309"/>
			<point x="501" y="241"/>
			<point x="506" y="236" type="curve"/>
			<point x="534" y="236" type="line"/>
			<point x="530" y="277"/>
			<point x="527" y="318"/>
			<point x="527" y="359" type="curve" smooth="yes"/>
			<point x="527" y="398"/>
			<point x="530" y="443"/>
			<point x="534" y="482" type="curve"/>
			<point x="504" y="482" type="line"/>
			<point x="493" y="452"/>
			<point x="481" y="421"/>
			<point x="468" y="395" type="curve"/>
			<point x="266" y="383" type="line"/>
			<point x="266" y="640" type="line"/>
			<point x="457" y="640" type="line" smooth="yes"/>
			<point x="543" y="640"/>
			<point x="580" y="599"/>
			<point x="614" y="514" type="curve" smooth="yes"/>
			<point x="616" y="509" type="line"/>
			<point x="645" y="516" type="line"/>
			<point x="627" y="701" type="line"/>
			<point x="521" y="701"/>
			<point x="415" y="698"/>
			<point x="309" y="698" type="curve" smooth="yes"/>
			<point x="228" y="698" type="line" smooth="yes"/>
			<point x="161" y="698"/>
			<point x="106" y="705"/>
			<point x="51" y="705" type="curve" smooth="yes"/>
			<point x="46" y="705" type="line"/>
			<point x="46" y="677" type="line"/>
			<point x="86" y="668"/>
			<point x="122" y="661"/>
			<point x="157" y="648" type="curve"/>
			<point x="157" y="62" type="line"/>
			<point x="117" y="45"/>
			<point x="79" y="34"/>
			<point x="36" y="24" type="curve"/>
		</contour>
	</outline>
</glyph>
<glyph name="F" format="2">
	<advance width="634"/>
	<unicode hex="0046"/>
	<outline>
		<contour>
			<point x="36" y="-4" type="line"/>
			<point x="96" y="-4"/>
			<point x="156" y="3"/>
			<point x="216" y="3" type="curve" smooth="yes"/>
			<point x="274" y="3"/>
			<point x="333" y="-4"/>
			<point x="391" y="-4" type="curve" smooth="yes"/>
			<point x="396" y="-4" type="line"/>
			<point x="396" y="24" type="line"/>
			<point x="352" y="35"/>
			<point x="308" y="49"/>
			<point x="266" y="66" type="curve"/>
			<point x="266" y="331" type="line"/>
			<point x="468" y="320" type="line"/>
			<point x="478" y="297"/>
			<point x="494" y="265"/>
			<point x="506" y="234" type="curve"/>
			<point x="534" y="234" type="line"/>
			<point x="531" y="275"/>
			<point x="527" y="316"/>
			<point x="527" y="357" type="curve" smooth="yes"/>
			<point x="527" y="396"/>
			<point x="531" y="436"/>
			<point x="534" y="480" type="curve"/>
			<point x="504" y="480" type="line"/>
			<point x="495" y="450"/>
			<point x="481" y="420"/>
			<point x="468" y="393" type="curve"/>
			<point x="266" y="381" type="line"/>
			<point x="266" y="640" type="line"/>
			<point x="466" y="640" type="line" smooth="yes"/>
			<point x="552" y="640"/>
			<point x="580" y="599"/>
			<point x="614" y="514" type="curve" smooth="yes"/>
			<point x="616" y="509" type="line"/>
			<point x="645" y="516" type="line"/>
			<point x="627" y="701" type="line"/>
			<point x="521" y="701"/>
			<point x="415" y="698"/>
			<point x="309" y="698" type="curve" smooth="yes"/>
			<point x="216" y="698" type="line" smooth="yes"/>
			<point x="161" y="698"/>
			<point x="106" y="705"/>
			<point x="51" y="705" type="curve" smooth="yes"/>
			<point x="46" y="705" type="line"/>
			<point x="46" y="677" type="line"/>
			<point x="89" y="667"/>
			<point x="124" y="660"/>
			<point x="157" y="648" type="curve"/>
			<point x="157" y="62" type="line"/>
			<point x="118" y="44"/>
			<point x="79" y="37"/>
			<point x="36" y="24" type="curve"/>
		</contour>
	</outline>
</glyph>
<glyph name="G" format="2">
	<advance width="814"/>
	<unicode hex="0047"/>
	<outline>
		<contour>
			<point x="419" y="-10" type="curve" smooth="yes"/>
			<point x="529" y="-10"/>
			<point x="641" y="29"/>
			<point x="734" y="86" type="curve" smooth="yes"/>
			<point x="736" y="87" type="line"/>
			<point x="736" y="107" type="line"/>
			<point x="678" y="119" type="line"/>
			<point x="678" y="291" type="line"/>
			<point x="710" y="305"/>
			<point x="732" y="311"/>
			<point x="778" y="324" type="curve"/>
			<point x="778" y="351" type="line"/>
			<point x="732" y="347"/>
			<point x="674" y="344"/>
			<point x="627" y="344" type="curve" smooth="yes"/>
			<point x="566" y="344"/>
			<point x="514" y="347"/>
			<point x="448" y="351" type="curve"/>
			<point x="448" y="324" type="line"/>
			<point x="487" y="317"/>
			<point x="569" y="295"/>
			<point x="570" y="295" type="curve"/>
			<point x="570" y="85" type="line"/>
			<point x="538" y="60"/>
			<point x="499" y="51"/>
			<point x="459" y="51" type="curve" smooth="yes"/>
			<point x="276" y="51"/>
			<point x="164" y="206"/>
			<point x="164" y="378" type="curve" smooth="yes"/>
			<point x="164" y="524"/>
			<point x="240" y="644"/>
			<point x="397" y="644" type="curve" smooth="yes"/>
			<point x="508" y="644"/>
			<point x="604" y="584"/>
			<point x="659" y="489" type="curve" smooth="yes"/>
			<point x="660" y="486" type="line"/>
			<point x="690" y="493" type="line"/>
			<point x="667" y="651" type="line"/>
			<point x="664" y="652" type="line" smooth="yes"/>
			<point x="590" y="685"/>
			<point x="513" y="707"/>
			<point x="431" y="707" type="curve" smooth="yes"/>
			<point x="219" y="707"/>
			<point x="36" y="545"/>
			<point x="36" y="328" type="curve" smooth="yes"/>
			<point x="36" y="117"/>
			<point x="222" y="-10"/>
		</contour>
	</outline>
</glyph>
<glyph name="H" format="2">
	<advance width="877"/>
	<unicode hex="0048"/>
	<outline>
		<contour>
			<point x="36" y="-4" type="line"/>
			<point x="96" y="0"/>
			<point x="156" y="3"/>
			<point x="216" y="3" type="curve" smooth="yes"/>
			<point x="274" y="3"/>
			<point x="338" y="0"/>
			<point x="396" y="-4" type="curve"/>
			<point x="396" y="24" type="line"/>
			<point x="352" y="35"/>
			<point x="308" y="49"/>
			<point x="266" y="66" type="curve"/>
			<point x="266" y="337" type="line"/>
			<point x="602" y="337" type="line"/>
			<point x="602" y="62" type="line"/>
			<point x="562" y="44"/>
			<point x="524" y="35"/>
			<point x="481" y="24" type="curve"/>
			<point x="481" y="-4" type="line"/>
			<point x="541" y="0"/>
			<point x="601" y="3"/>
			<point x="661" y="3" type="curve" smooth="yes"/>
			<point x="719" y="3"/>
			<point x="783" y="0"/>
			<point x="841" y="-4" type="curve"/>
			<point x="841" y="24" type="line"/>
			<point x="797" y="35"/>
			<point x="753" y="49"/>
			<point x="711" y="66" type="curve"/>
			<point x="711" y="644" type="line"/>
			<point x="749" y="658"/>
			<point x="791" y="668"/>
			<point x="831" y="677" type="curve"/>
			<point x="831" y="705" type="line"/>
			<point x="774" y="702"/>
			<point x="718" y="698"/>
			<point x="661" y="698" type="curve" smooth="yes"/>
			<point x="606" y="698"/>
			<point x="546" y="702"/>
			<point x="491" y="705" type="curve"/>
			<point x="491" y="677" type="line"/>
			<point x="528" y="668"/>
			<point x="566" y="660"/>
			<point x="602" y="648" type="curve"/>
			<point x="602" y="395" type="line"/>
			<point x="266" y="395" type="line"/>
			<point x="266" y="644" type="line"/>
			<point x="304" y="658"/>
			<point x="346" y="668"/>
			<point x="386" y="677" type="curve"/>
			<point x="386" y="705" type="line"/>
			<point x="329" y="702"/>
			<point x="273" y="698"/>
			<point x="216" y="698" type="curve" smooth="yes"/>
			<point x="161" y="698"/>
			<point x="101" y="702"/>
			<point x="46" y="705" type="curve"/>
			<point x="46" y="677" type="line"/>
			<point x="86" y="668"/>
			<point x="123" y="659"/>
			<point x="157" y="648" type="curve"/>
			<point x="157" y="62" type="line"/>
			<point x="117" y="46"/>
			<point x="83" y="36"/>
			<point x="36" y="24" type="curve"/>
		</contour>
	</outline>
</glyph>
<glyph name="I" format="2">
	<advance width="432"/>
	<unicode hex="0049"/>
	<outline>
		<contour>
			<point x="36" y="-4" type="line"/>
			<point x="96" y="0"/>
			<point x="156" y="3"/>
			<point x="216" y="3" type="curve" smooth="yes"/>
			<point x="274" y="3"/>
			<point x="338" y="0"/>
			<point x="396" y="-4" type="curve"/>
			<point x="396" y="24" type="line"/>
			<point x="352" y="35"/>
			<point x="308" y="49"/>
			<point x="266" y="66" type="curve"/>
			<point x="266" y="644" type="line"/>
			<point x="304" y="658"/>
			<point x="346" y="668"/>
			<point x="386" y="677" type="curve"/>
			<point x="386" y="705" type="line"/>
			<point x="329" y="702"/>
			<point x="273" y="698"/>
			<point x="216" y="698" type="curve" smooth="yes"/>
			<point x="161" y="698"/>
			<point x="101" y="702"/>
			<point x="46" y="705" type="curve"/>
			<point x="46" y="677" type="line"/>
			<point x="86" y="668"/>
			<point x="123" y="659"/>
			<point x="157" y="648" type="curve"/>
			<point x="157" y="62" type="line"/>
			<point x="117" y="46"/>
			<point x="83" y="36"/>
			<point x="36" y="24" type="curve"/>
		</contour>
	</outline>
</glyph>
<glyph name="J" format="2">
	<advance width="411"/>
	<unicode hex="004A"/>
	<outline>
		<contour>
			<point x="51" y="-250" type="line"/>
			<point x="118" y="-202"/>
			<point x="260" y="-73"/>
			<point x="260" y="13" type="curve" smooth="yes"/>
			<point x="260" y="645" type="line"/>
			<point x="301" y="659"/>
			<point x="340" y="668"/>
			<point x="380" y="677" type="curve"/>
			<point x="380" y="705" type="line"/>
			<point x="323" y="702"/>
			<point x="267" y="698"/>
			<point x="210" y="698" type="curve" smooth="yes"/>
			<point x="155" y="698"/>
			<point x="95" y="702"/>
			<point x="40" y="705" type="curve"/>
			<point x="40" y="677" type="line"/>
			<point x="74" y="669"/>
			<point x="118" y="659"/>
			<point x="151" y="648" type="curve"/>
			<point x="151" y="50" type="line" smooth="yes"/>
			<point x="151" y="-75"/>
			<point x="99" y="-131"/>
			<point x="36" y="-230" type="curve"/>
		</contour>
	</outline>
</glyph>
<glyph name="K" format="2">
	<advance width="759"/>
	<unicode hex="004B"/>
	<outline>
		<contour>
			<point x="636" y="0" type="curve" smooth="yes"/>
			<point x="778" y="0" type="line"/>
			<point x="778" y="28" type="line"/>
			<point x="778" y="28"/>
			<point x="681" y="45"/>
			<point x="612" y="123" type="curve" smooth="yes"/>
			<point x="386" y="376" type="line"/>
			<point x="629" y="646" type="line"/>
			<point x="662" y="658"/>
			<point x="697" y="668"/>
			<point x="729" y="677" type="curve"/>
			<point x="729" y="705" type="line"/>
			<point x="684" y="701"/>
			<point x="638" y="698"/>
			<point x="593" y="698" type="curve" smooth="yes"/>
			<point x="541" y="698"/>
			<point x="485" y="701"/>
			<point x="433" y="705" type="curve"/>
			<point x="433" y="677" type="line"/>
			<point x="469" y="670"/>
			<point x="499" y="663"/>
			<point x="531" y="651" type="curve"/>
			<point x="287" y="325" type="line"/>
			<point x="508" y="77" type="line" smooth="yes"/>
			<point x="535" y="47"/>
			<point x="573" y="0"/>
		</contour>
		<contour>
			<point x="36" y="-4" type="line"/>
			<point x="96" y="-1"/>
			<point x="156" y="3"/>
			<point x="216" y="3" type="curve" smooth="yes"/>
			<point x="274" y="3"/>
			<point x="338" y="-1"/>
			<point x="396" y="-4" type="curve"/>
			<point x="396" y="24" type="line"/>
			<point x="352" y="35"/>
			<point x="308" y="47"/>
			<point x="266" y="64" type="curve"/>
			<point x="266" y="646" type="line"/>
			<point x="298" y="659"/>
			<point x="332" y="669"/>
			<point x="366" y="677" type="curve"/>
			<point x="366" y="705" type="line"/>
			<point x="316" y="701"/>
			<point x="266" y="698"/>
			<point x="216" y="698" type="curve" smooth="yes"/>
			<point x="161" y="698"/>
			<point x="101" y="701"/>
			<point x="46" y="705" type="curve"/>
			<point x="46" y="677" type="line"/>
			<point x="81" y="670"/>
			<point x="121" y="659"/>
			<point x="157" y="646" type="curve"/>
			<point x="157" y="64" type="line"/>
			<point x="117" y="46"/>
			<point x="79" y="36"/>
			<point x="36" y="24" type="curve"/>
		</contour>
	</outline>
</glyph>
<glyph name="L" format="2">
	<advance width="679"/>
	<unicode hex="004C"/>
	<outline>
		<contour>
			<point x="36" y="-4" type="line"/>
			<point x="128" y="-4"/>
			<point x="220" y="1"/>
			<point x="311" y="1" type="curve" smooth="yes"/>
			<point x="413" y="1"/>
			<point x="514" y="-1"/>
			<point x="615" y="-2" type="curve"/>
			<point x="658" y="202" type="line"/>
			<point x="628" y="209" type="line"/>
			<point x="626" y="205" type="line" smooth="yes"/>
			<point x="591" y="124"/>
			<point x="566" y="56"/>
			<point x="463" y="59" type="curve" smooth="yes"/>
			<point x="266" y="64" type="line"/>
			<point x="266" y="644" type="line"/>
			<point x="307" y="659"/>
			<point x="346" y="669"/>
			<point x="386" y="677" type="curve"/>
			<point x="386" y="705" type="line"/>
			<point x="329" y="700"/>
			<point x="273" y="698"/>
			<point x="216" y="698" type="curve" smooth="yes"/>
			<point x="161" y="698"/>
			<point x="101" y="700"/>
			<point x="46" y="705" type="curve"/>
			<point x="46" y="677" type="line"/>
			<point x="81" y="669"/>
			<point x="121" y="659"/>
			<point x="157" y="648" type="curve"/>
			<point x="157" y="62" type="line"/>
			<point x="117" y="44"/>
			<point x="80" y="34"/>
			<point x="36" y="24" type="curve"/>
		</contour>
	</outline>
</glyph>
<glyph name="M" format="2">
	<advance width="978"/>
	<unicode hex="004D"/>
	<outline>
		<contour>
			<point x="1" y="-4" type="line"/>
			<point x="51" y="0"/>
			<point x="101" y="3"/>
			<point x="151" y="3" type="curve" smooth="yes"/>
			<point x="206" y="3"/>
			<point x="266" y="0"/>
			<point x="321" y="-4" type="curve"/>
			<point x="321" y="24" type="line"/>
			<point x="275" y="35"/>
			<point x="231" y="51"/>
			<point x="187" y="69" type="curve"/>
			<point x="209" y="509" type="line"/>
			<point x="448" y="0" type="line"/>
			<point x="476" y="0" type="line"/>
			<point x="707" y="532" type="line"/>
			<point x="736" y="61" type="line"/>
			<point x="696" y="46"/>
			<point x="663" y="35"/>
			<point x="617" y="24" type="curve"/>
			<point x="617" y="-4" type="line"/>
			<point x="677" y="0"/>
			<point x="737" y="3"/>
			<point x="797" y="3" type="curve" smooth="yes"/>
			<point x="855" y="3"/>
			<point x="919" y="0"/>
			<point x="977" y="-4" type="curve"/>
			<point x="977" y="24" type="line"/>
			<point x="930" y="36"/>
			<point x="880" y="52"/>
			<point x="844" y="67" type="curve"/>
			<point x="809" y="645" type="line"/>
			<point x="844" y="659"/>
			<point x="880" y="669"/>
			<point x="917" y="677" type="curve"/>
			<point x="917" y="705" type="line"/>
			<point x="843" y="701"/>
			<point x="772" y="700"/>
			<point x="700" y="701" type="curve"/>
			<point x="491" y="163" type="line"/>
			<point x="237" y="701" type="line"/>
			<point x="68" y="701" type="line"/>
			<point x="68" y="673" type="line"/>
			<point x="104" y="663"/>
			<point x="141" y="657"/>
			<point x="176" y="643" type="curve"/>
			<point x="107" y="69" type="line"/>
			<point x="82" y="54"/>
			<point x="42" y="38"/>
			<point x="1" y="24" type="curve"/>
		</contour>
	</outline>
</glyph>
<glyph name="N" format="2">
	<advance width="824"/>
	<unicode hex="004E"/>
	<guideline x="39"/>
	<outline>
		<contour>
			<point x="36" y="-4" type="line"/>
			<point x="86" y="0"/>
			<point x="136" y="3"/>
			<point x="186" y="3" type="curve" smooth="yes"/>
			<point x="254" y="3"/>
			<point x="328" y="-1"/>
			<point x="396" y="-4" type="curve"/>
			<point x="396" y="25" type="line"/>
			<point x="333" y="37"/>
			<point x="277" y="51"/>
			<point x="218" y="72" type="curve"/>
			<point x="203" y="535" type="line"/>
			<point x="692" y="0" type="line"/>
			<point x="731" y="0" type="line"/>
			<point x="741" y="634" type="line"/>
			<point x="773" y="651"/>
			<point x="808" y="665"/>
			<point x="843" y="677" type="curve"/>
			<point x="843" y="705" type="line"/>
			<point x="793" y="701"/>
			<point x="743" y="698"/>
			<point x="693" y="698" type="curve" smooth="yes"/>
			<point x="625" y="698"/>
			<point x="551" y="701"/>
			<point x="483" y="705" type="curve"/>
			<point x="483" y="677" type="line"/>
			<point x="548" y="665"/>
			<point x="603" y="652"/>
			<point x="660" y="629" type="curve"/>
			<point x="679" y="178" type="line"/>
			<point x="202" y="701" type="line"/>
			<point x="36" y="701" type="line"/>
			<point x="36" y="673" type="line"/>
			<point x="76" y="668"/>
			<point x="113" y="660"/>
			<point x="146" y="645" type="curve"/>
			<point x="138" y="67" type="line"/>
			<point x="107" y="48"/>
			<point x="78" y="36"/>
			<point x="36" y="24" type="curve"/>
		</contour>
	</outline>
</glyph>
<glyph name="O" format="2">
	<advance width="827"/>
	<unicode hex="004F"/>
	<outline>
		<contour>
			<point x="415" y="-9" type="curve" smooth="yes"/>
			<point x="619" y="-9"/>
			<point x="791" y="148"/>
			<point x="791" y="350" type="curve" smooth="yes"/>
			<point x="791" y="552"/>
			<point x="617" y="707"/>
			<point x="415" y="707" type="curve" smooth="yes"/>
			<point x="211" y="707"/>
			<point x="36" y="553"/>
			<point x="36" y="350" type="curve" smooth="yes"/>
			<point x="36" y="147"/>
			<point x="209" y="-9"/>
		</contour>
		<contour>
			<point x="437" y="52" type="curve" smooth="yes"/>
			<point x="269" y="52"/>
			<point x="161" y="229"/>
			<point x="161" y="379" type="curve" smooth="yes"/>
			<point x="161" y="509"/>
			<point x="242" y="646"/>
			<point x="387" y="646" type="curve" smooth="yes"/>
			<point x="555" y="646"/>
			<point x="663" y="470"/>
			<point x="663" y="320" type="curve" smooth="yes"/>
			<point x="663" y="189"/>
			<point x="582" y="52"/>
		</contour>
	</outline>
</glyph>
<glyph name="P" format="2">
	<advance width="626"/>
	<unicode hex="0050"/>
	<outline>
		<contour>
			<point x="36" y="-4" type="line"/>
			<point x="100" y="1"/>
			<point x="156" y="3"/>
			<point x="216" y="3" type="curve" smooth="yes"/>
			<point x="274" y="3"/>
			<point x="335" y="1"/>
			<point x="396" y="-4" type="curve"/>
			<point x="396" y="24" type="line"/>
			<point x="352" y="35"/>
			<point x="308" y="49"/>
			<point x="266" y="66" type="curve"/>
			<point x="266" y="651" type="line"/>
			<point x="367" y="647"/>
			<point x="490" y="597"/>
			<point x="490" y="478" type="curve" smooth="yes"/>
			<point x="490" y="387"/>
			<point x="422" y="325"/>
			<point x="344" y="292" type="curve" smooth="yes"/>
			<point x="341" y="291" type="line"/>
			<point x="344" y="267" type="line"/>
			<point x="349" y="268" type="line" smooth="yes"/>
			<point x="469" y="289"/>
			<point x="590" y="357"/>
			<point x="590" y="495" type="curve" smooth="yes"/>
			<point x="590" y="629"/>
			<point x="458" y="701"/>
			<point x="338" y="701" type="curve" smooth="yes"/>
			<point x="46" y="701" type="line"/>
			<point x="46" y="673" type="line"/>
			<point x="89" y="666"/>
			<point x="120" y="664"/>
			<point x="157" y="649" type="curve"/>
			<point x="157" y="62" type="line"/>
			<point x="118" y="45"/>
			<point x="83" y="36"/>
			<point x="36" y="24" type="curve"/>
		</contour>
	</outline>
</glyph>
<glyph name="Q" format="2">
	<advance width="852"/>
	<unicode hex="0051"/>
	<outline>
		<contour>
			<point x="682" y="-152" type="curve" smooth="yes"/>
			<point x="755" y="-152"/>
			<point x="830" y="-140"/>
			<point x="896" y="-121" type="curve"/>
			<point x="892" y="-94" type="line"/>
			<point x="726" y="-100"/>
			<point x="641" y="-72"/>
			<point x="501" y="-3" type="curve"/>
			<point x="675" y="26"/>
			<point x="811" y="171"/>
			<point x="811" y="350" type="curve" smooth="yes"/>
			<point x="811" y="555"/>
			<point x="634" y="707"/>
			<point x="435" y="707" type="curve" smooth="yes"/>
			<point x="235" y="707"/>
			<point x="56" y="557"/>
			<point x="56" y="350" type="curve" smooth="yes"/>
			<point x="56" y="155"/>
			<point x="222" y="1"/>
			<point x="418" y="-8" type="curve"/>
			<point x="494" y="-105"/>
			<point x="546" y="-152"/>
		</contour>
		<contour>
			<point x="457" y="52" type="curve" smooth="yes"/>
			<point x="291" y="52"/>
			<point x="181" y="227"/>
			<point x="181" y="379" type="curve" smooth="yes"/>
			<point x="181" y="510"/>
			<point x="263" y="646"/>
			<point x="407" y="646" type="curve" smooth="yes"/>
			<point x="573" y="646"/>
			<point x="683" y="472"/>
			<point x="683" y="320" type="curve" smooth="yes"/>
			<point x="683" y="189"/>
			<point x="601" y="52"/>
		</contour>
	</outline>
</glyph>
<glyph name="R" format="2">
	<advance width="727"/>
	<unicode hex="0052"/>
	<outline>
		<contour>
			<point x="36" y="-4" type="line"/>
			<point x="96" y="0"/>
			<point x="156" y="3"/>
			<point x="216" y="3" type="curve" smooth="yes"/>
			<point x="274" y="3"/>
			<point x="338" y="0"/>
			<point x="396" y="-4" type="curve"/>
			<point x="396" y="24" type="line"/>
			<point x="352" y="35"/>
			<point x="308" y="49"/>
			<point x="266" y="66" type="curve"/>
			<point x="266" y="651" type="line"/>
			<point x="385" y="649"/>
			<point x="490" y="609"/>
			<point x="490" y="497" type="curve" smooth="yes"/>
			<point x="490" y="409"/>
			<point x="396" y="357"/>
			<point x="283" y="317" type="curve"/>
			<point x="482" y="74" type="line"/>
			<point x="509" y="40"/>
			<point x="549" y="0"/>
			<point x="596" y="0" type="curve" smooth="yes"/>
			<point x="741" y="0" type="line"/>
			<point x="741" y="28" type="line"/>
			<point x="739" y="30"/>
			<point x="645" y="47"/>
			<point x="588" y="117" type="curve" smooth="yes"/>
			<point x="417" y="327" type="line"/>
			<point x="500" y="356"/>
			<point x="590" y="417"/>
			<point x="590" y="515" type="curve" smooth="yes"/>
			<point x="590" y="650"/>
			<point x="453" y="701"/>
			<point x="338" y="701" type="curve" smooth="yes"/>
			<point x="46" y="701" type="line"/>
			<point x="46" y="673" type="line"/>
			<point x="87" y="666"/>
			<point x="120" y="660"/>
			<point x="157" y="645" type="curve"/>
			<point x="157" y="62" type="line"/>
			<point x="118" y="45"/>
			<point x="80" y="35"/>
			<point x="36" y="24" type="curve"/>
		</contour>
	</outline>
</glyph>
<glyph name="S" format="2">
	<advance width="568"/>
	<unicode hex="0053"/>
	<outline>
		<contour>
			<point x="273" y="-7" type="curve" smooth="yes"/>
			<point x="400" y="-7"/>
			<point x="527" y="64"/>
			<point x="527" y="205" type="curve" smooth="yes"/>
			<point x="527" y="283"/>
			<point x="470" y="333"/>
			<point x="401" y="371" type="curve" smooth="yes"/>
			<point x="279" y="438" type="line" smooth="yes"/>
			<point x="221" y="470"/>
			<point x="177" y="507"/>
			<point x="177" y="560" type="curve" smooth="yes"/>
			<point x="177" y="616"/>
			<point x="224" y="648"/>
			<point x="292" y="648" type="curve" smooth="yes"/>
			<point x="364" y="648"/>
			<point x="404" y="606"/>
			<point x="417" y="540" type="curve" smooth="yes"/>
			<point x="422" y="515" type="line"/>
			<point x="442" y="510" type="line"/>
			<point x="490" y="652" type="line"/>
			<point x="437" y="687"/>
			<point x="376" y="709"/>
			<point x="312" y="709" type="curve" smooth="yes"/>
			<point x="202" y="709"/>
			<point x="80" y="635"/>
			<point x="80" y="522" type="curve" smooth="yes"/>
			<point x="80" y="444"/>
			<point x="129" y="394"/>
			<point x="193" y="359" type="curve" smooth="yes"/>
			<point x="341" y="279" type="line" smooth="yes"/>
			<point x="391" y="252"/>
			<point x="426" y="216"/>
			<point x="426" y="166" type="curve" smooth="yes"/>
			<point x="426" y="90"/>
			<point x="371" y="54"/>
			<point x="300" y="54" type="curve" smooth="yes"/>
			<point x="215" y="54"/>
			<point x="135" y="123"/>
			<point x="129" y="225" type="curve" smooth="yes"/>
			<point x="127" y="259" type="line"/>
			<point x="107" y="267" type="line"/>
			<point x="36" y="107" type="line"/>
			<point x="38" y="105" type="line" smooth="yes"/>
			<point x="101" y="29"/>
			<point x="173" y="-7"/>
		</contour>
	</outline>
</glyph>
<glyph name="T" format="2">
	<advance width="657"/>
	<unicode hex="0054"/>
	<outline>
		<contour>
			<point x="151" y="-4" type="line"/>
			<point x="211" y="1"/>
			<point x="271" y="3"/>
			<point x="331" y="3" type="curve" smooth="yes"/>
			<point x="389" y="3"/>
			<point x="452" y="1"/>
			<point x="510" y="-4" type="curve"/>
			<point x="510" y="24" type="line"/>
			<point x="466" y="35"/>
			<point x="422" y="48"/>
			<point x="380" y="64" type="curve"/>
			<point x="380" y="640" type="line"/>
			<point x="505" y="640" type="line" smooth="yes"/>
			<point x="611" y="640"/>
			<point x="608" y="599"/>
			<point x="642" y="514" type="curve" smooth="yes"/>
			<point x="644" y="509" type="line"/>
			<point x="673" y="516" type="line"/>
			<point x="655" y="701" type="line"/>
			<point x="549" y="701"/>
			<point x="435" y="698"/>
			<point x="329" y="698" type="curve" smooth="yes"/>
			<point x="223" y="698"/>
			<point x="108" y="701"/>
			<point x="2" y="701" type="curve"/>
			<point x="-16" y="516" type="line"/>
			<point x="13" y="509" type="line"/>
			<point x="15" y="514" type="line" smooth="yes"/>
			<point x="49" y="599"/>
			<point x="46" y="640"/>
			<point x="152" y="640" type="curve" smooth="yes"/>
			<point x="272" y="640" type="line"/>
			<point x="272" y="64" type="line"/>
			<point x="233" y="49"/>
			<point x="195" y="35"/>
			<point x="151" y="24" type="curve"/>
		</contour>
	</outline>
</glyph>
<glyph name="U" format="2">
	<advance width="777"/>
	<unicode hex="0055"/>
	<outline>
		<contour>
			<point x="392" y="-11" type="curve" smooth="yes"/>
			<point x="542" y="-11"/>
			<point x="674" y="51"/>
			<point x="674" y="219" type="curve" smooth="yes"/>
			<point x="674" y="634" type="line"/>
			<point x="701" y="649"/>
			<point x="748" y="668"/>
			<point x="777" y="678" type="curve"/>
			<point x="777" y="705" type="line"/>
			<point x="730" y="701"/>
			<point x="684" y="698"/>
			<point x="637" y="698" type="curve" smooth="yes"/>
			<point x="582" y="698"/>
			<point x="522" y="701"/>
			<point x="467" y="705" type="curve"/>
			<point x="467" y="677" type="line"/>
			<point x="523" y="664"/>
			<point x="562" y="651"/>
			<point x="605" y="634" type="curve"/>
			<point x="605" y="218" type="line" smooth="yes"/>
			<point x="605" y="114"/>
			<point x="522" y="56"/>
			<point x="424" y="56" type="curve" smooth="yes"/>
			<point x="313" y="56"/>
			<point x="220" y="116"/>
			<point x="220" y="235" type="curve" smooth="yes"/>
			<point x="220" y="644" type="line"/>
			<point x="258" y="658"/>
			<point x="300" y="668"/>
			<point x="340" y="677" type="curve"/>
			<point x="340" y="705" type="line"/>
			<point x="283" y="701"/>
			<point x="227" y="698"/>
			<point x="170" y="698" type="curve" smooth="yes"/>
			<point x="115" y="698"/>
			<point x="55" y="701"/>
			<point x="0" y="705" type="curve"/>
			<point x="0" y="677" type="line"/>
			<point x="39" y="669"/>
			<point x="85" y="657"/>
			<point x="111" y="648" type="curve"/>
			<point x="111" y="221" type="line" smooth="yes"/>
			<point x="111" y="54"/>
			<point x="242" y="-11"/>
		</contour>
	</outline>
</glyph>
<glyph name="V" format="2">
	<advance width="732"/>
	<unicode hex="0056"/>
	<outline>
		<contour>
			<point x="344" y="0" type="line"/>
			<point x="372" y="0" type="line"/>
			<point x="676" y="638" type="line"/>
			<point x="703" y="651"/>
			<point x="739" y="666"/>
			<point x="773" y="678" type="curve"/>
			<point x="773" y="705" type="line"/>
			<point x="726" y="701"/>
			<point x="680" y="698"/>
			<point x="633" y="698" type="curve" smooth="yes"/>
			<point x="578" y="698"/>
			<point x="519" y="701"/>
			<point x="464" y="705" type="curve"/>
			<point x="463" y="677" type="line"/>
			<point x="510" y="667"/>
			<point x="557" y="655"/>
			<point x="601" y="643" type="curve"/>
			<point x="390" y="160" type="line"/>
			<point x="187" y="647" type="line"/>
			<point x="223" y="660"/>
			<point x="261" y="669"/>
			<point x="299" y="677" type="curve"/>
			<point x="299" y="705" type="line"/>
			<point x="242" y="701"/>
			<point x="186" y="698"/>
			<point x="129" y="698" type="curve" smooth="yes"/>
			<point x="74" y="698"/>
			<point x="14" y="701"/>
			<point x="-41" y="705" type="curve"/>
			<point x="-41" y="677" type="line"/>
			<point x="3" y="668"/>
			<point x="31" y="660"/>
			<point x="65" y="650" type="curve"/>
		</contour>
	</outline>
</glyph>
<glyph name="W" format="2">
	<advance width="1126"/>
	<unicode hex="0057"/>
	<outline>
		<contour>
			<point x="325" y="0" type="line"/>
			<point x="352" y="0" type="line"/>
			<point x="564" y="498" type="line"/>
			<point x="774" y="0" type="line"/>
			<point x="802" y="0" type="line"/>
			<point x="1072" y="638" type="line"/>
			<point x="1101" y="654"/>
			<point x="1132" y="667"/>
			<point x="1167" y="678" type="curve"/>
			<point x="1167" y="705" type="line"/>
			<point x="1120" y="701"/>
			<point x="1074" y="698"/>
			<point x="1027" y="698" type="curve" smooth="yes"/>
			<point x="972" y="698"/>
			<point x="912" y="701"/>
			<point x="857" y="705" type="curve"/>
			<point x="857" y="677" type="line"/>
			<point x="911" y="667"/>
			<point x="949" y="658"/>
			<point x="997" y="642" type="curve"/>
			<point x="816" y="167" type="line"/>
			<point x="626" y="637" type="line"/>
			<point x="663" y="653"/>
			<point x="699" y="665"/>
			<point x="740" y="677" type="curve"/>
			<point x="740" y="705" type="line"/>
			<point x="686" y="701"/>
			<point x="632" y="698"/>
			<point x="578" y="698" type="curve" smooth="yes"/>
			<point x="530" y="698"/>
			<point x="478" y="701"/>
			<point x="430" y="705" type="curve"/>
			<point x="430" y="677" type="line"/>
			<point x="470" y="667"/>
			<point x="510" y="656"/>
			<point x="547" y="640" type="curve"/>
			<point x="367" y="168" type="line"/>
			<point x="186" y="647" type="line"/>
			<point x="222" y="660"/>
			<point x="261" y="669"/>
			<point x="299" y="677" type="curve"/>
			<point x="299" y="705" type="line"/>
			<point x="241" y="701"/>
			<point x="186" y="698"/>
			<point x="129" y="698" type="curve" smooth="yes"/>
			<point x="74" y="698"/>
			<point x="17" y="701"/>
			<point x="-41" y="705" type="curve"/>
			<point x="-41" y="677" type="line"/>
			<point x="3" y="668"/>
			<point x="32" y="662"/>
			<point x="65" y="651" type="curve"/>
		</contour>
	</outline>
</glyph>
<glyph name="X" format="2">
	<advance width="706"/>
	<unicode hex="0058"/>
	<outline>
		<contour>
			<point x="-36" y="-6" type="line"/>
			<point x="11" y="-2"/>
			<point x="57" y="1"/>
			<point x="104" y="1" type="curve" smooth="yes"/>
			<point x="159" y="1"/>
			<point x="219" y="-2"/>
			<point x="274" y="-6" type="curve"/>
			<point x="274" y="22" type="line"/>
			<point x="235" y="31"/>
			<point x="202" y="42"/>
			<point x="163" y="56" type="curve"/>
			<point x="331" y="301" type="line"/>
			<point x="505" y="49" type="line"/>
			<point x="471" y="37"/>
			<point x="439" y="30"/>
			<point x="402" y="23" type="curve"/>
			<point x="402" y="-5" type="line"/>
			<point x="459" y="-1"/>
			<point x="515" y="2"/>
			<point x="572" y="2" type="curve" smooth="yes"/>
			<point x="627" y="2"/>
			<point x="687" y="-1"/>
			<point x="742" y="-5" type="curve"/>
			<point x="742" y="23" type="line"/>
			<point x="707" y="30"/>
			<point x="672" y="37"/>
			<point x="639" y="47" type="curve"/>
			<point x="411" y="377" type="line"/>
			<point x="641" y="643" type="line"/>
			<point x="667" y="655"/>
			<point x="705" y="669"/>
			<point x="729" y="676" type="curve"/>
			<point x="729" y="705" type="line"/>
			<point x="682" y="701"/>
			<point x="636" y="698"/>
			<point x="589" y="698" type="curve" smooth="yes"/>
			<point x="534" y="698"/>
			<point x="474" y="701"/>
			<point x="419" y="705" type="curve"/>
			<point x="419" y="677" type="line"/>
			<point x="466" y="668"/>
			<point x="509" y="657"/>
			<point x="548" y="645" type="curve"/>
			<point x="380" y="420" type="line"/>
			<point x="221" y="650" type="line"/>
			<point x="255" y="661"/>
			<point x="290" y="669"/>
			<point x="325" y="677" type="curve"/>
			<point x="325" y="705" type="line"/>
			<point x="268" y="701"/>
			<point x="212" y="698"/>
			<point x="155" y="698" type="curve" smooth="yes"/>
			<point x="100" y="698"/>
			<point x="40" y="701"/>
			<point x="-15" y="705" type="curve"/>
			<point x="-15" y="677" type="line"/>
			<point x="22" y="670"/>
			<point x="55" y="662"/>
			<point x="88" y="652" type="curve"/>
			<point x="301" y="344" type="line"/>
			<point x="67" y="57" type="line"/>
			<point x="36" y="43"/>
			<point x="-4" y="29"/>
			<point x="-36" y="21" type="curve"/>
		</contour>
	</outline>
</glyph>
<glyph name="Z" format="2">
	<advance width="674"/>
	<unicode hex="005A"/>
	<outline>
		<contour>
			<point x="591" y="-4" type="curve" smooth="yes"/>
			<point x="595" y="-4" type="line"/>
			<point x="638" y="200" type="line"/>
			<point x="608" y="207" type="line"/>
			<point x="606" y="203" type="line" smooth="yes"/>
			<point x="559" y="109"/>
			<point x="518" y="74"/>
			<point x="435" y="68" type="curve" smooth="yes"/>
			<point x="177" y="50" type="line"/>
			<point x="599" y="663" type="line"/>
			<point x="599" y="701" type="line"/>
			<point x="433" y="702"/>
			<point x="267" y="705"/>
			<point x="101" y="705" type="curve" smooth="yes"/>
			<point x="97" y="705" type="line"/>
			<point x="54" y="500" type="line"/>
			<point x="84" y="493" type="line"/>
			<point x="128" y="582"/>
			<point x="158" y="626"/>
			<point x="241" y="632" type="curve" smooth="yes"/>
			<point x="456" y="647" type="line"/>
			<point x="36" y="36" type="line"/>
			<point x="36" y="0" type="line"/>
			<point x="221" y="-1"/>
			<point x="406" y="-4"/>
		</contour>
	</outline>
</glyph>
<glyph name="bracketleft" format="2">
	<advance width="335"/>
	<unicode hex="005B"/>
	<outline>
		<contour>
			<point x="56" y="-90" type="line"/>
			<point x="128" y="-90" type="line"/>
			<point x="128" y="714" type="line"/>
			<point x="56" y="714" type="line"/>
		</contour>
		<contour>
			<point x="56" y="-98" type="line"/>
			<point x="335" y="-98" type="line"/>
			<point x="335" y="-34" type="line"/>
			<point x="56" y="-34" type="line"/>
		</contour>
		<contour>
			<point x="56" y="658" type="line"/>
			<point x="335" y="658" type="line"/>
			<point x="335" y="722" type="line"/>
			<point x="56" y="722" type="line"/>
		</contour>
	</outline>
</glyph>
<glyph name="backslash" format="2">
	<advance width="388"/>
	<unicode hex="005C"/>
	<outline>
		<contour>
			<point x="293" y="0" type="line"/>
			<point x="367" y="0" type="line"/>
			<point x="95" y="717" type="line"/>
			<point x="21" y="717" type="line"/>
		</contour>
	</outline>
</glyph>
<glyph name="bracketright" format="2">
	<advance width="335"/>
	<unicode hex="005D"/>
	<outline>
		<contour>
			<point x="207" y="-90" type="line"/>
			<point x="279" y="-90" type="line"/>
			<point x="279" y="714" type="line"/>
			<point x="207" y="714" type="line"/>
		</contour>
		<contour>
			<point x="0" y="-98" type="line"/>
			<point x="279" y="-98" type="line"/>
			<point x="279" y="-34" type="line"/>
			<point x="0" y="-34" type="line"/>
		</contour>
		<contour>
			<point x="0" y="658" type="line"/>
			<point x="279" y="658" type="line"/>
			<point x="279" y="722" type="line"/>
			<point x="0" y="722" type="line"/>
		</contour>
	</outline>
</glyph>
<glyph name="underscore" format="2">
	<advance width="532"/>
	<unicode hex="005F"/>
	<outline>
		<contour>
			<point x="36" y="0" type="line"/>
			<point x="496" y="0" type="line"/>
			<point x="496" y="69" type="line"/>
			<point x="36" y="69" type="line"/>
		</contour>
	</outline>
</glyph>
<glyph name="grave" format="2">
	<advance width="297"/>
	<unicode hex="0060"/>
	<outline>
		<contour>
			<point x="231" y="543" type="line"/>
			<point x="259" y="543" type="line"/>
			<point x="174" y="750" type="line"/>
			<point x="44" y="750" type="line"/>
		</contour>
	</outline>
</glyph>
<glyph name="a" format="2">
	<advance width="482"/>
	<unicode hex="0061"/>
	<guideline y="512"/>
	<outline>
		<contour>
			<point x="147" y="-5" type="curve" smooth="yes"/>
			<point x="199" y="-5"/>
			<point x="244" y="30"/>
			<point x="290" y="69" type="curve"/>
			<point x="290" y="25"/>
			<point x="318" y="-4"/>
			<point x="360" y="-4" type="curve" smooth="yes"/>
			<point x="408" y="-4"/>
			<point x="435" y="33"/>
			<point x="459" y="72" type="curve"/>
			<point x="441" y="86" type="line"/>
			<point x="430" y="71"/>
			<point x="420" y="63"/>
			<point x="404" y="63" type="curve" smooth="yes"/>
			<point x="383" y="63"/>
			<point x="378" y="87"/>
			<point x="378" y="116" type="curve" smooth="yes"/>
			<point x="378" y="380" type="line" smooth="yes"/>
			<point x="378" y="456"/>
			<point x="339" y="512"/>
			<point x="274" y="512" type="curve" smooth="yes"/>
			<point x="169" y="512"/>
			<point x="32" y="439"/>
			<point x="32" y="378" type="curve" smooth="yes"/>
			<point x="32" y="336"/>
			<point x="67" y="314"/>
			<point x="118" y="336" type="curve"/>
			<point x="135" y="389" type="line" smooth="yes"/>
			<point x="147" y="427"/>
			<point x="169" y="451"/>
			<point x="206" y="451" type="curve" smooth="yes"/>
			<point x="257" y="451"/>
			<point x="286" y="416"/>
			<point x="286" y="359" type="curve" smooth="yes"/>
			<point x="286" y="260" type="line"/>
			<point x="57" y="203" type="line"/>
			<point x="57" y="203"/>
			<point x="34" y="166"/>
			<point x="34" y="114" type="curve" smooth="yes"/>
			<point x="34" y="46"/>
			<point x="80" y="-5"/>
		</contour>
		<contour>
			<point x="190" y="63" type="curve" smooth="yes"/>
			<point x="145" y="63"/>
			<point x="124" y="103"/>
			<point x="124" y="144" type="curve" smooth="yes"/>
			<point x="124" y="157"/>
			<point x="127" y="170"/>
			<point x="127" y="170" type="curve"/>
			<point x="286" y="227" type="line"/>
			<point x="286" y="107" type="line"/>
			<point x="256" y="82"/>
			<point x="232" y="63"/>
		</contour>
	</outline>
</glyph>
<glyph name="b" format="2">
	<advance width="630"/>
	<unicode hex="0062"/>
	<guideline y="761"/>
	<outline>
		<contour>
			<point x="121" y="-24" type="line"/>
			<point x="170" y="42" type="line"/>
			<point x="213" y="7"/>
			<point x="268" y="-10"/>
			<point x="323" y="-10" type="curve" smooth="yes"/>
			<point x="479" y="-10"/>
			<point x="589" y="106"/>
			<point x="589" y="261" type="curve" smooth="yes"/>
			<point x="589" y="387"/>
			<point x="527" y="515"/>
			<point x="379" y="515" type="curve" smooth="yes"/>
			<point x="306" y="515"/>
			<point x="253" y="483"/>
			<point x="203" y="432" type="curve"/>
			<point x="203" y="756" type="line"/>
			<point x="186" y="763" type="line"/>
			<point x="131" y="731"/>
			<point x="81" y="704"/>
			<point x="16" y="696" type="curve"/>
			<point x="16" y="677" type="line"/>
			<point x="111" y="646" type="line"/>
			<point x="111" y="185" type="line" smooth="yes"/>
			<point x="111" y="116"/>
			<point x="110" y="52"/>
			<point x="102" y="-17" type="curve"/>
		</contour>
		<contour>
			<point x="354" y="36" type="curve" smooth="yes"/>
			<point x="251" y="36"/>
			<point x="203" y="129"/>
			<point x="203" y="221" type="curve" smooth="yes"/>
			<point x="203" y="390" type="line"/>
			<point x="237" y="423"/>
			<point x="279" y="441"/>
			<point x="328" y="441" type="curve" smooth="yes"/>
			<point x="451" y="441"/>
			<point x="485" y="315"/>
			<point x="485" y="219" type="curve" smooth="yes"/>
			<point x="485" y="132"/>
			<point x="459" y="36"/>
		</contour>
	</outline>
</glyph>
<glyph name="c" format="2">
	<advance width="502"/>
	<unicode hex="0063"/>
	<outline>
		<contour>
			<point x="254" y="-7" type="curve" smooth="yes"/>
			<point x="346" y="-7"/>
			<point x="420" y="40"/>
			<point x="471" y="119" type="curve"/>
			<point x="451" y="136" type="line"/>
			<point x="409" y="94"/>
			<point x="371" y="77"/>
			<point x="321" y="77" type="curve" smooth="yes"/>
			<point x="195" y="77"/>
			<point x="126" y="195"/>
			<point x="126" y="295" type="curve" smooth="yes"/>
			<point x="126" y="380"/>
			<point x="181" y="452"/>
			<point x="271" y="452" type="curve" smooth="yes"/>
			<point x="302" y="452"/>
			<point x="322" y="442"/>
			<point x="344" y="414" type="curve" smooth="yes"/>
			<point x="380" y="368" type="line"/>
			<point x="425" y="368"/>
			<point x="455" y="389"/>
			<point x="455" y="427" type="curve" smooth="yes"/>
			<point x="455" y="479"/>
			<point x="401" y="512"/>
			<point x="325" y="512" type="curve" smooth="yes"/>
			<point x="167" y="512"/>
			<point x="36" y="389"/>
			<point x="36" y="229" type="curve" smooth="yes"/>
			<point x="36" y="113"/>
			<point x="128" y="-7"/>
		</contour>
	</outline>
</glyph>
<glyph name="d" format="2">
	<advance width="635"/>
	<unicode hex="0064"/>
	<outline>
		<contour>
			<point x="444" y="-20" type="line"/>
			<point x="499" y="12"/>
			<point x="549" y="39"/>
			<point x="614" y="47" type="curve"/>
			<point x="614" y="66" type="line"/>
			<point x="520" y="97" type="line"/>
			<point x="520" y="756" type="line"/>
			<point x="503" y="763" type="line"/>
			<point x="448" y="731"/>
			<point x="398" y="704"/>
			<point x="333" y="696" type="curve"/>
			<point x="333" y="677" type="line"/>
			<point x="428" y="646" type="line"/>
			<point x="428" y="486" type="line"/>
			<point x="391" y="505"/>
			<point x="349" y="515"/>
			<point x="307" y="515" type="curve" smooth="yes"/>
			<point x="151" y="515"/>
			<point x="41" y="399"/>
			<point x="41" y="244" type="curve" smooth="yes"/>
			<point x="41" y="118"/>
			<point x="104" y="-10"/>
			<point x="252" y="-10" type="curve" smooth="yes"/>
			<point x="324" y="-10"/>
			<point x="377" y="23"/>
			<point x="427" y="72" type="curve"/>
			<point x="427" y="-13" type="line"/>
		</contour>
		<contour>
			<point x="302" y="64" type="curve" smooth="yes"/>
			<point x="178" y="64"/>
			<point x="145" y="191"/>
			<point x="145" y="286" type="curve" smooth="yes"/>
			<point x="145" y="373"/>
			<point x="171" y="469"/>
			<point x="276" y="469" type="curve" smooth="yes"/>
			<point x="379" y="469"/>
			<point x="428" y="376"/>
			<point x="428" y="284" type="curve" smooth="yes"/>
			<point x="428" y="115" type="line"/>
			<point x="394" y="82"/>
			<point x="352" y="64"/>
		</contour>
	</outline>
</glyph>
<glyph name="e" format="2">
	<advance width="485"/>
	<unicode hex="0065"/>
	<guideline x="-11" y="512" angle="0"/>
	<outline>
		<contour>
			<point x="239" y="-9" type="curve" smooth="yes"/>
			<point x="342" y="-9"/>
			<point x="398" y="37"/>
			<point x="454" y="114" type="curve"/>
			<point x="434" y="131" type="line"/>
			<point x="391" y="88"/>
			<point x="351" y="73"/>
			<point x="294" y="73" type="curve" smooth="yes"/>
			<point x="183" y="73"/>
			<point x="120" y="187"/>
			<point x="120" y="291" type="curve" smooth="yes"/>
			<point x="120" y="301"/>
			<point x="119" y="314"/>
			<point x="122" y="323" type="curve"/>
			<point x="429" y="321" type="line"/>
			<point x="429" y="419"/>
			<point x="376" y="511"/>
			<point x="277" y="511" type="curve" smooth="yes"/>
			<point x="125" y="511"/>
			<point x="30" y="366"/>
			<point x="30" y="238" type="curve" smooth="yes"/>
			<point x="30" y="103"/>
			<point x="123" y="-9"/>
		</contour>
		<contour>
			<point x="130" y="360" type="line"/>
			<point x="143" y="422"/>
			<point x="183" y="455"/>
			<point x="237" y="455" type="curve" smooth="yes"/>
			<point x="275" y="455"/>
			<point x="318" y="428"/>
			<point x="321" y="382" type="curve"/>
		</contour>
	</outline>
</glyph>
<glyph name="f" format="2">
	<advance width="390"/>
	<unicode hex="0066"/>
	<outline>
		<contour>
			<point x="36" y="1" type="line"/>
			<point x="81" y="0"/>
			<point x="127" y="8"/>
			<point x="172" y="8" type="curve" smooth="yes"/>
			<point x="216" y="8"/>
			<point x="282" y="1"/>
			<point x="326" y="1" type="curve" smooth="yes"/>
			<point x="331" y="1" type="line"/>
			<point x="331" y="20" type="line"/>
			<point x="329" y="22"/>
			<point x="230" y="50"/>
			<point x="218" y="55" type="curve"/>
			<point x="218" y="433" type="line"/>
			<point x="352" y="433" type="line"/>
			<point x="382" y="500" type="line"/>
			<point x="218" y="500" type="line"/>
			<point x="218" y="573"/>
			<point x="223" y="699"/>
			<point x="323" y="699" type="curve" smooth="yes"/>
			<point x="347" y="699"/>
			<point x="360" y="689"/>
			<point x="375" y="671" type="curve" smooth="yes"/>
			<point x="408" y="632" type="line"/>
			<point x="439" y="632"/>
			<point x="470" y="653"/>
			<point x="470" y="690" type="curve" smooth="yes"/>
			<point x="470" y="727"/>
			<point x="424" y="759"/>
			<point x="364" y="759" type="curve" smooth="yes"/>
			<point x="247" y="759"/>
			<point x="145" y="627"/>
			<point x="131" y="496" type="curve"/>
			<point x="54" y="452" type="line"/>
			<point x="54" y="433" type="line"/>
			<point x="126" y="433" type="line"/>
			<point x="126" y="55" type="line"/>
			<point x="113" y="49"/>
			<point x="38" y="22"/>
			<point x="36" y="20" type="curve"/>
		</contour>
	</outline>
</glyph>
<glyph name="g" format="2">
	<advance width="578"/>
	<unicode hex="0067"/>
	<outline>
		<contour>
			<point x="222" y="-255" type="curve" smooth="yes"/>
			<point x="327" y="-255"/>
			<point x="527" y="-184"/>
			<point x="527" y="-64" type="curve" smooth="yes"/>
			<point x="527" y="0"/>
			<point x="482" y="35"/>
			<point x="427" y="49" type="curve" smooth="yes"/>
			<point x="219" y="100" type="line" smooth="yes"/>
			<point x="166" y="113"/>
			<point x="160" y="147"/>
			<point x="172" y="170" type="curve" smooth="yes"/>
			<point x="184" y="192" type="line"/>
			<point x="167" y="209" type="line"/>
			<point x="50" y="95" type="line"/>
			<point x="50" y="48"/>
			<point x="114" y="25"/>
			<point x="156" y="18" type="curve"/>
			<point x="117" y="-18" type="line" smooth="yes"/>
			<point x="81" y="-51"/>
			<point x="46" y="-99"/>
			<point x="46" y="-151" type="curve" smooth="yes"/>
			<point x="46" y="-225"/>
			<point x="132" y="-255"/>
		</contour>
		<contour>
			<point x="279" y="-194" type="curve" smooth="yes"/>
			<point x="189" y="-194"/>
			<point x="144" y="-141"/>
			<point x="144" y="-94" type="curve" smooth="yes"/>
			<point x="144" y="-68"/>
			<point x="154" y="-42"/>
			<point x="170" y="-13" type="curve" smooth="yes"/>
			<point x="183" y="11" type="line"/>
			<point x="394" y="-37" type="line" smooth="yes"/>
			<point x="436" y="-47"/>
			<point x="458" y="-74"/>
			<point x="458" y="-103" type="curve" smooth="yes"/>
			<point x="458" y="-155"/>
			<point x="378" y="-194"/>
		</contour>
		<contour>
			<point x="280" y="162" type="curve" smooth="yes"/>
			<point x="385" y="162"/>
			<point x="470" y="240"/>
			<point x="470" y="335" type="curve" smooth="yes"/>
			<point x="470" y="430"/>
			<point x="385" y="508"/>
			<point x="280" y="508" type="curve" smooth="yes"/>
			<point x="175" y="508"/>
			<point x="90" y="430"/>
			<point x="90" y="335" type="curve" smooth="yes"/>
			<point x="90" y="240"/>
			<point x="175" y="162"/>
		</contour>
		<contour>
			<point x="281" y="201" type="curve" smooth="yes"/>
			<point x="228" y="201"/>
			<point x="185" y="261"/>
			<point x="185" y="335" type="curve" smooth="yes"/>
			<point x="185" y="410"/>
			<point x="228" y="470"/>
			<point x="281" y="470" type="curve" smooth="yes"/>
			<point x="334" y="470"/>
			<point x="377" y="410"/>
			<point x="377" y="335" type="curve" smooth="yes"/>
			<point x="377" y="261"/>
			<point x="334" y="201"/>
		</contour>
		<contour>
			<point x="418" y="404" type="line"/>
			<point x="532" y="482" type="line"/>
			<point x="527" y="500" type="line"/>
			<point x="348" y="485" type="line"/>
		</contour>
	</outline>
</glyph>
<glyph name="h" format="2">
	<advance width="632"/>
	<unicode hex="0068"/>
	<guideline y="762"/>
	<outline>
		<contour>
			<point x="11" y="1" type="line"/>
			<point x="58" y="0"/>
			<point x="105" y="8"/>
			<point x="152" y="8" type="curve" smooth="yes"/>
			<point x="197" y="8"/>
			<point x="243" y="1"/>
			<point x="288" y="1" type="curve" smooth="yes"/>
			<point x="293" y="1" type="line"/>
			<point x="293" y="20" type="line"/>
			<point x="292" y="21"/>
			<point x="213" y="48"/>
			<point x="198" y="55" type="curve"/>
			<point x="198" y="393" type="line"/>
			<point x="231" y="420"/>
			<point x="269" y="436"/>
			<point x="321" y="436" type="curve" smooth="yes"/>
			<point x="398" y="436"/>
			<point x="433" y="372"/>
			<point x="433" y="301" type="curve" smooth="yes"/>
			<point x="433" y="55" type="line"/>
			<point x="419" y="48"/>
			<point x="340" y="21"/>
			<point x="339" y="20" type="curve"/>
			<point x="339" y="1" type="line"/>
			<point x="386" y="0"/>
			<point x="433" y="8"/>
			<point x="480" y="8" type="curve" smooth="yes"/>
			<point x="525" y="8"/>
			<point x="571" y="1"/>
			<point x="616" y="1" type="curve" smooth="yes"/>
			<point x="621" y="1" type="line"/>
			<point x="621" y="20" type="line"/>
			<point x="619" y="22"/>
			<point x="540" y="48"/>
			<point x="525" y="56" type="curve"/>
			<point x="525" y="340" type="line" smooth="yes"/>
			<point x="525" y="428"/>
			<point x="478" y="508"/>
			<point x="377" y="508" type="curve" smooth="yes"/>
			<point x="311" y="508"/>
			<point x="245" y="475"/>
			<point x="198" y="432" type="curve"/>
			<point x="198" y="756" type="line"/>
			<point x="181" y="763" type="line"/>
			<point x="122" y="729"/>
			<point x="76" y="704"/>
			<point x="11" y="696" type="curve"/>
			<point x="11" y="677" type="line"/>
			<point x="106" y="646" type="line"/>
			<point x="106" y="55" type="line"/>
			<point x="94" y="49"/>
			<point x="11" y="20"/>
			<point x="11" y="20" type="curve"/>
		</contour>
	</outline>
</glyph>
<glyph name="j" format="2">
	<advance width="292"/>
	<unicode hex="006A"/>
	<outline>
		<contour>
			<point x="8" y="-251" type="line"/>
			<point x="12" y="-248" type="line" smooth="yes"/>
			<point x="71" y="-202"/>
			<point x="204" y="-73"/>
			<point x="204" y="8" type="curve" smooth="yes"/>
			<point x="204" y="508" type="line"/>
			<point x="187" y="515" type="line"/>
			<point x="128" y="481"/>
			<point x="82" y="456"/>
			<point x="17" y="448" type="curve"/>
			<point x="17" y="429" type="line"/>
			<point x="112" y="398" type="line"/>
			<point x="112" y="46" type="line" smooth="yes"/>
			<point x="112" y="-73"/>
			<point x="74" y="-140"/>
			<point x="-4" y="-229" type="curve" smooth="yes"/>
			<point x="-6" y="-232" type="line"/>
		</contour>
		<contour>
			<point x="158" y="635" type="curve" smooth="yes"/>
			<point x="196" y="635"/>
			<point x="221" y="661"/>
			<point x="221" y="697" type="curve" smooth="yes"/>
			<point x="221" y="732"/>
			<point x="195" y="758"/>
			<point x="158" y="758" type="curve" smooth="yes"/>
			<point x="120" y="758"/>
			<point x="96" y="732"/>
			<point x="96" y="697" type="curve" smooth="yes"/>
			<point x="96" y="661"/>
			<point x="120" y="635"/>
		</contour>
	</outline>
</glyph>
<glyph name="k" format="2">
	<advance width="612"/>
	<unicode hex="006B"/>
	<outline>
		<contour>
			<point x="31" y="1" type="line"/>
			<point x="76" y="0"/>
			<point x="122" y="8"/>
			<point x="167" y="8" type="curve" smooth="yes"/>
			<point x="211" y="8"/>
			<point x="254" y="1"/>
			<point x="298" y="1" type="curve" smooth="yes"/>
			<point x="303" y="1" type="line"/>
			<point x="303" y="20" type="line"/>
			<point x="301" y="22"/>
			<point x="225" y="50"/>
			<point x="213" y="55" type="curve"/>
			<point x="213" y="253" type="line"/>
			<point x="406" y="45" type="line"/>
			<point x="339" y="20" type="line"/>
			<point x="339" y="1" type="line"/>
			<point x="384" y="0"/>
			<point x="430" y="8"/>
			<point x="475" y="8" type="curve" smooth="yes"/>
			<point x="519" y="8"/>
			<point x="562" y="1"/>
			<point x="606" y="1" type="curve" smooth="yes"/>
			<point x="611" y="1" type="line"/>
			<point x="611" y="20" type="line"/>
			<point x="598" y="30"/>
			<point x="525" y="49"/>
			<point x="517" y="57" type="curve" smooth="yes"/>
			<point x="285" y="299" type="line"/>
			<point x="461" y="445" type="line" smooth="yes"/>
			<point x="483" y="463"/>
			<point x="538" y="468"/>
			<point x="562" y="485" type="curve"/>
			<point x="562" y="503" type="line"/>
			<point x="517" y="504"/>
			<point x="471" y="496"/>
			<point x="425" y="496" type="curve" smooth="yes"/>
			<point x="381" y="496"/>
			<point x="338" y="503"/>
			<point x="294" y="503" type="curve" smooth="yes"/>
			<point x="289" y="503" type="line"/>
			<point x="289" y="485" type="line"/>
			<point x="293" y="481"/>
			<point x="364" y="457"/>
			<point x="378" y="450" type="curve"/>
			<point x="213" y="279" type="line"/>
			<point x="213" y="756" type="line"/>
			<point x="196" y="763" type="line"/>
			<point x="137" y="729"/>
			<point x="91" y="704"/>
			<point x="26" y="696" type="curve"/>
			<point x="26" y="677" type="line"/>
			<point x="121" y="646" type="line"/>
			<point x="121" y="55" type="line"/>
			<point x="108" y="49"/>
			<point x="33" y="22"/>
			<point x="31" y="20" type="curve"/>
		</contour>
	</outline>
</glyph>
<glyph name="m" format="2">
	<advance width="979"/>
	<unicode hex="006D"/>
	<outline>
		<contour>
			<point x="26" y="1" type="line"/>
			<point x="73" y="0"/>
			<point x="120" y="8"/>
			<point x="167" y="8" type="curve" smooth="yes"/>
			<point x="212" y="8"/>
			<point x="258" y="1"/>
			<point x="303" y="1" type="curve" smooth="yes"/>
			<point x="308" y="1" type="line"/>
			<point x="308" y="20" type="line"/>
			<point x="307" y="21"/>
			<point x="228" y="48"/>
			<point x="213" y="55" type="curve"/>
			<point x="213" y="393" type="line"/>
			<point x="246" y="420"/>
			<point x="284" y="436"/>
			<point x="336" y="436" type="curve" smooth="yes"/>
			<point x="413" y="436"/>
			<point x="448" y="372"/>
			<point x="448" y="301" type="curve" smooth="yes"/>
			<point x="448" y="55" type="line"/>
			<point x="434" y="48"/>
			<point x="355" y="21"/>
			<point x="354" y="20" type="curve"/>
			<point x="354" y="1" type="line"/>
			<point x="401" y="0"/>
			<point x="448" y="8"/>
			<point x="495" y="8" type="curve" smooth="yes"/>
			<point x="540" y="8"/>
			<point x="586" y="1"/>
			<point x="631" y="1" type="curve" smooth="yes"/>
			<point x="636" y="1" type="line"/>
			<point x="636" y="20" type="line"/>
			<point x="634" y="22"/>
			<point x="555" y="48"/>
			<point x="540" y="56" type="curve"/>
			<point x="540" y="340" type="line" smooth="yes"/>
			<point x="540" y="428"/>
			<point x="493" y="508"/>
			<point x="392" y="508" type="curve" smooth="yes"/>
			<point x="326" y="508"/>
			<point x="260" y="475"/>
			<point x="213" y="432" type="curve"/>
			<point x="213" y="508" type="line"/>
			<point x="196" y="515" type="line"/>
			<point x="137" y="481"/>
			<point x="91" y="456"/>
			<point x="26" y="448" type="curve"/>
			<point x="26" y="429" type="line"/>
			<point x="121" y="398" type="line"/>
			<point x="121" y="55" type="line"/>
			<point x="109" y="49"/>
			<point x="26" y="20"/>
			<point x="26" y="20" type="curve"/>
		</contour>
		<contour>
			<point x="681" y="1" type="line"/>
			<point x="728" y="0"/>
			<point x="775" y="8"/>
			<point x="822" y="8" type="curve" smooth="yes"/>
			<point x="867" y="8"/>
			<point x="913" y="1"/>
			<point x="958" y="1" type="curve" smooth="yes"/>
			<point x="963" y="1" type="line"/>
			<point x="963" y="20" type="line"/>
			<point x="961" y="22"/>
			<point x="882" y="48"/>
			<point x="867" y="56" type="curve"/>
			<point x="867" y="340" type="line" smooth="yes"/>
			<point x="867" y="428"/>
			<point x="820" y="508"/>
			<point x="719" y="508" type="curve" smooth="yes"/>
			<point x="649" y="508"/>
			<point x="568" y="470"/>
			<point x="516" y="419" type="curve"/>
			<point x="533" y="387" type="line"/>
			<point x="565" y="416"/>
			<point x="611" y="436"/>
			<point x="663" y="436" type="curve" smooth="yes"/>
			<point x="740" y="436"/>
			<point x="775" y="372"/>
			<point x="775" y="301" type="curve" smooth="yes"/>
			<point x="775" y="55" type="line"/>
			<point x="761" y="48"/>
			<point x="682" y="21"/>
			<point x="681" y="20" type="curve"/>
		</contour>
	</outline>
</glyph>
<glyph name="o" format="2">
	<advance width="578"/>
	<unicode hex="006F"/>
	<outline>
		<contour>
			<point x="287" y="-11" type="curve" smooth="yes"/>
			<point x="418" y="-11"/>
			<point x="548" y="91"/>
			<point x="548" y="241" type="curve" smooth="yes"/>
			<point x="548" y="383"/>
			<point x="445" y="511"/>
			<point x="291" y="511" type="curve" smooth="yes"/>
			<point x="159" y="511"/>
			<point x="30" y="410"/>
			<point x="30" y="262" type="curve" smooth="yes"/>
			<point x="30" y="122"/>
			<point x="133" y="-11"/>
		</contour>
		<contour>
			<point x="324" y="45" type="curve" smooth="yes"/>
			<point x="208" y="45"/>
			<point x="131" y="187"/>
			<point x="131" y="305" type="curve" smooth="yes"/>
			<point x="131" y="374"/>
			<point x="165" y="459"/>
			<point x="252" y="459" type="curve" smooth="yes"/>
			<point x="368" y="459"/>
			<point x="447" y="319"/>
			<point x="447" y="202" type="curve" smooth="yes"/>
			<point x="447" y="130"/>
			<point x="410" y="45"/>
		</contour>
	</outline>
</glyph>
<glyph name="p" format="2">
	<advance width="635"/>
	<unicode hex="0070"/>
	<guideline y="512"/>
	<outline>
		<contour>
			<point x="21" y="-247" type="line"/>
			<point x="67" y="-249"/>
			<point x="115" y="-240"/>
			<point x="162" y="-240" type="curve" smooth="yes"/>
			<point x="207" y="-240"/>
			<point x="253" y="-247"/>
			<point x="298" y="-247" type="curve" smooth="yes"/>
			<point x="303" y="-247" type="line"/>
			<point x="303" y="-228" type="line"/>
			<point x="302" y="-227"/>
			<point x="219" y="-198"/>
			<point x="208" y="-193" type="curve"/>
			<point x="208" y="20" type="line"/>
			<point x="245" y="0"/>
			<point x="286" y="-10"/>
			<point x="328" y="-10" type="curve" smooth="yes"/>
			<point x="484" y="-10"/>
			<point x="594" y="106"/>
			<point x="594" y="261" type="curve" smooth="yes"/>
			<point x="594" y="387"/>
			<point x="532" y="515"/>
			<point x="384" y="515" type="curve" smooth="yes"/>
			<point x="310" y="515"/>
			<point x="258" y="483"/>
			<point x="208" y="432" type="curve"/>
			<point x="208" y="508" type="line"/>
			<point x="191" y="515" type="line"/>
			<point x="132" y="481"/>
			<point x="86" y="456"/>
			<point x="21" y="448" type="curve"/>
			<point x="21" y="429" type="line"/>
			<point x="116" y="398" type="line"/>
			<point x="116" y="-193" type="line"/>
			<point x="104" y="-198"/>
			<point x="22" y="-227"/>
			<point x="21" y="-228" type="curve"/>
		</contour>
		<contour>
			<point x="359" y="36" type="curve" smooth="yes"/>
			<point x="256" y="36"/>
			<point x="208" y="129"/>
			<point x="208" y="221" type="curve" smooth="yes"/>
			<point x="208" y="390" type="line"/>
			<point x="242" y="423"/>
			<point x="284" y="441"/>
			<point x="333" y="441" type="curve" smooth="yes"/>
			<point x="456" y="441"/>
			<point x="490" y="315"/>
			<point x="490" y="219" type="curve" smooth="yes"/>
			<point x="490" y="132"/>
			<point x="464" y="36"/>
		</contour>
	</outline>
</glyph>
<glyph name="q" format="2">
	<advance width="620"/>
	<unicode hex="0071"/>
	<outline>
		<contour>
			<point x="332" y="-247" type="line"/>
			<point x="378" y="-249"/>
			<point x="426" y="-240"/>
			<point x="473" y="-240" type="curve" smooth="yes"/>
			<point x="518" y="-240"/>
			<point x="564" y="-247"/>
			<point x="609" y="-247" type="curve" smooth="yes"/>
			<point x="614" y="-247" type="line"/>
			<point x="614" y="-228" type="line"/>
			<point x="613" y="-227"/>
			<point x="531" y="-199"/>
			<point x="519" y="-193" type="curve"/>
			<point x="519" y="319" type="line" smooth="yes"/>
			<point x="519" y="388"/>
			<point x="520" y="452"/>
			<point x="528" y="521" type="curve"/>
			<point x="509" y="528" type="line"/>
			<point x="460" y="463" type="line"/>
			<point x="417" y="498"/>
			<point x="362" y="515"/>
			<point x="307" y="515" type="curve" smooth="yes"/>
			<point x="151" y="515"/>
			<point x="41" y="399"/>
			<point x="41" y="244" type="curve" smooth="yes"/>
			<point x="41" y="118"/>
			<point x="104" y="-10"/>
			<point x="252" y="-10" type="curve" smooth="yes"/>
			<point x="325" y="-10"/>
			<point x="378" y="24"/>
			<point x="428" y="73" type="curve"/>
			<point x="428" y="-193" type="line"/>
			<point x="415" y="-199"/>
			<point x="333" y="-227"/>
			<point x="332" y="-228" type="curve"/>
		</contour>
		<contour>
			<point x="302" y="64" type="curve" smooth="yes"/>
			<point x="178" y="64"/>
			<point x="145" y="191"/>
			<point x="145" y="286" type="curve" smooth="yes"/>
			<point x="145" y="373"/>
			<point x="171" y="469"/>
			<point x="276" y="469" type="curve" smooth="yes"/>
			<point x="379" y="469"/>
			<point x="428" y="376"/>
			<point x="428" y="284" type="curve" smooth="yes"/>
			<point x="428" y="115" type="line"/>
			<point x="394" y="82"/>
			<point x="352" y="64"/>
		</contour>
	</outline>
</glyph>
<glyph name="r" format="2">
	<advance width="458"/>
	<unicode hex="0072"/>
	<outline>
		<contour>
			<point x="26" y="1" type="line"/>
			<point x="34" y="1" type="line" smooth="yes"/>
			<point x="79" y="1"/>
			<point x="123" y="8"/>
			<point x="167" y="8" type="curve" smooth="yes"/>
			<point x="212" y="8"/>
			<point x="283" y="1"/>
			<point x="328" y="1" type="curve" smooth="yes"/>
			<point x="333" y="1" type="line"/>
			<point x="333" y="20" type="line"/>
			<point x="301" y="31"/>
			<point x="243" y="45"/>
			<point x="213" y="57" type="curve"/>
			<point x="213" y="383" type="line"/>
			<point x="234" y="402"/>
			<point x="272" y="425"/>
			<point x="303" y="425" type="curve" smooth="yes"/>
			<point x="315" y="425"/>
			<point x="323" y="422"/>
			<point x="334" y="409" type="curve" smooth="yes"/>
			<point x="360" y="380" type="line"/>
			<point x="390" y="380"/>
			<point x="427" y="410"/>
			<point x="427" y="445" type="curve" smooth="yes"/>
			<point x="427" y="483"/>
			<point x="394" y="510"/>
			<point x="359" y="510" type="curve" smooth="yes"/>
			<point x="305" y="510"/>
			<point x="241" y="464"/>
			<point x="213" y="418" type="curve"/>
			<point x="213" y="508" type="line"/>
			<point x="196" y="515" type="line"/>
			<point x="137" y="481"/>
			<point x="91" y="456"/>
			<point x="26" y="448" type="curve"/>
			<point x="26" y="429" type="line"/>
			<point x="121" y="398" type="line"/>
			<point x="121" y="55" type="line"/>
			<point x="94" y="43"/>
			<point x="56" y="30"/>
			<point x="26" y="20" type="curve"/>
		</contour>
	</outline>
</glyph>
<glyph name="s" format="2">
	<advance width="466"/>
	<unicode hex="0073"/>
	<outline>
		<contour>
			<point x="215" y="-7" type="curve" smooth="yes"/>
			<point x="303" y="-7"/>
			<point x="413" y="44"/>
			<point x="413" y="150" type="curve" smooth="yes"/>
			<point x="413" y="199"/>
			<point x="389" y="240"/>
			<point x="323" y="272" type="curve" smooth="yes"/>
			<point x="217" y="323" type="line" smooth="yes"/>
			<point x="183" y="339"/>
			<point x="151" y="371"/>
			<point x="151" y="407" type="curve" smooth="yes"/>
			<point x="151" y="444"/>
			<point x="188" y="469"/>
			<point x="229" y="469" type="curve" smooth="yes"/>
			<point x="287" y="469"/>
			<point x="321" y="422"/>
			<point x="328" y="370" type="curve"/>
			<point x="328" y="367" type="line"/>
			<point x="344" y="363" type="line"/>
			<point x="382" y="465" type="line"/>
			<point x="379" y="467" type="line" smooth="yes"/>
			<point x="345" y="489"/>
			<point x="307" y="510"/>
			<point x="252" y="510" type="curve" smooth="yes"/>
			<point x="170" y="510"/>
			<point x="72" y="462"/>
			<point x="72" y="365" type="curve" smooth="yes"/>
			<point x="72" y="312"/>
			<point x="102" y="269"/>
			<point x="152" y="245" type="curve" smooth="yes"/>
			<point x="275" y="185" type="line" smooth="yes"/>
			<point x="313" y="167"/>
			<point x="331" y="139"/>
			<point x="331" y="110" type="curve" smooth="yes"/>
			<point x="331" y="64"/>
			<point x="288" y="40"/>
			<point x="244" y="40" type="curve" smooth="yes"/>
			<point x="176" y="40"/>
			<point x="106" y="97"/>
			<point x="102" y="163" type="curve"/>
			<point x="102" y="167" type="line"/>
			<point x="85" y="171" type="line"/>
			<point x="43" y="51" type="line"/>
			<point x="45" y="49" type="line" smooth="yes"/>
			<point x="83" y="14"/>
			<point x="158" y="-7"/>
		</contour>
	</outline>
</glyph>
<glyph name="t" format="2">
	<advance width="383"/>
	<unicode hex="0074"/>
	<outline>
		<contour>
			<point x="216" y="-10" type="curve" smooth="yes"/>
			<point x="286" y="-10"/>
			<point x="336" y="28"/>
			<point x="383" y="76" type="curve"/>
			<point x="368" y="93" type="line"/>
			<point x="335" y="68"/>
			<point x="303" y="56"/>
			<point x="262" y="56" type="curve" smooth="yes"/>
			<point x="205" y="56"/>
			<point x="197" y="99"/>
			<point x="197" y="146" type="curve" smooth="yes"/>
			<point x="197" y="433" type="line"/>
			<point x="331" y="433" type="line"/>
			<point x="361" y="500" type="line"/>
			<point x="197" y="500" type="line"/>
			<point x="197" y="581" type="line"/>
			<point x="178" y="588" type="line"/>
			<point x="133" y="530"/>
			<point x="85" y="477"/>
			<point x="21" y="453" type="curve"/>
			<point x="21" y="433" type="line"/>
			<point x="105" y="433" type="line"/>
			<point x="105" y="100" type="line" smooth="yes"/>
			<point x="105" y="29"/>
			<point x="145" y="-10"/>
		</contour>
	</outline>
</glyph>
<glyph name="u" format="2">
	<advance width="651"/>
	<unicode hex="0075"/>
	<outline>
		<contour>
			<point x="455" y="-13" type="line"/>
			<point x="514" y="21"/>
			<point x="560" y="46"/>
			<point x="625" y="54" type="curve"/>
			<point x="625" y="73" type="line"/>
			<point x="530" y="104" type="line"/>
			<point x="530" y="508" type="line"/>
			<point x="513" y="515" type="line"/>
			<point x="454" y="481"/>
			<point x="408" y="456"/>
			<point x="343" y="448" type="curve"/>
			<point x="343" y="429" type="line"/>
			<point x="438" y="398" type="line"/>
			<point x="438" y="109" type="line"/>
			<point x="405" y="82"/>
			<point x="367" y="66"/>
			<point x="315" y="66" type="curve" smooth="yes"/>
			<point x="238" y="66"/>
			<point x="203" y="130"/>
			<point x="203" y="201" type="curve" smooth="yes"/>
			<point x="203" y="508" type="line"/>
			<point x="186" y="515" type="line"/>
			<point x="127" y="481"/>
			<point x="81" y="456"/>
			<point x="16" y="448" type="curve"/>
			<point x="16" y="429" type="line"/>
			<point x="111" y="398" type="line"/>
			<point x="111" y="162" type="line" smooth="yes"/>
			<point x="111" y="74"/>
			<point x="158" y="-6"/>
			<point x="259" y="-6" type="curve" smooth="yes"/>
			<point x="325" y="-6"/>
			<point x="391" y="27"/>
			<point x="438" y="70" type="curve"/>
			<point x="438" y="-6" type="line"/>
		</contour>
	</outline>
</glyph>
<glyph name="v" format="2">
	<advance width="579"/>
	<unicode hex="0076"/>
	<outline>
		<contour>
			<point x="270" y="-2" type="line"/>
			<point x="291" y="-2" type="line"/>
			<point x="496" y="444" type="line"/>
			<point x="527" y="460"/>
			<point x="564" y="472"/>
			<point x="598" y="483" type="curve"/>
			<point x="601" y="485" type="line"/>
			<point x="601" y="503" type="line"/>
			<point x="596" y="503" type="line"/>
			<point x="553" y="501"/>
			<point x="502" y="496"/>
			<point x="460" y="496" type="curve" smooth="yes"/>
			<point x="418" y="496"/>
			<point x="366" y="501"/>
			<point x="324" y="503" type="curve"/>
			<point x="319" y="503" type="line"/>
			<point x="319" y="485" type="line"/>
			<point x="322" y="483" type="line"/>
			<point x="357" y="471"/>
			<point x="392" y="460"/>
			<point x="425" y="444" type="curve"/>
			<point x="307" y="128" type="line"/>
			<point x="170" y="453" type="line"/>
			<point x="180" y="458"/>
			<point x="194" y="463"/>
			<point x="207" y="468" type="curve" smooth="yes"/>
			<point x="224" y="474"/>
			<point x="241" y="479"/>
			<point x="253" y="483" type="curve"/>
			<point x="256" y="485" type="line"/>
			<point x="256" y="503" type="line"/>
			<point x="251" y="503" type="line"/>
			<point x="208" y="501"/>
			<point x="157" y="496"/>
			<point x="115" y="496" type="curve" smooth="yes"/>
			<point x="73" y="496"/>
			<point x="22" y="501"/>
			<point x="-21" y="503" type="curve"/>
			<point x="-26" y="503" type="line"/>
			<point x="-26" y="485" type="line"/>
			<point x="-23" y="483" type="line"/>
			<point x="-11" y="479"/>
			<point x="6" y="473"/>
			<point x="23" y="468" type="curve"/>
			<point x="38" y="462"/>
			<point x="53" y="457"/>
			<point x="63" y="451" type="curve"/>
		</contour>
	</outline>
</glyph>
<glyph name="w" format="2">
	<advance width="924"/>
	<unicode hex="0077"/>
	<outline>
		<contour>
			<point x="270" y="-2" type="line"/>
			<point x="291" y="-2" type="line"/>
			<point x="453" y="352" type="line"/>
			<point x="615" y="-2" type="line"/>
			<point x="636" y="-2" type="line"/>
			<point x="840" y="443" type="line"/>
			<point x="856" y="451"/>
			<point x="945" y="483"/>
			<point x="948" y="485" type="curve"/>
			<point x="948" y="503" type="line"/>
			<point x="901" y="504"/>
			<point x="854" y="496"/>
			<point x="807" y="496" type="curve" smooth="yes"/>
			<point x="762" y="496"/>
			<point x="716" y="503"/>
			<point x="671" y="503" type="curve" smooth="yes"/>
			<point x="666" y="503" type="line"/>
			<point x="666" y="485" type="line"/>
			<point x="667" y="484"/>
			<point x="757" y="451"/>
			<point x="770" y="445" type="curve"/>
			<point x="652" y="128" type="line"/>
			<point x="515" y="452" type="line"/>
			<point x="529" y="459"/>
			<point x="599" y="482"/>
			<point x="603" y="485" type="curve"/>
			<point x="603" y="503" type="line"/>
			<point x="556" y="504"/>
			<point x="509" y="496"/>
			<point x="462" y="496" type="curve" smooth="yes"/>
			<point x="417" y="496"/>
			<point x="371" y="503"/>
			<point x="326" y="503" type="curve" smooth="yes"/>
			<point x="321" y="503" type="line"/>
			<point x="321" y="485" type="line"/>
			<point x="321" y="485"/>
			<point x="386" y="462"/>
			<point x="408" y="453" type="curve"/>
			<point x="419" y="428" type="line"/>
			<point x="307" y="128" type="line"/>
			<point x="170" y="452" type="line"/>
			<point x="181" y="457"/>
			<point x="257" y="484"/>
			<point x="258" y="485" type="curve"/>
			<point x="258" y="503" type="line"/>
			<point x="211" y="504"/>
			<point x="164" y="496"/>
			<point x="117" y="496" type="curve" smooth="yes"/>
			<point x="72" y="496"/>
			<point x="26" y="503"/>
			<point x="-19" y="503" type="curve" smooth="yes"/>
			<point x="-24" y="503" type="line"/>
			<point x="-24" y="485" type="line"/>
			<point x="-10" y="475"/>
			<point x="42" y="462"/>
			<point x="63" y="453" type="curve"/>
		</contour>
	</outline>
</glyph>
<glyph name="x" format="2">
	<advance width="567"/>
	<unicode hex="0078"/>
	<outline>
		<contour>
			<point x="-24" y="0" type="line"/>
			<point x="23" y="0"/>
			<point x="70" y="7"/>
			<point x="117" y="7" type="curve" smooth="yes"/>
			<point x="164" y="7"/>
			<point x="211" y="0"/>
			<point x="258" y="0" type="curve"/>
			<point x="258" y="19" type="line"/>
			<point x="226" y="30"/>
			<point x="193" y="40"/>
			<point x="162" y="54" type="curve"/>
			<point x="269" y="205" type="line"/>
			<point x="392" y="49" type="line"/>
			<point x="365" y="36"/>
			<point x="337" y="28"/>
			<point x="309" y="19" type="curve"/>
			<point x="309" y="0" type="line"/>
			<point x="356" y="0"/>
			<point x="403" y="7"/>
			<point x="450" y="7" type="curve" smooth="yes"/>
			<point x="497" y="7"/>
			<point x="544" y="0"/>
			<point x="591" y="0" type="curve"/>
			<point x="591" y="19" type="line"/>
			<point x="560" y="28"/>
			<point x="531" y="39"/>
			<point x="500" y="52" type="curve"/>
			<point x="326" y="273" type="line"/>
			<point x="471" y="442" type="line" smooth="yes"/>
			<point x="485" y="458"/>
			<point x="559" y="479"/>
			<point x="582" y="485" type="curve"/>
			<point x="582" y="503" type="line"/>
			<point x="535" y="500"/>
			<point x="488" y="496"/>
			<point x="441" y="496" type="curve" smooth="yes"/>
			<point x="394" y="496"/>
			<point x="348" y="500"/>
			<point x="300" y="503" type="curve"/>
			<point x="300" y="485" type="line"/>
			<point x="332" y="473"/>
			<point x="365" y="463"/>
			<point x="396" y="449" type="curve"/>
			<point x="298" y="309" type="line"/>
			<point x="184" y="454" type="line"/>
			<point x="211" y="466"/>
			<point x="239" y="475"/>
			<point x="267" y="485" type="curve"/>
			<point x="267" y="503" type="line"/>
			<point x="220" y="503"/>
			<point x="173" y="496"/>
			<point x="126" y="496" type="curve" smooth="yes"/>
			<point x="79" y="496"/>
			<point x="32" y="500"/>
			<point x="-15" y="503" type="curve"/>
			<point x="-15" y="485" type="line"/>
			<point x="15" y="476"/>
			<point x="45" y="464"/>
			<point x="74" y="451" type="curve"/>
			<point x="241" y="240" type="line"/>
			<point x="87" y="61" type="line"/>
			<point x="50" y="46"/>
			<point x="14" y="30"/>
			<point x="-24" y="19" type="curve"/>
		</contour>
	</outline>
</glyph>
<glyph name="y" format="2">
	<advance width="579"/>
	<unicode hex="0079"/>
	<outline>
		<contour>
			<point x="59" y="-250" type="line"/>
			<point x="235" y="-250" type="line"/>
			<point x="246" y="-155"/>
			<point x="290" y="-56"/>
			<point x="327" y="32" type="curve" smooth="yes"/>
			<point x="501" y="446" type="line"/>
			<point x="534" y="462"/>
			<point x="569" y="473"/>
			<point x="603" y="485" type="curve"/>
			<point x="603" y="503" type="line"/>
			<point x="554" y="501"/>
			<point x="509" y="496"/>
			<point x="462" y="496" type="curve" smooth="yes"/>
			<point x="415" y="496"/>
			<point x="369" y="501"/>
			<point x="321" y="503" type="curve"/>
			<point x="321" y="485" type="line"/>
			<point x="356" y="472"/>
			<point x="391" y="460"/>
			<point x="425" y="445" type="curve"/>
			<point x="304" y="128" type="line"/>
			<point x="170" y="452" type="line"/>
			<point x="199" y="464"/>
			<point x="229" y="474"/>
			<point x="258" y="485" type="curve"/>
			<point x="258" y="503" type="line"/>
			<point x="210" y="501"/>
			<point x="164" y="496"/>
			<point x="117" y="496" type="curve" smooth="yes"/>
			<point x="70" y="496"/>
			<point x="25" y="501"/>
			<point x="-24" y="503" type="curve"/>
			<point x="-24" y="485" type="line"/>
			<point x="8" y="473"/>
			<point x="35" y="465"/>
			<point x="63" y="453" type="curve"/>
			<point x="259" y="23" type="line"/>
			<point x="214" y="-87"/>
			<point x="191" y="-193"/>
			<point x="60" y="-225" type="curve"/>
		</contour>
	</outline>
</glyph>
<glyph name="z" format="2">
	<advance width="536"/>
	<unicode hex="007A"/>
	<guideline x="68"/>
	<outline>
		<contour>
			<point x="55" y="0" type="line"/>
			<point x="459" y="0" type="line"/>
			<point x="500" y="198" type="line"/>
			<point x="479" y="203" type="line"/>
			<point x="441" y="117"/>
			<point x="395" y="45"/>
			<point x="290" y="45" type="curve" smooth="yes"/>
			<point x="177" y="45" type="line"/>
			<point x="481" y="477" type="line"/>
			<point x="470" y="500" type="line"/>
			<point x="108" y="500" type="line"/>
			<point x="81" y="323" type="line"/>
			<point x="102" y="319" type="line"/>
			<point x="132" y="395"/>
			<point x="168" y="454"/>
			<point x="258" y="454" type="curve" smooth="yes"/>
			<point x="348" y="454" type="line"/>
			<point x="46" y="25" type="line"/>
		</contour>
	</outline>
</glyph>
<glyph name="braceleft" format="2">
	<advance width="255"/>
	<unicode hex="007B"/>
	<outline>
		<contour>
			<point x="20" y="272" type="line"/>
			<point x="93" y="276" type="line" smooth="yes"/>
			<point x="140" y="279"/>
			<point x="170" y="316"/>
			<point x="163" y="409" type="curve" smooth="yes"/>
			<point x="151" y="569" type="line" smooth="yes"/>
			<point x="145" y="646"/>
			<point x="170" y="678"/>
			<point x="210" y="683" type="curve" smooth="yes"/>
			<point x="235" y="686" type="line"/>
			<point x="234" y="700" type="line"/>
			<point x="191" y="698" type="line" smooth="yes"/>
			<point x="128" y="695"/>
			<point x="77" y="652"/>
			<point x="83" y="578" type="curve" smooth="yes"/>
			<point x="95" y="426" type="line" smooth="yes"/>
			<point x="101" y="347"/>
			<point x="95" y="303"/>
			<point x="41" y="290" type="curve" smooth="yes"/>
			<point x="20" y="285" type="line"/>
		</contour>
		<contour>
			<point x="234" y="-143" type="line"/>
			<point x="235" y="-129" type="line"/>
			<point x="210" y="-126" type="line" smooth="yes"/>
			<point x="170" y="-121"/>
			<point x="145" y="-89"/>
			<point x="151" y="-12" type="curve" smooth="yes"/>
			<point x="163" y="148" type="line" smooth="yes"/>
			<point x="170" y="241"/>
			<point x="140" y="278"/>
			<point x="93" y="281" type="curve" smooth="yes"/>
			<point x="20" y="285" type="line"/>
			<point x="20" y="272" type="line"/>
			<point x="42" y="267" type="line" smooth="yes"/>
			<point x="95" y="255"/>
			<point x="101" y="210"/>
			<point x="95" y="131" type="curve" smooth="yes"/>
			<point x="83" y="-21" type="line" smooth="yes"/>
			<point x="77" y="-95"/>
			<point x="128" y="-138"/>
			<point x="191" y="-141" type="curve" smooth="yes"/>
		</contour>
	</outline>
</glyph>
<glyph name="cent" format="2">
	<advance width="502"/>
	<unicode hex="00A2"/>
	<outline>
		<contour>
			<point x="128" y="-153" type="line"/>
			<point x="426" y="665" type="line"/>
			<point x="394" y="677" type="line"/>
			<point x="96" y="-141" type="line"/>
		</contour>
		<component base="c"/>
	</outline>
</glyph>
<glyph name="sterling" format="2">
	<advance width="598"/>
	<unicode hex="00A3"/>
	<outline>
		<contour>
			<point x="117" y="-12" type="curve" smooth="yes"/>
			<point x="198" y="-12"/>
			<point x="321" y="107"/>
			<point x="321" y="252" type="curve" smooth="yes"/>
			<point x="321" y="391"/>
			<point x="152" y="443"/>
			<point x="152" y="550" type="curve" smooth="yes"/>
			<point x="152" y="605"/>
			<point x="198" y="654"/>
			<point x="286" y="654" type="curve" smooth="yes"/>
			<point x="396" y="654"/>
			<point x="466" y="584"/>
			<point x="468" y="466" type="curve"/>
			<point x="494" y="459" type="line"/>
			<point x="547" y="631" type="line"/>
			<point x="544" y="633" type="line" smooth="yes"/>
			<point x="482" y="675"/>
			<point x="402" y="707"/>
			<point x="320" y="707" type="curve" smooth="yes"/>
			<point x="167" y="707"/>
			<point x="64" y="634"/>
			<point x="64" y="514" type="curve" smooth="yes"/>
			<point x="64" y="399"/>
			<point x="237" y="335"/>
			<point x="237" y="205" type="curve" smooth="yes"/>
			<point x="237" y="91"/>
			<point x="172" y="32"/>
			<point x="124" y="32" type="curve" smooth="yes"/>
			<point x="94" y="32"/>
			<point x="63" y="53"/>
			<point x="63" y="87" type="curve" smooth="yes"/>
			<point x="63" y="118"/>
			<point x="84" y="144"/>
			<point x="124" y="144" type="curve" smooth="yes"/>
			<point x="202" y="144"/>
			<point x="298" y="-10"/>
			<point x="409" y="-10" type="curve" smooth="yes"/>
			<point x="453" y="-10"/>
			<point x="500" y="3"/>
			<point x="525" y="20" type="curve"/>
			<point x="555" y="172" type="line"/>
			<point x="529" y="178" type="line"/>
			<point x="512" y="132"/>
			<point x="495" y="78"/>
			<point x="433" y="78" type="curve" smooth="yes"/>
			<point x="322" y="78"/>
			<point x="222" y="185"/>
			<point x="124" y="185" type="curve" smooth="yes"/>
			<point x="58" y="185"/>
			<point x="13" y="135"/>
			<point x="13" y="87" type="curve" smooth="yes"/>
			<point x="13" y="28"/>
			<point x="57" y="-12"/>
		</contour>
		<contour>
			<point x="31" y="319" type="line"/>
			<point x="500" y="319" type="line"/>
			<point x="500" y="372" type="line"/>
			<point x="31" y="372" type="line"/>
		</contour>
	</outline>
</glyph>
<glyph name="yen" format="2">
	<advance width="632"/>
	<unicode hex="00A5"/>
	<outline>
		<contour>
			<point x="147" y="-4" type="line"/>
			<point x="207" y="-1"/>
			<point x="267" y="3"/>
			<point x="327" y="3" type="curve" smooth="yes"/>
			<point x="385" y="3"/>
			<point x="448" y="-1"/>
			<point x="506" y="-4" type="curve"/>
			<point x="506" y="24" type="line"/>
			<point x="462" y="35"/>
			<point x="418" y="50"/>
			<point x="376" y="66" type="curve"/>
			<point x="376" y="316" type="line"/>
			<point x="602" y="643" type="line"/>
			<point x="626" y="655"/>
			<point x="660" y="668"/>
			<point x="688" y="678" type="curve"/>
			<point x="688" y="705" type="line"/>
			<point x="641" y="701"/>
			<point x="595" y="698"/>
			<point x="548" y="698" type="curve" smooth="yes"/>
			<point x="493" y="698"/>
			<point x="433" y="701"/>
			<point x="378" y="705" type="curve"/>
			<point x="378" y="677" type="line"/>
			<point x="426" y="669"/>
			<point x="468" y="657"/>
			<point x="512" y="643" type="curve"/>
			<point x="354" y="372" type="line"/>
			<point x="178" y="650" type="line"/>
			<point x="212" y="661"/>
			<point x="249" y="669"/>
			<point x="284" y="677" type="curve"/>
			<point x="284" y="705" type="line"/>
			<point x="227" y="701"/>
			<point x="171" y="698"/>
			<point x="114" y="698" type="curve" smooth="yes"/>
			<point x="59" y="698"/>
			<point x="-1" y="701"/>
			<point x="-56" y="705" type="curve"/>
			<point x="-56" y="677" type="line"/>
			<point x="-20" y="670"/>
			<point x="13" y="662"/>
			<point x="46" y="652" type="curve"/>
			<point x="268" y="305" type="line"/>
			<point x="268" y="62" type="line"/>
			<point x="229" y="44"/>
			<point x="193" y="36"/>
			<point x="147" y="24" type="curve"/>
		</contour>
		<contour>
			<point x="49" y="215" type="line"/>
			<point x="583" y="215" type="line"/>
			<point x="583" y="267" type="line"/>
			<point x="49" y="267" type="line"/>
		</contour>
		<contour>
			<point x="49" y="382" type="line"/>
			<point x="266" y="382" type="line"/>
			<point x="245" y="434" type="line"/>
			<point x="49" y="434" type="line"/>
		</contour>
		<contour>
			<point x="388" y="382" type="line"/>
			<point x="583" y="382" type="line"/>
			<point x="583" y="434" type="line"/>
			<point x="425" y="434" type="line"/>
		</contour>
	</outline>
</glyph>
<glyph name="brokenbar" format="2">
	<advance width="116"/>
	<unicode hex="00A6"/>
	<outline>
		<contour>
			<point x="21" y="445" type="line"/>
			<point x="95" y="445" type="line"/>
			<point x="95" y="790" type="line"/>
			<point x="21" y="790" type="line"/>
		</contour>
		<contour>
			<point x="21" y="-80" type="line"/>
			<point x="95" y="-80" type="line"/>
			<point x="95" y="265" type="line"/>
			<point x="21" y="265" type="line"/>
		</contour>
	</outline>
</glyph>
<glyph name="section" format="2">
	<advance width="513"/>
	<unicode hex="00A7"/>
	<outline>
		<contour>
			<point x="215" y="-130" type="curve" smooth="yes"/>
			<point x="303" y="-130"/>
			<point x="413" y="-79"/>
			<point x="413" y="27" type="curve" smooth="yes"/>
			<point x="413" y="76"/>
			<point x="389" y="117"/>
			<point x="323" y="149" type="curve" smooth="yes"/>
			<point x="217" y="200" type="line" smooth="yes"/>
			<point x="183" y="216"/>
			<point x="115" y="255"/>
			<point x="115" y="321" type="curve" smooth="yes"/>
			<point x="115" y="368"/>
			<point x="152" y="425"/>
			<point x="219" y="456" type="curve"/>
			<point x="208" y="483" type="line"/>
			<point x="105" y="433"/>
			<point x="36" y="354"/>
			<point x="36" y="277" type="curve" smooth="yes"/>
			<point x="36" y="194"/>
			<point x="102" y="146"/>
			<point x="152" y="122" type="curve" smooth="yes"/>
			<point x="275" y="62" type="line" smooth="yes"/>
			<point x="313" y="44"/>
			<point x="331" y="16"/>
			<point x="331" y="-13" type="curve" smooth="yes"/>
			<point x="331" y="-59"/>
			<point x="288" y="-83"/>
			<point x="244" y="-83" type="curve" smooth="yes"/>
			<point x="176" y="-83"/>
			<point x="106" y="-26"/>
			<point x="102" y="40" type="curve"/>
			<point x="102" y="44" type="line"/>
			<point x="85" y="48" type="line"/>
			<point x="43" y="-72" type="line"/>
			<point x="45" y="-74" type="line" smooth="yes"/>
			<point x="82" y="-111"/>
			<point x="158" y="-130"/>
		</contour>
		<contour>
			<point x="267" y="123" type="line"/>
			<point x="317" y="159"/>
			<point x="403" y="251"/>
			<point x="403" y="327" type="curve" smooth="yes"/>
			<point x="403" y="376"/>
			<point x="383" y="426"/>
			<point x="298" y="467" type="curve" smooth="yes"/>
			<point x="187" y="520" type="line" smooth="yes"/>
			<point x="153" y="536"/>
			<point x="121" y="568"/>
			<point x="121" y="604" type="curve" smooth="yes"/>
			<point x="121" y="641"/>
			<point x="158" y="666"/>
			<point x="199" y="666" type="curve" smooth="yes"/>
			<point x="257" y="666"/>
			<point x="291" y="619"/>
			<point x="298" y="567" type="curve"/>
			<point x="298" y="564" type="line"/>
			<point x="314" y="560" type="line"/>
			<point x="352" y="662" type="line"/>
			<point x="349" y="664" type="line" smooth="yes"/>
			<point x="315" y="686"/>
			<point x="277" y="707"/>
			<point x="222" y="707" type="curve" smooth="yes"/>
			<point x="140" y="707"/>
			<point x="42" y="659"/>
			<point x="42" y="562" type="curve" smooth="yes"/>
			<point x="42" y="509"/>
			<point x="72" y="466"/>
			<point x="122" y="442" type="curve" smooth="yes"/>
			<point x="245" y="382" type="line" smooth="yes"/>
			<point x="315" y="348"/>
			<point x="321" y="306"/>
			<point x="321" y="277" type="curve" smooth="yes"/>
			<point x="321" y="231"/>
			<point x="287" y="184"/>
			<point x="248" y="141" type="curve"/>
		</contour>
	</outline>
</glyph>
<glyph name="dieresis" format="2">
	<advance width="491"/>
	<unicode hex="00A8"/>
	<outline>
		<contour>
			<point x="345" y="635" type="curve" smooth="yes"/>
			<point x="383" y="635"/>
			<point x="408" y="661"/>
			<point x="408" y="697" type="curve" smooth="yes"/>
			<point x="408" y="732"/>
			<point x="382" y="758"/>
			<point x="345" y="758" type="curve" smooth="yes"/>
			<point x="307" y="758"/>
			<point x="283" y="732"/>
			<point x="283" y="697" type="curve" smooth="yes"/>
			<point x="283" y="661"/>
			<point x="307" y="635"/>
		</contour>
		<contour>
			<point x="145" y="635" type="curve" smooth="yes"/>
			<point x="183" y="635"/>
			<point x="208" y="661"/>
			<point x="208" y="697" type="curve" smooth="yes"/>
			<point x="208" y="732"/>
			<point x="182" y="758"/>
			<point x="145" y="758" type="curve" smooth="yes"/>
			<point x="107" y="758"/>
			<point x="83" y="732"/>
			<point x="83" y="697" type="curve" smooth="yes"/>
			<point x="83" y="661"/>
			<point x="107" y="635"/>
		</contour>
	</outline>
</glyph>
<glyph name="guillemotleft" format="2">
	<advance width="568"/>
	<unicode hex="00AB"/>
	<outline>
		<contour>
			<point x="510" y="37" type="line"/>
			<point x="527" y="53" type="line"/>
			<point x="372" y="259" type="line"/>
			<point x="527" y="460" type="line"/>
			<point x="510" y="476" type="line"/>
			<point x="256" y="257" type="line"/>
		</contour>
		<contour>
			<point x="290" y="37" type="line"/>
			<point x="307" y="53" type="line"/>
			<point x="152" y="259" type="line"/>
			<point x="307" y="460" type="line"/>
			<point x="290" y="476" type="line"/>
			<point x="36" y="257" type="line"/>
		</contour>
	</outline>
</glyph>
<glyph name="degree" format="2">
	<advance width="377"/>
	<unicode hex="00B0"/>
	<outline>
		<contour>
			<point x="188" y="392" type="curve" smooth="yes"/>
			<point x="292" y="392"/>
			<point x="334" y="472"/>
			<point x="334" y="550" type="curve" smooth="yes"/>
			<point x="334" y="618"/>
			<point x="292" y="709"/>
			<point x="188" y="709" type="curve" smooth="yes"/>
			<point x="85" y="709"/>
			<point x="43" y="618"/>
			<point x="43" y="550" type="curve" smooth="yes"/>
			<point x="43" y="472"/>
			<point x="85" y="392"/>
		</contour>
		<contour>
			<point x="188" y="430" type="curve" smooth="yes"/>
			<point x="137" y="430"/>
			<point x="124" y="495"/>
			<point x="124" y="550" type="curve" smooth="yes"/>
			<point x="124" y="595"/>
			<point x="137" y="670"/>
			<point x="188" y="670" type="curve" smooth="yes"/>
			<point x="240" y="670"/>
			<point x="254" y="595"/>
			<point x="254" y="550" type="curve" smooth="yes"/>
			<point x="254" y="495"/>
			<point x="240" y="430"/>
		</contour>
	</outline>
</glyph>
<glyph name="acute" format="2">
	<advance width="297"/>
	<unicode hex="00B4"/>
	<outline>
		<contour>
			<point x="64" y="543" type="line"/>
			<point x="92" y="543" type="line"/>
			<point x="279" y="750" type="line"/>
			<point x="149" y="750" type="line"/>
		</contour>
	</outline>
</glyph>
<glyph name="paragraph" format="2">
	<advance width="626"/>
	<unicode hex="00B6"/>
	<outline>
		<contour>
			<point x="190" y="-4" type="line"/>
			<point x="244" y="0"/>
			<point x="306" y="3"/>
			<point x="370" y="3" type="curve"/>
			<point x="370" y="656" type="line"/>
			<point x="419" y="656" type="line"/>
			<point x="419" y="3" type="line"/>
			<point x="481" y="2"/>
			<point x="536" y="0"/>
			<point x="590" y="-4" type="curve"/>
			<point x="590" y="24" type="line"/>
			<point x="543" y="36"/>
			<point x="508" y="45"/>
			<point x="469" y="62" type="curve"/>
			<point x="469" y="649" type="line"/>
			<point x="506" y="664"/>
			<point x="537" y="666"/>
			<point x="580" y="673" type="curve"/>
			<point x="580" y="701" type="line"/>
			<point x="284" y="701" type="line" smooth="yes"/>
			<point x="158" y="701"/>
			<point x="36" y="656"/>
			<point x="36" y="519" type="curve" smooth="yes"/>
			<point x="36" y="378"/>
			<point x="146" y="328"/>
			<point x="284" y="328" type="curve" smooth="yes"/>
			<point x="320" y="328" type="line"/>
			<point x="320" y="66" type="line"/>
			<point x="278" y="49"/>
			<point x="234" y="35"/>
			<point x="190" y="24" type="curve"/>
		</contour>
		<contour>
			<point x="370" y="3" type="line"/>
			<point x="419" y="3" type="line"/>
		</contour>
	</outline>
</glyph>
<glyph name="cedilla" format="2">
	<advance width="241"/>
	<unicode hex="00B8"/>
	<outline>
		<contour>
			<point x="77" y="-251" type="curve" smooth="yes"/>
			<point x="150" y="-251"/>
			<point x="198" y="-202"/>
			<point x="198" y="-154" type="curve" smooth="yes"/>
			<point x="198" y="-109"/>
			<point x="160" y="-83"/>
			<point x="119" y="-68" type="curve"/>
			<point x="277" y="38" type="line"/>
			<point x="189" y="38" type="line"/>
			<point x="45" y="-79" type="line"/>
			<point x="84" y="-100"/>
			<point x="124" y="-136"/>
			<point x="124" y="-171" type="curve" smooth="yes"/>
			<point x="124" y="-192"/>
			<point x="112" y="-216"/>
			<point x="84" y="-223" type="curve"/>
			<point x="20" y="-152" type="line"/>
			<point x="-1" y="-159"/>
			<point x="-13" y="-174"/>
			<point x="-13" y="-194" type="curve" smooth="yes"/>
			<point x="-13" y="-221"/>
			<point x="17" y="-251"/>
		</contour>
	</outline>
</glyph>
<glyph name="guillemotright" format="2">
	<advance width="568"/>
	<unicode hex="00BB"/>
	<outline>
		<contour>
			<point x="278" y="37" type="line"/>
			<point x="532" y="257" type="line"/>
			<point x="278" y="476" type="line"/>
			<point x="261" y="460" type="line"/>
			<point x="416" y="259" type="line"/>
			<point x="261" y="53" type="line"/>
		</contour>
		<contour>
			<point x="58" y="37" type="line"/>
			<point x="312" y="257" type="line"/>
			<point x="58" y="476" type="line"/>
			<point x="41" y="460" type="line"/>
			<point x="196" y="259" type="line"/>
			<point x="41" y="53" type="line"/>
		</contour>
	</outline>
</glyph>
<glyph name="AE" format="2">
	<advance width="1082"/>
	<unicode hex="00C6"/>
	<outline>
		<contour>
			<point x="1061" y="-2" type="curve"/>
			<point x="1002" y="190" type="line"/>
			<point x="973" y="188" type="line"/>
			<point x="981" y="120"/>
			<point x="985" y="55"/>
			<point x="907" y="55" type="curve" smooth="yes"/>
			<point x="703" y="55" type="line"/>
			<point x="597" y="323" type="line"/>
			<point x="757" y="313" type="line"/>
			<point x="774" y="293"/>
			<point x="794" y="266"/>
			<point x="811" y="239" type="curve"/>
			<point x="837" y="239" type="line"/>
			<point x="824" y="279"/>
			<point x="814" y="318"/>
			<point x="806" y="355" type="curve" smooth="yes"/>
			<point x="798" y="393"/>
			<point x="792" y="427"/>
			<point x="788" y="464" type="curve"/>
			<point x="761" y="464" type="line"/>
			<point x="756" y="428"/>
			<point x="750" y="400"/>
			<point x="744" y="378" type="curve"/>
			<point x="579" y="368" type="line"/>
			<point x="470" y="643" type="line"/>
			<point x="670" y="643" type="line" smooth="yes"/>
			<point x="756" y="643"/>
			<point x="788" y="604"/>
			<point x="818" y="517" type="curve"/>
			<point x="848" y="519" type="line"/>
			<point x="820" y="701" type="line"/>
			<point x="719" y="699"/>
			<point x="619" y="698"/>
			<point x="518" y="698" type="curve" smooth="yes"/>
			<point x="431" y="698"/>
			<point x="343" y="702"/>
			<point x="259" y="705" type="curve"/>
			<point x="259" y="682" type="line"/>
			<point x="295" y="676"/>
			<point x="345" y="662"/>
			<point x="368" y="653" type="curve"/>
			<point x="102" y="63" type="line"/>
			<point x="77" y="49"/>
			<point x="44" y="35"/>
			<point x="6" y="22" type="curve"/>
			<point x="6" y="0" type="line"/>
			<point x="53" y="4"/>
			<point x="100" y="7"/>
			<point x="147" y="7" type="curve" smooth="yes"/>
			<point x="202" y="7"/>
			<point x="262" y="4"/>
			<point x="317" y="0" type="curve"/>
			<point x="317" y="23" type="line"/>
			<point x="264" y="31"/>
			<point x="231" y="42"/>
			<point x="176" y="59" type="curve"/>
			<point x="281" y="314" type="line"/>
			<point x="481" y="324" type="line"/>
			<point x="583" y="53" type="line"/>
			<point x="545" y="38"/>
			<point x="519" y="31"/>
			<point x="476" y="22" type="curve"/>
			<point x="476" y="0" type="line"/>
			<point x="672" y="0"/>
			<point x="865" y="0"/>
		</contour>
		<contour>
			<point x="464" y="369" type="line"/>
			<point x="307" y="376" type="line"/>
			<point x="388" y="575" type="line"/>
		</contour>
	</outline>
</glyph>
<glyph name="Oslash" format="2">
	<advance width="827"/>
	<unicode hex="00D8"/>
	<outline>
		<contour>
			<point x="216" y="-46" type="line"/>
			<point x="662" y="714" type="line"/>
			<point x="613" y="739" type="line"/>
			<point x="171" y="-21" type="line"/>
		</contour>
		<component base="O"/>
	</outline>
</glyph>
<glyph name="germandbls" format="2">
	<advance width="696"/>
	<unicode hex="00DF"/>
	<outline>
		<contour>
			<point x="445" y="-7" type="curve" smooth="yes"/>
			<point x="533" y="-7"/>
			<point x="643" y="44"/>
			<point x="643" y="150" type="curve" smooth="yes"/>
			<point x="643" y="199"/>
			<point x="619" y="240"/>
			<point x="553" y="272" type="curve" smooth="yes"/>
			<point x="447" y="323" type="line" smooth="yes"/>
			<point x="413" y="339"/>
			<point x="381" y="355"/>
			<point x="381" y="391" type="curve" smooth="yes"/>
			<point x="381" y="420"/>
			<point x="405" y="439"/>
			<point x="445" y="458" type="curve" smooth="yes"/>
			<point x="475" y="472" type="line" smooth="yes"/>
			<point x="526" y="496"/>
			<point x="563" y="545"/>
			<point x="563" y="612" type="curve" smooth="yes"/>
			<point x="563" y="708"/>
			<point x="493" y="759"/>
			<point x="388" y="759" type="curve" smooth="yes"/>
			<point x="251" y="759"/>
			<point x="145" y="627"/>
			<point x="131" y="496" type="curve"/>
			<point x="54" y="452" type="line"/>
			<point x="54" y="433" type="line"/>
			<point x="129" y="433" type="line"/>
			<point x="126" y="55" type="line"/>
			<point x="113" y="49"/>
			<point x="38" y="22"/>
			<point x="36" y="20" type="curve"/>
			<point x="36" y="0" type="line"/>
			<point x="218" y="0" type="line"/>
			<point x="218" y="500" type="line" smooth="yes"/>
			<point x="218" y="639"/>
			<point x="274" y="699"/>
			<point x="356" y="699" type="curve" smooth="yes"/>
			<point x="434" y="699"/>
			<point x="480" y="659"/>
			<point x="480" y="593" type="curve" smooth="yes"/>
			<point x="480" y="544"/>
			<point x="449" y="511"/>
			<point x="417" y="494" type="curve" smooth="yes"/>
			<point x="386" y="478" type="line" smooth="yes"/>
			<point x="344" y="456"/>
			<point x="302" y="420"/>
			<point x="302" y="355" type="curve" smooth="yes"/>
			<point x="302" y="302"/>
			<point x="332" y="269"/>
			<point x="382" y="245" type="curve" smooth="yes"/>
			<point x="505" y="185" type="line" smooth="yes"/>
			<point x="543" y="167"/>
			<point x="561" y="139"/>
			<point x="561" y="110" type="curve" smooth="yes"/>
			<point x="561" y="64"/>
			<point x="518" y="40"/>
			<point x="474" y="40" type="curve" smooth="yes"/>
			<point x="406" y="40"/>
			<point x="336" y="97"/>
			<point x="332" y="163" type="curve"/>
			<point x="332" y="167" type="line"/>
			<point x="315" y="171" type="line"/>
			<point x="273" y="51" type="line"/>
			<point x="275" y="49" type="line" smooth="yes"/>
			<point x="312" y="12"/>
			<point x="388" y="-7"/>
		</contour>
	</outline>
</glyph>
<glyph name="atilde" format="2">
	<advance width="482"/>
	<unicode hex="00E3"/>
	<outline>
		<contour>
			<point x="332" y="600" type="curve" smooth="yes"/>
			<point x="376" y="600"/>
			<point x="407" y="651"/>
			<point x="407" y="740" type="curve"/>
			<point x="387" y="740" type="line"/>
			<point x="385" y="715"/>
			<point x="372" y="680"/>
			<point x="335" y="680" type="curve" smooth="yes"/>
			<point x="282" y="680"/>
			<point x="223" y="751"/>
			<point x="166" y="751" type="curve" smooth="yes"/>
			<point x="105" y="751"/>
			<point x="77" y="671"/>
			<point x="77" y="607" type="curve"/>
			<point x="97" y="607" type="line"/>
			<point x="100" y="642"/>
			<point x="121" y="675"/>
			<point x="155" y="675" type="curve" smooth="yes"/>
			<point x="206" y="675"/>
			<point x="278" y="600"/>
		</contour>
		<component base="a"/>
	</outline>
</glyph>
<glyph name="ae" format="2">
	<advance width="699"/>
	<unicode hex="00E6"/>
	<guideline y="512"/>
	<guideline y="512"/>
	<guideline y="512"/>
	<guideline y="512"/>
	<outline>
		<contour>
			<point x="461" y="-9" type="curve" smooth="yes"/>
			<point x="552" y="-9"/>
			<point x="618" y="42"/>
			<point x="668" y="114" type="curve"/>
			<point x="648" y="131" type="line"/>
			<point x="613" y="93"/>
			<point x="566" y="73"/>
			<point x="514" y="73" type="curve" smooth="yes"/>
			<point x="396" y="73"/>
			<point x="364" y="179"/>
			<point x="364" y="279" type="curve" smooth="yes"/>
			<point x="364" y="336"/>
			<point x="385" y="455"/>
			<point x="463" y="455" type="curve" smooth="yes"/>
			<point x="515" y="455"/>
			<point x="539" y="412"/>
			<point x="541" y="367" type="curve"/>
			<point x="329" y="285" type="line"/>
			<point x="333" y="264" type="line"/>
			<point x="640" y="327" type="line"/>
			<point x="640" y="424"/>
			<point x="604" y="511"/>
			<point x="496" y="511" type="curve" smooth="yes"/>
			<point x="379" y="511"/>
			<point x="274" y="358"/>
			<point x="274" y="227" type="curve" smooth="yes"/>
			<point x="274" y="107"/>
			<point x="327" y="-9"/>
		</contour>
		<contour>
			<point x="189" y="66" type="curve" smooth="yes"/>
			<point x="145" y="66"/>
			<point x="125" y="100"/>
			<point x="125" y="138" type="curve" smooth="yes"/>
			<point x="125" y="160"/>
			<point x="131" y="176"/>
			<point x="131" y="176" type="curve"/>
			<point x="272" y="235" type="line"/>
			<point x="272" y="93" type="line"/>
			<point x="246" y="78"/>
			<point x="217" y="66"/>
		</contour>
		<contour>
			<point x="131" y="-6" type="curve" smooth="yes"/>
			<point x="185" y="-6"/>
			<point x="258" y="34"/>
			<point x="302" y="68" type="curve" smooth="yes"/>
			<point x="364" y="116" type="line" smooth="yes"/>
			<point x="364" y="380" type="line" smooth="yes"/>
			<point x="364" y="446"/>
			<point x="334" y="512"/>
			<point x="272" y="512" type="curve" smooth="yes"/>
			<point x="201" y="512"/>
			<point x="37" y="425"/>
			<point x="37" y="365" type="curve" smooth="yes"/>
			<point x="37" y="344"/>
			<point x="56" y="323"/>
			<point x="84" y="323" type="curve" smooth="yes"/>
			<point x="107" y="323"/>
			<point x="130" y="337"/>
			<point x="130" y="362" type="curve" smooth="yes"/>
			<point x="130" y="392" type="line" smooth="yes"/>
			<point x="130" y="428"/>
			<point x="151" y="452"/>
			<point x="198" y="452" type="curve" smooth="yes"/>
			<point x="256" y="452"/>
			<point x="272" y="416"/>
			<point x="272" y="359" type="curve" smooth="yes"/>
			<point x="272" y="268" type="line"/>
			<point x="57" y="201" type="line"/>
			<point x="57" y="201"/>
			<point x="31" y="166"/>
			<point x="31" y="107" type="curve" smooth="yes"/>
			<point x="31" y="38"/>
			<point x="77" y="-6"/>
		</contour>
	</outline>
</glyph>
<glyph name="igrave" format="2">
	<advance width="326"/>
	<unicode hex="00EC"/>
	<outline>
		<contour>
			<point x="21" y="1" type="line"/>
			<point x="68" y="0"/>
			<point x="115" y="8"/>
			<point x="162" y="8" type="curve" smooth="yes"/>
			<point x="207" y="8"/>
			<point x="253" y="1"/>
			<point x="298" y="1" type="curve" smooth="yes"/>
			<point x="303" y="1" type="line"/>
			<point x="303" y="20" type="line"/>
			<point x="302" y="21"/>
			<point x="223" y="48"/>
			<point x="208" y="55" type="curve"/>
			<point x="208" y="508" type="line"/>
			<point x="191" y="515" type="line"/>
			<point x="132" y="481"/>
			<point x="86" y="456"/>
			<point x="21" y="448" type="curve"/>
			<point x="21" y="429" type="line"/>
			<point x="116" y="398" type="line"/>
			<point x="116" y="55" type="line"/>
			<point x="104" y="49"/>
			<point x="21" y="20"/>
			<point x="21" y="20" type="curve"/>
		</contour>
		<component base="grave" xOffset="-20"/>
	</outline>
</glyph>
<glyph name="oslash" format="2">
	<advance width="600"/>
	<unicode hex="00F8"/>
	<outline>
		<contour>
			<point x="143" y="-52" type="line"/>
			<point x="485" y="531" type="line"/>
			<point x="447" y="550" type="line"/>
			<point x="108" y="-33" type="line"/>
		</contour>
		<component base="o"/>
	</outline>
</glyph>
<glyph name="Lslash" format="2">
	<advance width="679"/>
	<unicode hex="0141"/>
	<outline>
		<contour>
			<point x="30" y="200" type="line"/>
			<point x="449" y="455" type="line"/>
			<point x="449" y="519" type="line"/>
			<point x="30" y="264" type="line"/>
		</contour>
		<component base="L"/>
	</outline>
</glyph>
<glyph name="lslash" format="2">
	<advance width="324"/>
	<unicode hex="0142"/>
	<outline>
		<contour>
			<point x="31" y="290" type="line"/>
			<point x="291" y="446" type="line"/>
			<point x="291" y="510" type="line"/>
			<point x="31" y="354" type="line"/>
		</contour>
		<component base="l"/>
	</outline>
</glyph>
<glyph name="OE" format="2">
	<advance width="1082"/>
	<unicode hex="0152"/>
	<outline>
		<contour>
			<point x="406" y="-9" type="line"/>
			<point x="507" y="-9"/>
			<point x="601" y="2"/>
			<point x="702" y="1" type="curve" smooth="yes"/>
			<point x="1018" y="-2" type="line"/>
			<point x="1061" y="202" type="line"/>
			<point x="1031" y="209" type="line"/>
			<point x="1029" y="205" type="line" smooth="yes"/>
			<point x="990" y="126"/>
			<point x="968" y="56"/>
			<point x="866" y="59" type="curve" smooth="yes"/>
			<point x="629" y="66" type="line"/>
			<point x="629" y="66"/>
			<point x="560" y="79"/>
			<point x="520" y="62" type="curve" smooth="yes"/>
			<point x="480" y="45"/>
			<point x="442" y="34"/>
			<point x="399" y="24" type="curve"/>
		</contour>
		<contour>
			<point x="906" y="250" type="curve"/>
			<point x="933" y="250" type="line"/>
			<point x="933" y="289"/>
			<point x="926" y="328"/>
			<point x="926" y="367" type="curve" smooth="yes"/>
			<point x="926" y="404"/>
			<point x="933" y="442"/>
			<point x="933" y="479" type="curve" smooth="yes"/>
			<point x="933" y="484" type="line"/>
			<point x="905" y="484" type="line"/>
			<point x="896" y="456"/>
			<point x="885" y="426"/>
			<point x="870" y="401" type="curve"/>
			<point x="709" y="393" type="line"/>
			<point x="710" y="339" type="line"/>
			<point x="870" y="332" type="line"/>
			<point x="876" y="319"/>
			<point x="902" y="255"/>
		</contour>
		<contour>
			<point x="989" y="509" type="line"/>
			<point x="1018" y="516" type="line"/>
			<point x="1000" y="701" type="line"/>
			<point x="894" y="701"/>
			<point x="778" y="698"/>
			<point x="672" y="698" type="curve" smooth="yes"/>
			<point x="591" y="698" type="line" smooth="yes"/>
			<point x="524" y="698"/>
			<point x="469" y="705"/>
			<point x="414" y="705" type="curve" smooth="yes"/>
			<point x="414" y="705" type="line"/>
			<point x="409" y="677" type="line"/>
			<point x="449" y="668"/>
			<point x="485" y="661"/>
			<point x="520" y="648" type="curve"/>
			<point x="629" y="640" type="line"/>
			<point x="850" y="640" type="line" smooth="yes"/>
			<point x="956" y="640"/>
			<point x="953" y="599"/>
			<point x="987" y="514" type="curve" smooth="yes"/>
		</contour>
		<component base="O"/>
	</outline>
</glyph>
<glyph name="Tcedilla" format="2">
	<advance width="657"/>
	<unicode hex="0162"/>
	<outline>
		<contour>
			<point x="257" y="-251" type="curve" smooth="yes"/>
			<point x="330" y="-251"/>
			<point x="378" y="-202"/>
			<point x="378" y="-154" type="curve" smooth="yes"/>
			<point x="378" y="-109"/>
			<point x="340" y="-83"/>
			<point x="299" y="-68" type="curve"/>
			<point x="439" y="26" type="line"/>
			<point x="369" y="38" type="line"/>
			<point x="225" y="-79" type="line"/>
			<point x="264" y="-100"/>
			<point x="304" y="-136"/>
			<point x="304" y="-171" type="curve" smooth="yes"/>
			<point x="304" y="-192"/>
			<point x="292" y="-216"/>
			<point x="264" y="-223" type="curve"/>
			<point x="200" y="-152" type="line"/>
			<point x="179" y="-159"/>
			<point x="167" y="-174"/>
			<point x="167" y="-194" type="curve" smooth="yes"/>
			<point x="167" y="-221"/>
			<point x="197" y="-251"/>
		</contour>
		<component base="T"/>
	</outline>
</glyph>
<glyph name="tcedilla" format="2">
	<advance width="404"/>
	<unicode hex="0163"/>
	<outline>
		<contour>
			<point x="171" y="-251" type="curve" smooth="yes"/>
			<point x="244" y="-251"/>
			<point x="292" y="-202"/>
			<point x="292" y="-154" type="curve" smooth="yes"/>
			<point x="292" y="-109"/>
			<point x="254" y="-83"/>
			<point x="213" y="-68" type="curve"/>
			<point x="341" y="38" type="line"/>
			<point x="253" y="38" type="line"/>
			<point x="139" y="-79" type="line"/>
			<point x="178" y="-100"/>
			<point x="218" y="-136"/>
			<point x="218" y="-171" type="curve" smooth="yes"/>
			<point x="218" y="-192"/>
			<point x="206" y="-216"/>
			<point x="178" y="-223" type="curve"/>
			<point x="114" y="-152" type="line"/>
			<point x="93" y="-159"/>
			<point x="81" y="-174"/>
			<point x="81" y="-194" type="curve" smooth="yes"/>
			<point x="81" y="-221"/>
			<point x="111" y="-251"/>
		</contour>
		<component base="t"/>
	</outline>
</glyph>
<glyph name="circumflex" format="2">
	<advance width="434"/>
	<unicode hex="02C6"/>
	<outline>
		<contour>
			<point x="64" y="543" type="line"/>
			<point x="92" y="543" type="line"/>
			<point x="226" y="691" type="line"/>
			<point x="361" y="543" type="line"/>
			<point x="389" y="543" type="line"/>
			<point x="280" y="750" type="line"/>
			<point x="173" y="750" type="line"/>
		</contour>
	</outline>
</glyph>
<glyph name="ring" format="2">
	<advance width="310"/>
	<unicode hex="02DA"/>
	<guideline y="866"/>
	<outline>
		<contour>
			<point x="148" y="566" type="curve" smooth="yes"/>
			<point x="200" y="566"/>
			<point x="243" y="604"/>
			<point x="243" y="661" type="curve" smooth="yes"/>
			<point x="243" y="718"/>
			<point x="200" y="756"/>
			<point x="148" y="756" type="curve" smooth="yes"/>
			<point x="95" y="756"/>
			<point x="53" y="718"/>
			<point x="53" y="661" type="curve" smooth="yes"/>
			<point x="53" y="604"/>
			<point x="95" y="566"/>
		</contour>
		<contour>
			<point x="148" y="605" type="curve" smooth="yes"/>
			<point x="121" y="605"/>
			<point x="97" y="629"/>
			<point x="97" y="661" type="curve" smooth="yes"/>
			<point x="97" y="694"/>
			<point x="121" y="718"/>
			<point x="148" y="718" type="curve" smooth="yes"/>
			<point x="176" y="718"/>
			<point x="200" y="694"/>
			<point x="200" y="661" type="curve" smooth="yes"/>
			<point x="200" y="629"/>
			<point x="176" y="605"/>
		</contour>
	</outline>
</glyph>
<glyph name="tilde" format="2">
	<advance width="380"/>
	<unicode hex="02DC"/>
	<outline>
		<contour>
			<point x="325" y="600" type="curve" smooth="yes"/>
			<point x="374" y="600"/>
			<point x="405" y="651"/>
			<point x="405" y="740" type="curve"/>
			<point x="385" y="740" type="line"/>
			<point x="383" y="715"/>
			<point x="370" y="680"/>
			<point x="329" y="680" type="curve" smooth="yes"/>
			<point x="270" y="680"/>
			<point x="171" y="751"/>
			<point x="109" y="751" type="curve" smooth="yes"/>
			<point x="43" y="751"/>
			<point x="15" y="671"/>
			<point x="15" y="607" type="curve"/>
			<point x="35" y="607" type="line"/>
			<point x="38" y="642"/>
			<point x="59" y="675"/>
			<point x="97" y="675" type="curve" smooth="yes"/>
			<point x="154" y="675"/>
			<point x="266" y="600"/>
		</contour>
	</outline>
</glyph>
<glyph name="endash" format="2">
	<advance width="515"/>
	<unicode hex="2013"/>
	<outline>
		<contour>
			<point x="36" y="245" type="line"/>
			<point x="455" y="245" type="line"/>
			<point x="479" y="309" type="line"/>
			<point x="60" y="309" type="line"/>
		</contour>
	</outline>
</glyph>
<glyph name="emdash" format="2">
	<advance width="715"/>
	<unicode hex="2014"/>
	<outline>
		<contour>
			<point x="36" y="245" type="line"/>
			<point x="655" y="245" type="line"/>
			<point x="679" y="309" type="line"/>
			<point x="60" y="309" type="line"/>
		</contour>
	</outline>
</glyph>
<glyph name="quoteleft" format="2">
	<advance width="218"/>
	<unicode hex="2018"/>
	<outline>
		<contour>
			<point x="86" y="480" type="curve" smooth="yes"/>
			<point x="126" y="480"/>
			<point x="149" y="504"/>
			<point x="149" y="535" type="curve" smooth="yes"/>
			<point x="149" y="593"/>
			<point x="94" y="579"/>
			<point x="94" y="612" type="curve" smooth="yes"/>
			<point x="94" y="651"/>
			<point x="140" y="693"/>
			<point x="197" y="737" type="curve"/>
			<point x="188" y="755" type="line"/>
			<point x="76" y="698"/>
			<point x="21" y="641"/>
			<point x="21" y="557" type="curve" smooth="yes"/>
			<point x="21" y="510"/>
			<point x="46" y="480"/>
		</contour>
	</outline>
</glyph>
<glyph name="quoteright" format="2">
	<advance width="218"/>
	<unicode hex="2019"/>
	<outline>
		<contour>
			<point x="30" y="480" type="line"/>
			<point x="142" y="537"/>
			<point x="197" y="594"/>
			<point x="197" y="678" type="curve" smooth="yes"/>
			<point x="197" y="725"/>
			<point x="172" y="755"/>
			<point x="132" y="755" type="curve" smooth="yes"/>
			<point x="92" y="755"/>
			<point x="69" y="731"/>
			<point x="69" y="700" type="curve" smooth="yes"/>
			<point x="69" y="642"/>
			<point x="124" y="656"/>
			<point x="124" y="623" type="curve" smooth="yes"/>
			<point x="124" y="584"/>
			<point x="78" y="542"/>
			<point x="21" y="498" type="curve"/>
		</contour>
	</outline>
</glyph>
<glyph name="quotesinglbase" format="2">
	<advance width="218"/>
	<unicode hex="201A"/>
	<outline>
		<contour>
			<point x="30" y="-156" type="line"/>
			<point x="142" y="-99"/>
			<point x="197" y="-42"/>
			<point x="197" y="42" type="curve" smooth="yes"/>
			<point x="197" y="89"/>
			<point x="172" y="119"/>
			<point x="132" y="119" type="curve" smooth="yes"/>
			<point x="92" y="119"/>
			<point x="69" y="95"/>
			<point x="69" y="64" type="curve" smooth="yes"/>
			<point x="69" y="6"/>
			<point x="124" y="20"/>
			<point x="124" y="-13" type="curve" smooth="yes"/>
			<point x="124" y="-52"/>
			<point x="78" y="-94"/>
			<point x="21" y="-138" type="curve"/>
		</contour>
	</outline>
</glyph>
<glyph name="quotedblleft" format="2">
	<advance width="405"/>
	<unicode hex="201C"/>
	<outline>
		<contour>
			<point x="273" y="480" type="curve" smooth="yes"/>
			<point x="313" y="480"/>
			<point x="336" y="504"/>
			<point x="336" y="535" type="curve" smooth="yes"/>
			<point x="336" y="593"/>
			<point x="281" y="579"/>
			<point x="281" y="612" type="curve" smooth="yes"/>
			<point x="281" y="651"/>
			<point x="327" y="693"/>
			<point x="384" y="737" type="curve"/>
			<point x="375" y="755" type="line"/>
			<point x="263" y="698"/>
			<point x="208" y="641"/>
			<point x="208" y="557" type="curve" smooth="yes"/>
			<point x="208" y="510"/>
			<point x="233" y="480"/>
		</contour>
		<contour>
			<point x="86" y="480" type="curve" smooth="yes"/>
			<point x="126" y="480"/>
			<point x="149" y="504"/>
			<point x="149" y="535" type="curve" smooth="yes"/>
			<point x="149" y="593"/>
			<point x="94" y="579"/>
			<point x="94" y="612" type="curve" smooth="yes"/>
			<point x="94" y="651"/>
			<point x="140" y="693"/>
			<point x="197" y="737" type="curve"/>
			<point x="188" y="755" type="line"/>
			<point x="76" y="698"/>
			<point x="21" y="641"/>
			<point x="21" y="557" type="curve" smooth="yes"/>
			<point x="21" y="510"/>
			<point x="46" y="480"/>
		</contour>
	</outline>
</glyph>
<glyph name="quotedblright" format="2">
	<advance width="405"/>
	<unicode hex="201D"/>
	<outline>
		<contour>
			<point x="217" y="480" type="line"/>
			<point x="329" y="537"/>
			<point x="384" y="594"/>
			<point x="384" y="678" type="curve" smooth="yes"/>
			<point x="384" y="725"/>
			<point x="359" y="755"/>
			<point x="319" y="755" type="curve" smooth="yes"/>
			<point x="279" y="755"/>
			<point x="256" y="731"/>
			<point x="256" y="700" type="curve" smooth="yes"/>
			<point x="256" y="642"/>
			<point x="311" y="656"/>
			<point x="311" y="623" type="curve" smooth="yes"/>
			<point x="311" y="584"/>
			<point x="265" y="542"/>
			<point x="208" y="498" type="curve"/>
		</contour>
		<contour>
			<point x="30" y="480" type="line"/>
			<point x="142" y="537"/>
			<point x="197" y="594"/>
			<point x="197" y="678" type="curve" smooth="yes"/>
			<point x="197" y="725"/>
			<point x="172" y="755"/>
			<point x="132" y="755" type="curve" smooth="yes"/>
			<point x="92" y="755"/>
			<point x="69" y="731"/>
			<point x="69" y="700" type="curve" smooth="yes"/>
			<point x="69" y="642"/>
			<point x="124" y="656"/>
			<point x="124" y="623" type="curve" smooth="yes"/>
			<point x="124" y="584"/>
			<point x="78" y="542"/>
			<point x="21" y="498" type="curve"/>
		</contour>
	</outline>
</glyph>
<glyph name="quotedblbase" format="2">
	<advance width="405"/>
	<unicode hex="201E"/>
	<outline>
		<contour>
			<point x="217" y="-156" type="line"/>
			<point x="329" y="-99"/>
			<point x="384" y="-42"/>
			<point x="384" y="42" type="curve" smooth="yes"/>
			<point x="384" y="89"/>
			<point x="359" y="119"/>
			<point x="319" y="119" type="curve" smooth="yes"/>
			<point x="279" y="119"/>
			<point x="256" y="95"/>
			<point x="256" y="64" type="curve" smooth="yes"/>
			<point x="256" y="6"/>
			<point x="311" y="20"/>
			<point x="311" y="-13" type="curve" smooth="yes"/>
			<point x="311" y="-52"/>
			<point x="265" y="-94"/>
			<point x="208" y="-138" type="curve"/>
		</contour>
		<contour>
			<point x="30" y="-156" type="line"/>
			<point x="142" y="-99"/>
			<point x="197" y="-42"/>
			<point x="197" y="42" type="curve" smooth="yes"/>
			<point x="197" y="89"/>
			<point x="172" y="119"/>
			<point x="132" y="119" type="curve" smooth="yes"/>
			<point x="92" y="119"/>
			<point x="69" y="95"/>
			<point x="69" y="64" type="curve" smooth="yes"/>
			<point x="69" y="6"/>
			<point x="124" y="20"/>
			<point x="124" y="-13" type="curve" smooth="yes"/>
			<point x="124" y="-52"/>
			<point x="78" y="-94"/>
			<point x="21" y="-138" type="curve"/>
		</contour>
	</outline>
</glyph>
<glyph name="dagger" format="2">
	<advance width="516"/>
	<unicode hex="2020"/>
	<outline>
		<contour>
			<point x="258" y="-250" type="curve"/>
			<point x="266" y="-67"/>
			<point x="293" y="117"/>
			<point x="345" y="300" type="curve"/>
			<point x="294" y="357"/>
			<point x="267" y="426"/>
			<point x="258" y="502" type="curve"/>
			<point x="249" y="426"/>
			<point x="221" y="357"/>
			<point x="171" y="300" type="curve"/>
			<point x="226" y="117"/>
			<point x="253" y="-67"/>
		</contour>
		<contour>
			<point x="99" y="464" type="curve" smooth="yes"/>
			<point x="258" y="502" type="line"/>
			<point x="99" y="543" type="line" smooth="yes"/>
			<point x="15" y="565"/>
			<point x="15" y="444"/>
		</contour>
		<contour>
			<point x="417" y="464" type="line" smooth="yes"/>
			<point x="501" y="444"/>
			<point x="501" y="565"/>
			<point x="417" y="543" type="curve" smooth="yes"/>
			<point x="258" y="502" type="line"/>
		</contour>
		<contour>
			<point x="258" y="502" type="line"/>
			<point x="302" y="686" type="line" smooth="yes"/>
			<point x="325" y="783"/>
			<point x="185" y="783"/>
			<point x="210" y="686" type="curve" smooth="yes"/>
		</contour>
	</outline>
</glyph>
<glyph name="bullet" format="2">
	<advance width="333"/>
	<unicode hex="2022"/>
	<outline>
		<contour>
			<point x="167" y="137" type="curve" smooth="yes"/>
			<point x="238" y="137"/>
			<point x="297" y="196"/>
			<point x="297" y="268" type="curve" smooth="yes"/>
			<point x="297" y="338"/>
			<point x="238" y="397"/>
			<point x="167" y="397" type="curve" smooth="yes"/>
			<point x="95" y="397"/>
			<point x="36" y="338"/>
			<point x="36" y="268" type="curve" smooth="yes"/>
			<point x="36" y="196"/>
			<point x="95" y="137"/>
		</contour>
	</outline>
</glyph>
<glyph name="perthousand" format="2">
	<advance width="1095"/>
	<unicode hex="2030"/>
	<outline>
		<contour>
			<point x="116" y="0" type="line"/>
			<point x="201" y="0" type="line"/>
			<point x="629" y="699" type="line"/>
			<point x="544" y="699" type="line"/>
		</contour>
		<contour>
			<point x="554" y="-10" type="curve" smooth="yes"/>
			<point x="658" y="-10"/>
			<point x="700" y="70"/>
			<point x="700" y="148" type="curve" smooth="yes"/>
			<point x="700" y="216"/>
			<point x="658" y="307"/>
			<point x="554" y="307" type="curve" smooth="yes"/>
			<point x="451" y="307"/>
			<point x="409" y="216"/>
			<point x="409" y="148" type="curve" smooth="yes"/>
			<point x="409" y="70"/>
			<point x="451" y="-10"/>
		</contour>
		<contour>
			<point x="554" y="28" type="curve" smooth="yes"/>
			<point x="503" y="28"/>
			<point x="490" y="93"/>
			<point x="490" y="148" type="curve" smooth="yes"/>
			<point x="490" y="193"/>
			<point x="503" y="268"/>
			<point x="554" y="268" type="curve" smooth="yes"/>
			<point x="606" y="268"/>
			<point x="620" y="193"/>
			<point x="620" y="148" type="curve" smooth="yes"/>
			<point x="620" y="93"/>
			<point x="606" y="28"/>
		</contour>
		<contour>
			<point x="201" y="392" type="curve" smooth="yes"/>
			<point x="305" y="392"/>
			<point x="347" y="472"/>
			<point x="347" y="550" type="curve" smooth="yes"/>
			<point x="347" y="618"/>
			<point x="305" y="709"/>
			<point x="201" y="709" type="curve" smooth="yes"/>
			<point x="98" y="709"/>
			<point x="56" y="618"/>
			<point x="56" y="550" type="curve" smooth="yes"/>
			<point x="56" y="472"/>
			<point x="98" y="392"/>
		</contour>
		<contour>
			<point x="201" y="430" type="curve" smooth="yes"/>
			<point x="150" y="430"/>
			<point x="137" y="495"/>
			<point x="137" y="550" type="curve" smooth="yes"/>
			<point x="137" y="595"/>
			<point x="150" y="670"/>
			<point x="201" y="670" type="curve" smooth="yes"/>
			<point x="253" y="670"/>
			<point x="267" y="595"/>
			<point x="267" y="550" type="curve" smooth="yes"/>
			<point x="267" y="495"/>
			<point x="253" y="430"/>
		</contour>
		<contour>
			<point x="899" y="-10" type="curve" smooth="yes"/>
			<point x="1003" y="-10"/>
			<point x="1045" y="70"/>
			<point x="1045" y="148" type="curve" smooth="yes"/>
			<point x="1045" y="216"/>
			<point x="1003" y="307"/>
			<point x="899" y="307" type="curve" smooth="yes"/>
			<point x="796" y="307"/>
			<point x="754" y="216"/>
			<point x="754" y="148" type="curve" smooth="yes"/>
			<point x="754" y="70"/>
			<point x="796" y="-10"/>
		</contour>
		<contour>
			<point x="899" y="28" type="curve" smooth="yes"/>
			<point x="848" y="28"/>
			<point x="835" y="93"/>
			<point x="835" y="148" type="curve" smooth="yes"/>
			<point x="835" y="193"/>
			<point x="848" y="268"/>
			<point x="899" y="268" type="curve" smooth="yes"/>
			<point x="951" y="268"/>
			<point x="965" y="193"/>
			<point x="965" y="148" type="curve" smooth="yes"/>
			<point x="965" y="93"/>
			<point x="951" y="28"/>
		</contour>
	</outline>
</glyph>
<glyph name="guilsinglleft" format="2">
	<advance width="348"/>
	<unicode hex="2039"/>
	<outline>
		<contour>
			<point x="290" y="37" type="line"/>
			<point x="307" y="53" type="line"/>
			<point x="152" y="259" type="line"/>
			<point x="307" y="460" type="line"/>
			<point x="290" y="476" type="line"/>
			<point x="36" y="257" type="line"/>
		</contour>
	</outline>
</glyph>
<glyph name="guilsinglright" format="2">
	<advance width="348"/>
	<unicode hex="203A"/>
	<outline>
		<contour>
			<point x="58" y="37" type="line"/>
			<point x="312" y="257" type="line"/>
			<point x="58" y="476" type="line"/>
			<point x="41" y="460" type="line"/>
			<point x="196" y="259" type="line"/>
			<point x="41" y="53" type="line"/>
		</contour>
	</outline>
</glyph>
<glyph name="fraction" format="2">
	<advance width="448"/>
	<unicode hex="2044"/>
	<outline>
		<contour>
			<point x="21" y="0" type="line"/>
			<point x="95" y="0" type="line"/>
			<point x="427" y="717" type="line"/>
			<point x="353" y="717" type="line"/>
		</contour>
	</outline>
</glyph>
<glyph name="Euro" format="2">
	<advance width="712"/>
	<unicode hex="20AC"/>
	<outline>
		<contour>
			<point x="418" y="-10" type="curve" smooth="yes"/>
			<point x="488" y="-10"/>
			<point x="559" y="15"/>
			<point x="629" y="54" type="curve"/>
			<point x="630" y="55" type="line"/>
			<point x="676" y="257" type="line"/>
			<point x="646" y="263" type="line"/>
			<point x="645" y="261" type="line" smooth="yes"/>
			<point x="592" y="155"/>
			<point x="557" y="51"/>
			<point x="457" y="51" type="curve" smooth="yes"/>
			<point x="327" y="51"/>
			<point x="259" y="211"/>
			<point x="259" y="378" type="curve" smooth="yes"/>
			<point x="259" y="527"/>
			<point x="297" y="644"/>
			<point x="406" y="644" type="curve" smooth="yes"/>
			<point x="506" y="644"/>
			<point x="561" y="583"/>
			<point x="614" y="488" type="curve"/>
			<point x="615" y="487"/>
			<point x="615" y="485"/>
			<point x="615" y="484" type="curve"/>
			<point x="645" y="490" type="line"/>
			<point x="622" y="651" type="line"/>
			<point x="620" y="652" type="line" smooth="yes"/>
			<point x="550" y="687"/>
			<point x="507" y="707"/>
			<point x="435" y="707" type="curve" smooth="yes"/>
			<point x="273" y="707"/>
			<point x="131" y="545"/>
			<point x="131" y="328" type="curve" smooth="yes"/>
			<point x="131" y="121"/>
			<point x="274" y="-10"/>
		</contour>
		<contour>
			<point x="36" y="264" type="line"/>
			<point x="500" y="264" type="line"/>
			<point x="514" y="317" type="line"/>
			<point x="50" y="317" type="line"/>
		</contour>
		<contour>
			<point x="54" y="381" type="line"/>
			<point x="538" y="381" type="line"/>
			<point x="552" y="434" type="line"/>
			<point x="68" y="434" type="line"/>
		</contour>
	</outline>
</glyph>
<glyph name="minus" format="2">
	<advance width="512"/>
	<unicode hex="2212"/>
	<outline>
		<contour>
			<point x="70" y="310" type="line"/>
			<point x="442" y="310" type="line"/>
			<point x="442" y="367" type="line"/>
			<point x="70" y="367" type="line"/>
		</contour>
	</outline>
</glyph>
<glyph name="f_f" format="2">
	<advance width="700"/>
	<unicode hex="FB00"/>
	<outline>
		<contour>
			<point x="36" y="1" type="line"/>
			<point x="81" y="0"/>
			<point x="127" y="8"/>
			<point x="173" y="8" type="curve" smooth="yes"/>
			<point x="216" y="8"/>
			<point x="259" y="1"/>
			<point x="303" y="1" type="curve" smooth="yes"/>
			<point x="308" y="1" type="line"/>
			<point x="308" y="20" type="line"/>
			<point x="306" y="22"/>
			<point x="230" y="50"/>
			<point x="218" y="55" type="curve"/>
			<point x="218" y="433" type="line"/>
			<point x="492" y="433" type="line"/>
			<point x="522" y="500" type="line"/>
			<point x="218" y="500" type="line"/>
			<point x="218" y="593"/>
			<point x="263" y="663"/>
			<point x="346" y="663" type="curve" smooth="yes"/>
			<point x="408" y="663"/>
			<point x="444" y="631"/>
			<point x="479" y="572" type="curve"/>
			<point x="528" y="649" type="line"/>
			<point x="499" y="688"/>
			<point x="454" y="718"/>
			<point x="391" y="718" type="curve" smooth="yes"/>
			<point x="271" y="718"/>
			<point x="160" y="627"/>
			<point x="131" y="496" type="curve"/>
			<point x="54" y="452" type="line"/>
			<point x="54" y="433" type="line"/>
			<point x="129" y="433" type="line"/>
			<point x="126" y="55" type="line"/>
			<point x="113" y="49"/>
			<point x="38" y="22"/>
			<point x="36" y="20" type="curve"/>
		</contour>
		<component base="f" xOffset="324"/>
	</outline>
</glyph>
<glyph name="f_f_i" format="2">
	<advance width="989"/>
	<unicode hex="FB03"/>
	<outline>
		<contour>
			<point x="362" y="1" type="line"/>
			<point x="407" y="0"/>
			<point x="453" y="8"/>
			<point x="498" y="8" type="curve" smooth="yes"/>
			<point x="542" y="8"/>
			<point x="585" y="1"/>
			<point x="629" y="1" type="curve" smooth="yes"/>
			<point x="634" y="1" type="line"/>
			<point x="634" y="20" type="line"/>
			<point x="632" y="22"/>
			<point x="556" y="50"/>
			<point x="544" y="55" type="curve"/>
			<point x="544" y="433" type="line"/>
			<point x="723" y="433" type="line" smooth="yes"/>
			<point x="749" y="433"/>
			<point x="779" y="398"/>
			<point x="779" y="368" type="curve" smooth="yes"/>
			<point x="779" y="55" type="line"/>
			<point x="767" y="49"/>
			<point x="684" y="20"/>
			<point x="684" y="20" type="curve"/>
			<point x="684" y="1" type="line"/>
			<point x="731" y="0"/>
			<point x="778" y="8"/>
			<point x="825" y="8" type="curve" smooth="yes"/>
			<point x="870" y="8"/>
			<point x="916" y="1"/>
			<point x="961" y="1" type="curve" smooth="yes"/>
			<point x="966" y="1" type="line"/>
			<point x="966" y="20" type="line"/>
			<point x="965" y="21"/>
			<point x="886" y="48"/>
			<point x="871" y="55" type="curve"/>
			<point x="871" y="508" type="line"/>
			<point x="854" y="515" type="line"/>
			<point x="835" y="509"/>
			<point x="819" y="500"/>
			<point x="795" y="500" type="curve" smooth="yes"/>
			<point x="544" y="500" type="line"/>
			<point x="544" y="573"/>
			<point x="566" y="699"/>
			<point x="674" y="699" type="curve" smooth="yes"/>
			<point x="716" y="699"/>
			<point x="747" y="682"/>
			<point x="761" y="663" type="curve" smooth="yes"/>
			<point x="790" y="624" type="line"/>
			<point x="841" y="624"/>
			<point x="866" y="649"/>
			<point x="866" y="686" type="curve" smooth="yes"/>
			<point x="866" y="723"/>
			<point x="820" y="759"/>
			<point x="732" y="759" type="curve" smooth="yes"/>
			<point x="583" y="759"/>
			<point x="471" y="627"/>
			<point x="457" y="496" type="curve"/>
			<point x="380" y="452" type="line"/>
			<point x="380" y="433" type="line"/>
			<point x="455" y="433" type="line"/>
			<point x="452" y="55" type="line"/>
			<point x="439" y="49"/>
			<point x="364" y="22"/>
			<point x="362" y="20" type="curve"/>
		</contour>
		<contour>
			<point x="36" y="1" type="line"/>
			<point x="81" y="0"/>
			<point x="127" y="8"/>
			<point x="173" y="8" type="curve" smooth="yes"/>
			<point x="216" y="8"/>
			<point x="259" y="1"/>
			<point x="303" y="1" type="curve" smooth="yes"/>
			<point x="308" y="1" type="line"/>
			<point x="308" y="20" type="line"/>
			<point x="306" y="22"/>
			<point x="230" y="50"/>
			<point x="218" y="55" type="curve"/>
			<point x="218" y="433" type="line"/>
			<point x="492" y="433" type="line"/>
			<point x="522" y="500" type="line"/>
			<point x="218" y="500" type="line"/>
			<point x="218" y="593"/>
			<point x="263" y="663"/>
			<point x="346" y="663" type="curve" smooth="yes"/>
			<point x="408" y="663"/>
			<point x="444" y="631"/>
			<point x="479" y="572" type="curve"/>
			<point x="528" y="649" type="line"/>
			<point x="499" y="688"/>
			<point x="454" y="718"/>
			<point x="391" y="718" type="curve" smooth="yes"/>
			<point x="271" y="718"/>
			<point x="160" y="627"/>
			<point x="131" y="496" type="curve"/>
			<point x="54" y="452" type="line"/>
			<point x="54" y="433" type="line"/>
			<point x="129" y="433" type="line"/>
			<point x="126" y="55" type="line"/>
			<point x="113" y="49"/>
			<point x="38" y="22"/>
			<point x="36" y="20" type="curve"/>
		</contour>
	</outline>
</glyph>
<glyph name="f_f_l" format="2">
	<advance width="988"/>
	<unicode hex="FB04"/>
	<outline>
		<contour>
			<point x="362" y="1" type="line"/>
			<point x="407" y="0"/>
			<point x="453" y="8"/>
			<point x="498" y="8" type="curve" smooth="yes"/>
			<point x="542" y="8"/>
			<point x="585" y="1"/>
			<point x="629" y="1" type="curve" smooth="yes"/>
			<point x="634" y="1" type="line"/>
			<point x="634" y="20" type="line"/>
			<point x="632" y="22"/>
			<point x="556" y="50"/>
			<point x="544" y="55" type="curve"/>
			<point x="544" y="433" type="line"/>
			<point x="809" y="433" type="line"/>
			<point x="839" y="500" type="line"/>
			<point x="544" y="500" type="line"/>
			<point x="544" y="573"/>
			<point x="566" y="699"/>
			<point x="674" y="699" type="curve" smooth="yes"/>
			<point x="733" y="699"/>
			<point x="780" y="665"/>
			<point x="780" y="609" type="curve" smooth="yes"/>
			<point x="780" y="55" type="line"/>
			<point x="768" y="49"/>
			<point x="685" y="20"/>
			<point x="685" y="20" type="curve"/>
			<point x="685" y="1" type="line"/>
			<point x="732" y="0"/>
			<point x="779" y="8"/>
			<point x="826" y="8" type="curve" smooth="yes"/>
			<point x="871" y="8"/>
			<point x="917" y="1"/>
			<point x="962" y="1" type="curve" smooth="yes"/>
			<point x="967" y="1" type="line"/>
			<point x="967" y="20" type="line"/>
			<point x="966" y="21"/>
			<point x="887" y="48"/>
			<point x="872" y="55" type="curve"/>
			<point x="872" y="756" type="line"/>
			<point x="855" y="763" type="line"/>
			<point x="840" y="755"/>
			<point x="829" y="748"/>
			<point x="820" y="743" type="curve"/>
			<point x="798" y="753"/>
			<point x="769" y="759"/>
			<point x="732" y="759" type="curve" smooth="yes"/>
			<point x="583" y="759"/>
			<point x="471" y="627"/>
			<point x="457" y="496" type="curve"/>
			<point x="380" y="452" type="line"/>
			<point x="380" y="433" type="line"/>
			<point x="455" y="433" type="line"/>
			<point x="452" y="55" type="line"/>
			<point x="439" y="49"/>
			<point x="364" y="22"/>
			<point x="362" y="20" type="curve"/>
		</contour>
		<contour>
			<point x="36" y="1" type="line"/>
			<point x="81" y="0"/>
			<point x="127" y="8"/>
			<point x="173" y="8" type="curve" smooth="yes"/>
			<point x="216" y="8"/>
			<point x="259" y="1"/>
			<point x="303" y="1" type="curve" smooth="yes"/>
			<point x="308" y="1" type="line"/>
			<point x="308" y="20" type="line"/>
			<point x="306" y="22"/>
			<point x="230" y="50"/>
			<point x="218" y="55" type="curve"/>
			<point x="218" y="433" type="line"/>
			<point x="492" y="433" type="line"/>
			<point x="522" y="500" type="line"/>
			<point x="218" y="500" type="line"/>
			<point x="218" y="593"/>
			<point x="263" y="663"/>
			<point x="346" y="663" type="curve" smooth="yes"/>
			<point x="408" y="663"/>
			<point x="444" y="631"/>
			<point x="479" y="572" type="curve"/>
			<point x="528" y="649" type="line"/>
			<point x="499" y="688"/>
			<point x="454" y="718"/>
			<point x="391" y="718" type="curve" smooth="yes"/>
			<point x="271" y="718"/>
			<point x="160" y="627"/>
			<point x="131" y="496" type="curve"/>
			<point x="54" y="452" type="line"/>
			<point x="54" y="433" type="line"/>
			<point x="129" y="433" type="line"/>
			<point x="126" y="55" type="line"/>
			<point x="113" y="49"/>
			<point x="38" y="22"/>
			<point x="36" y="20" type="curve"/>
		</contour>
	</outline>
</glyph>
<glyph name="VTF" format="2">
	<advance width="1435"/>
	<guideline y="193"/>
	<outline>
		<contour>
			<point x="692" y="-250" type="line"/>
			<point x="728" y="-250" type="line"/>
			<point x="1117" y="379" type="line"/>
			<point x="1278" y="379" type="line" smooth="yes"/>
			<point x="1384" y="379"/>
			<point x="1381" y="338"/>
			<point x="1415" y="253" type="curve" smooth="yes"/>
			<point x="1417" y="248" type="line"/>
			<point x="1446" y="255" type="line"/>
			<point x="1428" y="440" type="line"/>
			<point x="1322" y="440"/>
			<point x="1216" y="437"/>
			<point x="1110" y="437" type="curve" smooth="yes"/>
			<point x="1077" y="437" type="line" smooth="yes"/>
			<point x="1022" y="437"/>
			<point x="967" y="444"/>
			<point x="912" y="444" type="curve" smooth="yes"/>
			<point x="907" y="444" type="line"/>
			<point x="907" y="416" type="line"/>
			<point x="950" y="406"/>
			<point x="983" y="399"/>
			<point x="1016" y="387" type="curve"/>
			<point x="717" y="-126" type="line"/>
			<point x="419" y="387" type="line"/>
			<point x="452" y="399"/>
			<point x="485" y="406"/>
			<point x="528" y="416" type="curve"/>
			<point x="528" y="444" type="line"/>
			<point x="523" y="444" type="line" smooth="yes"/>
			<point x="468" y="444"/>
			<point x="413" y="437"/>
			<point x="358" y="437" type="curve" smooth="yes"/>
			<point x="325" y="437" type="line" smooth="yes"/>
			<point x="219" y="437"/>
			<point x="113" y="440"/>
			<point x="7" y="440" type="curve"/>
			<point x="-11" y="255" type="line"/>
			<point x="18" y="248" type="line"/>
			<point x="20" y="253" type="line" smooth="yes"/>
			<point x="54" y="338"/>
			<point x="51" y="379"/>
			<point x="157" y="379" type="curve" smooth="yes"/>
			<point x="308" y="379" type="line"/>
		</contour>
		<contour>
			<point x="172" y="-9" type="curve"/>
			<point x="199" y="-9" type="line"/>
			<point x="210" y="20"/>
			<point x="225" y="51"/>
			<point x="235" y="73" type="curve"/>
			<point x="493" y="83" type="line"/>
			<point x="493" y="131" type="line"/>
			<point x="235" y="142" type="line"/>
			<point x="222" y="168"/>
			<point x="209" y="197"/>
			<point x="200" y="225" type="curve"/>
			<point x="172" y="225" type="line"/>
			<point x="175" y="183"/>
			<point x="179" y="145"/>
			<point x="179" y="108" type="curve" smooth="yes"/>
			<point x="179" y="69"/>
			<point x="175" y="30"/>
		</contour>
		<contour>
			<point x="714" y="88" type="line"/>
			<point x="764" y="171" type="line"/>
			<point x="764" y="689" type="line"/>
			<point x="883" y="689" type="line" smooth="yes"/>
			<point x="989" y="689"/>
			<point x="986" y="648"/>
			<point x="1020" y="563" type="curve" smooth="yes"/>
			<point x="1022" y="558" type="line"/>
			<point x="1051" y="565" type="line"/>
			<point x="1033" y="750" type="line"/>
			<point x="927" y="750"/>
			<point x="823" y="747"/>
			<point x="717" y="747" type="curve" smooth="yes"/>
			<point x="611" y="747"/>
			<point x="491" y="750"/>
			<point x="385" y="750" type="curve"/>
			<point x="367" y="565" type="line"/>
			<point x="396" y="558" type="line"/>
			<point x="398" y="563" type="line" smooth="yes"/>
			<point x="432" y="648"/>
			<point x="429" y="689"/>
			<point x="535" y="689" type="curve" smooth="yes"/>
			<point x="664" y="689" type="line"/>
			<point x="664" y="171" type="line"/>
		</contour>
		<contour>
			<point x="1216" y="-9" type="curve"/>
			<point x="1243" y="-9" type="line"/>
			<point x="1240" y="30"/>
			<point x="1236" y="69"/>
			<point x="1236" y="108" type="curve" smooth="yes"/>
			<point x="1236" y="145"/>
			<point x="1240" y="183"/>
			<point x="1243" y="225" type="curve"/>
			<point x="1215" y="225" type="line"/>
			<point x="1206" y="197"/>
			<point x="1193" y="168"/>
			<point x="1180" y="142" type="curve"/>
			<point x="932" y="131" type="line"/>
			<point x="932" y="83" type="line"/>
			<point x="1180" y="73" type="line"/>
			<point x="1190" y="51"/>
			<point x="1205" y="20"/>
		</contour>
	</outline>
</glyph>
<glyph name="f_i" format="2">
	<advance width="663"/>
	<outline>
		<contour>
			<point x="36" y="1" type="line"/>
			<point x="81" y="0"/>
			<point x="127" y="8"/>
			<point x="172" y="8" type="curve" smooth="yes"/>
			<point x="216" y="8"/>
			<point x="259" y="1"/>
			<point x="303" y="1" type="curve" smooth="yes"/>
			<point x="308" y="1" type="line"/>
			<point x="308" y="20" type="line"/>
			<point x="306" y="22"/>
			<point x="230" y="50"/>
			<point x="218" y="55" type="curve"/>
			<point x="218" y="433" type="line"/>
			<point x="397" y="433" type="line" smooth="yes"/>
			<point x="423" y="433"/>
			<point x="453" y="398"/>
			<point x="453" y="368" type="curve" smooth="yes"/>
			<point x="453" y="55" type="line"/>
			<point x="441" y="49"/>
			<point x="358" y="20"/>
			<point x="358" y="20" type="curve"/>
			<point x="358" y="1" type="line"/>
			<point x="405" y="0"/>
			<point x="452" y="8"/>
			<point x="499" y="8" type="curve" smooth="yes"/>
			<point x="544" y="8"/>
			<point x="590" y="1"/>
			<point x="635" y="1" type="curve" smooth="yes"/>
			<point x="640" y="1" type="line"/>
			<point x="640" y="20" type="line"/>
			<point x="639" y="21"/>
			<point x="560" y="48"/>
			<point x="545" y="55" type="curve"/>
			<point x="545" y="508" type="line"/>
			<point x="528" y="515" type="line"/>
			<point x="509" y="509"/>
			<point x="493" y="500"/>
			<point x="469" y="500" type="curve" smooth="yes"/>
			<point x="218" y="500" type="line"/>
			<point x="218" y="573"/>
			<point x="240" y="699"/>
			<point x="348" y="699" type="curve" smooth="yes"/>
			<point x="390" y="699"/>
			<point x="421" y="682"/>
			<point x="435" y="663" type="curve" smooth="yes"/>
			<point x="464" y="624" type="line"/>
			<point x="515" y="624"/>
			<point x="540" y="649"/>
			<point x="540" y="686" type="curve" smooth="yes"/>
			<point x="540" y="723"/>
			<point x="494" y="759"/>
			<point x="406" y="759" type="curve" smooth="yes"/>
			<point x="257" y="759"/>
			<point x="145" y="627"/>
			<point x="131" y="496" type="curve"/>
			<point x="54" y="452" type="line"/>
			<point x="54" y="433" type="line"/>
			<point x="129" y="433" type="line"/>
			<point x="126" y="55" type="line"/>
			<point x="113" y="49"/>
			<point x="38" y="22"/>
			<point x="36" y="20" type="curve"/>
		</contour>
	</outline>
</glyph>
<glyph name="f_l" format="2">
	<advance width="662"/>
	<outline>
		<contour>
			<point x="36" y="1" type="line"/>
			<point x="81" y="0"/>
			<point x="127" y="8"/>
			<point x="172" y="8" type="curve" smooth="yes"/>
			<point x="216" y="8"/>
			<point x="259" y="1"/>
			<point x="303" y="1" type="curve" smooth="yes"/>
			<point x="308" y="1" type="line"/>
			<point x="308" y="20" type="line"/>
			<point x="306" y="22"/>
			<point x="230" y="50"/>
			<point x="218" y="55" type="curve"/>
			<point x="218" y="433" type="line"/>
			<point x="493" y="433" type="line"/>
			<point x="523" y="500" type="line"/>
			<point x="218" y="500" type="line"/>
			<point x="218" y="573"/>
			<point x="240" y="699"/>
			<point x="348" y="699" type="curve" smooth="yes"/>
			<point x="407" y="699"/>
			<point x="454" y="665"/>
			<point x="454" y="609" type="curve" smooth="yes"/>
			<point x="454" y="55" type="line"/>
			<point x="442" y="49"/>
			<point x="359" y="20"/>
			<point x="359" y="20" type="curve"/>
			<point x="359" y="1" type="line"/>
			<point x="406" y="0"/>
			<point x="453" y="8"/>
			<point x="500" y="8" type="curve" smooth="yes"/>
			<point x="545" y="8"/>
			<point x="591" y="1"/>
			<point x="636" y="1" type="curve" smooth="yes"/>
			<point x="641" y="1" type="line"/>
			<point x="641" y="20" type="line"/>
			<point x="640" y="21"/>
			<point x="561" y="48"/>
			<point x="546" y="55" type="curve"/>
			<point x="546" y="756" type="line"/>
			<point x="529" y="763" type="line"/>
			<point x="514" y="755"/>
			<point x="503" y="748"/>
			<point x="494" y="743" type="curve"/>
			<point x="472" y="753"/>
			<point x="443" y="759"/>
			<point x="406" y="759" type="curve" smooth="yes"/>
			<point x="257" y="759"/>
			<point x="145" y="627"/>
			<point x="131" y="496" type="curve"/>
			<point x="54" y="452" type="line"/>
			<point x="54" y="433" type="line"/>
			<point x="129" y="433" type="line"/>
			<point x="126" y="55" type="line"/>
			<point x="113" y="49"/>
			<point x="38" y="22"/>
			<point x="36" y="20" type="curve"/>
		</contour>
	</outline>
</glyph>
